<svg width="16" height="14" viewBox="0 0 16 14" fill="none" xmlns="http://www.w3.org/2000/svg">
	<path id="Danger" fill-rule="evenodd" clip-rule="evenodd" d="M9.9818 1.12163L15.7968 10.9334C15.9248 11.2263 15.9808 11.4644 15.9968 11.7118C16.0288 12.2898 15.8208 12.8517 15.4129 13.284C15.005 13.7148 14.453 13.9692 13.8531 14H2.14312C1.89516 13.9854 1.64721 13.9306 1.41525 13.8459C0.255441 13.3911 -0.304464 12.1118 0.167456 11.0028L6.02247 1.11469C6.22244 0.767105 6.52638 0.467303 6.90232 0.274629C7.99014 -0.311873 9.37391 0.0734762 9.9818 1.12163ZM8.69393 7.5878C8.69393 7.95773 8.38198 8.26678 7.99805 8.26678C7.61411 8.26678 7.29417 7.95773 7.29417 7.5878V5.40749C7.29417 5.03679 7.61411 4.73698 7.99805 4.73698C8.38198 4.73698 8.69393 5.03679 8.69393 5.40749V7.5878ZM7.99805 10.9026C7.61411 10.9026 7.29417 10.5935 7.29417 10.2244C7.29417 9.85366 7.61411 9.54538 7.99805 9.54538C8.38198 9.54538 8.69393 9.84672 8.69393 10.2159C8.69393 10.5935 8.38198 10.9026 7.99805 10.9026Z" fill="#C70000" />
</svg>
