<svg width="24" height="24" viewBox="0 0 24 24" fill="none" xmlns="http://www.w3.org/2000/svg">
<g id="eye icon" clip-path="url(#clip0_348_1155)">
<path id="Vector" d="M2.96442 11.8112C2.99089 11.7516 3.62939 10.3353 5.06029 8.90436C6.38505 7.57936 8.66441 6 12 6C15.3356 6 17.6149 7.57936 18.9397 8.90436C20.3706 10.3353 21.0091 11.7516 21.0355 11.8112C21.0533 11.8512 21.0625 11.8944 21.0625 11.9381C21.0625 11.9819 21.0533 12.0251 21.0355 12.0651C21.0091 12.1246 20.3705 13.5406 18.9397 14.9712C17.6149 16.2959 15.3355 17.875 12 17.875C8.66449 17.875 6.38505 16.2959 5.06029 14.9712C3.62947 13.5406 2.99089 12.1246 2.96442 12.0651C2.94665 12.0251 2.93747 11.9819 2.93747 11.9381C2.93747 11.8944 2.94665 11.8512 2.96442 11.8112ZM5.51843 14.5455C7.32111 16.3401 9.50181 17.25 12 17.25C14.4982 17.25 16.6789 16.3401 18.4815 14.5455C19.2518 13.78 19.8998 12.9006 20.4028 11.9381C19.8998 10.9754 19.2518 10.0958 18.4815 9.33C16.6788 7.53511 14.4982 6.625 12 6.625C9.50181 6.625 7.32118 7.53511 5.51851 9.33C4.74817 10.0958 4.10015 10.9754 3.59712 11.9381C4.10015 12.9006 4.74815 13.78 5.51843 14.5455ZM12 8.50069C12.6799 8.50069 13.3445 8.70229 13.9098 9.08001C14.475 9.45773 14.9156 9.99459 15.1758 10.6227C15.436 11.2508 15.5041 11.942 15.3714 12.6088C15.2388 13.2756 14.9114 13.8881 14.4307 14.3689C13.9499 14.8496 13.3374 15.177 12.6706 15.3096C12.0038 15.4423 11.3126 15.3742 10.6845 15.114C10.0564 14.8538 9.51952 14.4133 9.14181 13.848C8.76409 13.2827 8.56248 12.6181 8.56248 11.9382C8.56351 11.0268 8.92601 10.1531 9.57044 9.50864C10.2149 8.86421 11.0886 8.50172 12 8.50069ZM12 14.7507C12.5562 14.7507 13.1 14.5857 13.5625 14.2767C14.025 13.9677 14.3855 13.5284 14.5984 13.0145C14.8113 12.5006 14.867 11.9351 14.7584 11.3895C14.6499 10.8439 14.3821 10.3428 13.9887 9.94945C13.5954 9.55611 13.0942 9.28825 12.5487 9.17973C12.0031 9.07121 11.4376 9.1269 10.9237 9.33977C10.4098 9.55265 9.97052 9.91313 9.66148 10.3756C9.35243 10.8382 9.18748 11.3819 9.18748 11.9382C9.18832 12.6838 9.48491 13.3987 10.0122 13.926C10.5394 14.4533 11.2543 14.7498 12 14.7507Z" fill="#484848"/>
</g>
<defs>
<clipPath id="clip0_348_1155">
<rect width="24" height="24" fill="white"/>
</clipPath>
</defs>
</svg>
