<svg width="61" height="62" viewBox="0 0 61 62" fill="none" xmlns="http://www.w3.org/2000/svg">
<path d="M55.7234 17.2874C56.1101 18.3141 56.4657 19.3507 56.7355 20.4462C56.8262 20.4462 56.9135 20.4462 57.0008 20.4462C57.7209 20.4462 58.441 20.4435 59.1611 20.4485C59.3029 20.4495 59.4512 20.4588 59.5848 20.5006C59.9854 20.6258 60.2017 20.9393 60.202 21.3672C60.2029 22.5572 60.2005 23.7471 60.2027 24.9371C60.2075 27.5653 60.214 30.1935 60.221 32.8217C60.2217 33.0741 60.1966 33.3188 60.0245 33.521C59.7059 33.8953 59.1652 34.0019 58.6817 33.6317C58.1429 33.219 57.5979 32.8142 57.055 32.4067C56.6267 32.0852 56.1975 31.7648 55.745 31.4215C55.638 31.3362 55.5546 31.2734 55.4707 31.2102C55.3645 31.2875 55.2775 31.349 55.1925 31.413C54.622 31.8422 54.0579 32.2801 53.4782 32.6969C53.2968 32.8273 53.2369 32.9655 53.2396 33.1816C53.2493 33.9511 53.2375 34.7209 53.214 35.4879C53.0316 35.4364 52.8687 35.3883 52.7062 35.3388C51.6359 35.0127 50.5661 34.6854 49.4951 34.362C49.4081 34.3357 49.313 34.3355 49.224 34.3234C49.191 34.4422 49.1625 34.5261 49.1446 34.6122C48.9493 35.5536 48.7559 36.4954 48.5612 37.4369C48.5117 37.6764 48.5306 37.7192 48.757 37.8332C49.7093 38.3124 50.6614 38.7918 51.6146 39.2692C52.1194 39.522 52.6263 39.7708 53.1348 40.0439C52.9908 41.1927 52.6993 42.2804 52.2296 43.322C51.8888 43.1127 51.5607 42.9135 51.2426 42.6999C50.1982 41.9986 49.1578 41.2916 48.1144 40.589C48.0611 40.5531 47.9937 40.5377 47.9234 40.5088C47.8209 41.0116 47.7247 41.4862 47.6275 41.9606C47.4665 42.7462 47.319 43.535 47.1355 44.3155C47.0747 44.5744 47.0964 44.7613 47.3178 44.9151C47.354 44.9403 47.3818 44.9771 47.4139 45.008C48.1533 45.7187 48.8918 46.4302 49.6335 47.1385C49.6957 47.1978 49.7791 47.2354 49.8468 47.2999C49.4563 47.7587 49.0851 48.213 48.6831 48.6389C48.2938 49.0515 47.8727 49.4349 47.447 49.828C47.391 49.8015 47.3439 49.786 47.3177 49.7539C47.0035 49.3679 46.692 48.9799 46.3807 48.5916C46.025 48.1477 45.6702 47.703 45.3151 47.2586C45.2454 47.1714 45.1659 47.1339 45.0591 47.2009C45.0138 47.2294 44.9607 47.2459 44.9157 47.2749C44.4824 47.5538 43.9992 47.7225 43.5131 47.88C42.8485 48.0954 42.1787 48.2955 41.5116 48.5037C41.4468 48.524 41.3854 48.555 41.3124 48.5852C41.5016 48.9303 41.6794 49.257 41.8594 49.5825C42.0787 49.9792 42.2986 50.3757 42.5205 50.771C42.8596 51.3755 43.2026 51.978 43.5388 52.5841C43.5847 52.6669 43.6013 52.7655 43.6193 52.8704C42.8333 53.3751 42.0611 53.8689 41.2844 54.3556C41.0666 54.4921 40.8354 54.6079 40.5947 54.7223C40.4735 54.4584 40.365 54.2066 40.263 53.9523C39.7191 52.5959 39.1775 51.2386 38.6331 49.8825C38.5751 49.7381 38.5038 49.5989 38.4261 49.43C38.1687 49.5392 37.9313 49.6211 37.7126 49.7373C37.3841 49.9119 37.1567 50.1794 37.0584 50.5426C36.9273 51.0274 36.9402 51.5176 36.9961 52.0107C37.0339 52.3432 37.0771 52.6764 37.0876 53.0102C37.0956 53.2645 37.0797 53.5247 37.0321 53.7744C36.9611 54.148 36.8458 54.5069 36.6063 54.823C36.4175 55.0723 36.1927 55.2625 35.9115 55.3922C35.7926 55.447 35.7245 55.5124 35.758 55.6582C35.8644 56.1221 35.9616 56.5881 36.0457 57.0635C35.3543 57.3655 34.6831 57.6655 34.0037 57.9463C33.4743 58.1651 32.9347 58.36 32.3977 58.5428C32.3156 57.5654 32.2355 56.6108 32.155 55.653C30.5901 55.653 29.0482 55.653 27.4845 55.653C27.464 55.7873 27.44 55.9073 27.4283 56.0285C27.4037 56.2832 27.3891 56.5388 27.3641 56.7934C27.3133 57.3109 27.2584 57.8278 27.1909 58.3443C27.1686 58.3386 27.1605 58.3336 27.1461 58.3211C27.1287 58.3055 27.1163 58.3019 27.0824 58.3012C26.4585 58.052 25.8512 57.8129 25.2522 57.5549C24.6945 57.3146 24.1457 57.0543 23.5928 56.7812C23.5952 56.7241 23.5933 56.6877 23.6012 56.6536C23.6974 56.2405 23.7902 55.8265 23.8945 55.4153C23.9381 55.2433 23.914 55.1093 23.7745 54.9863C23.5035 54.7474 23.3639 54.4279 23.2707 54.0921C23.0623 53.3404 23.1517 52.5787 23.2394 51.8238C23.2947 51.3481 23.2701 50.8855 23.1331 50.4339C23.0556 50.1782 22.883 49.9713 22.6517 49.8105C22.2436 49.5269 21.7613 49.4583 21.2938 49.2996C20.5589 51.0325 19.8319 52.7466 19.0868 54.4569C18.9227 54.3673 18.7733 54.2867 18.6316 54.1946C17.7807 53.6416 16.9316 53.0859 16.0829 52.5119C16.1168 52.4112 16.1401 52.3241 16.184 52.2487C16.8599 51.0893 17.5385 49.9315 18.2161 48.7731C18.2819 48.6606 18.3451 48.5467 18.4231 48.4097C17.9819 48.2709 17.5741 48.1395 17.1643 48.0144C16.6581 47.8598 16.1457 47.7185 15.679 47.4651C15.3735 47.2992 15.0817 47.1077 14.7887 46.9203C14.638 46.8239 14.6194 46.8181 14.4964 46.9453C14.4717 46.9709 14.4499 46.9993 14.4271 47.0267C14.2054 47.2932 13.9846 47.5604 13.762 47.8262C13.4308 48.2215 13.1095 48.6257 12.7613 49.0059C12.6212 49.1589 12.5434 49.3791 12.303 49.4431C11.9313 49.0699 11.5602 48.7192 11.224 48.3385C10.8115 47.8713 10.4283 47.3789 10.0406 46.8814C10.2389 46.691 10.4299 46.5176 10.619 46.3422C11.2658 45.7421 11.9115 45.141 12.5588 44.5415C12.6631 44.4449 12.769 44.3489 12.8822 44.2629C12.9879 44.1827 13.0225 44.0881 12.9971 43.9613C12.9398 43.6763 12.8898 43.3898 12.8323 43.1048C12.6387 42.1458 12.444 41.187 12.2465 40.2288C12.232 40.1584 12.1917 40.0933 12.1555 40.0068C10.6687 40.967 9.21433 41.9063 7.74679 42.8317C7.69782 42.7183 7.65985 42.6193 7.62647 42.5189C7.29407 41.5185 7.04684 40.5011 7.01647 39.4407C7.21022 39.3639 7.3866 39.2976 7.55589 39.2168C8.83366 38.6071 10.1104 37.9951 11.3866 37.3822C11.6261 37.2671 11.6318 37.2411 11.5785 36.9932C11.4748 36.51 11.3771 36.0256 11.2752 35.5421C11.1608 34.9994 11.0444 34.4571 10.9266 33.9042C10.8622 33.9075 10.8079 33.9007 10.7596 33.9142C9.82936 34.1757 8.90045 34.4416 7.96988 34.7018C7.63471 34.7955 7.29591 34.8766 6.95436 34.9385C6.94933 34.3127 6.93884 33.7116 6.95361 33.111C6.95856 32.9092 6.88871 32.7916 6.72872 32.6754C6.12312 32.2353 5.52867 31.7803 4.92938 31.3318C4.87433 31.2906 4.81456 31.2556 4.74004 31.2065C4.62947 31.3069 4.52655 31.4004 4.42363 31.4939C4.07848 31.746 3.73124 31.9953 3.38865 32.2506C2.75201 32.7252 2.11522 33.1996 1.48408 33.6812C1.08067 33.989 0.523077 33.8835 0.24456 33.5648C0.0974157 33.3964 0.0307935 33.2083 0.0316629 32.9826C0.0369597 31.6075 0.0383689 30.2324 0.0334126 28.8574C0.0246244 26.4191 0.00981142 23.9809 1.24562e-05 21.5427C-0.000478742 21.4206 0.0135905 21.2967 0.0363687 21.1765C0.115723 20.7578 0.44583 20.4816 0.884176 20.4685C1.2791 20.4567 1.67435 20.456 2.06933 20.4455C2.53529 20.4332 3.0011 20.4157 3.49475 20.3996C3.76429 19.4348 4.04773 18.4618 4.44369 17.4881C5.08465 15.8351 5.86664 14.2911 6.79756 12.8208C6.90169 12.6563 6.95361 12.4946 6.95247 12.2991C6.94548 11.1016 6.94844 9.90399 6.9481 8.7064C6.94808 8.61877 6.9481 8.53113 6.9481 8.43979C7.1067 8.37708 7.2467 8.31782 7.3896 8.2664C7.51569 8.22103 7.64502 8.18439 7.79025 8.1495C8.09435 8.40662 8.38089 8.65839 8.66794 8.90959C8.86737 9.08411 9.0675 9.25784 9.27635 9.43979C9.32728 9.39823 9.37249 9.37013 9.40642 9.3322C9.63706 9.07444 9.85508 8.80486 10.0966 8.5576C10.5137 8.13073 10.9447 7.71709 11.3704 7.29845C11.4449 7.22516 11.5222 7.15461 11.6117 7.07123C11.6961 7.0066 11.7711 6.95799 11.8374 6.89982C13.1414 5.75651 14.5371 4.73631 16.0335 3.85072C16.0941 3.81482 16.1493 3.76981 16.207 3.72905C17.6094 2.91465 19.0736 2.2293 20.6002 1.67271C22.22 1.08214 23.8785 0.632571 25.5854 0.372634C26.4249 0.244784 27.269 0.122762 28.1156 0.0698648C29.1096 0.00776243 30.1101 -0.0186884 31.1051 0.0142638C33.3345 0.0880876 35.5267 0.427879 37.6727 1.03884C39.0883 1.44184 40.4697 1.9372 41.7936 2.57568C42.5418 2.93652 43.2688 3.34003 44.0333 3.74724C45.6292 4.69405 47.0968 5.75219 48.4541 6.9586C48.5134 7.01126 48.5854 7.04998 48.6599 7.11067C49.2071 7.66017 49.7467 8.19342 50.2838 8.72907C50.3654 8.81036 50.4334 8.90464 50.5112 8.98979C50.7564 9.25826 51.0033 9.52524 51.2631 9.80762C51.3806 9.71409 51.4876 9.63662 51.5857 9.54943C51.9986 9.18262 52.4072 8.81128 52.8218 8.44643C52.8712 8.40291 52.9475 8.38905 53.0337 8.36446C53.1181 8.39711 53.1801 8.42675 53.2448 8.45766C53.2448 8.5696 53.2448 8.66676 53.2448 8.76391C53.2448 9.93458 53.2469 11.1052 53.2425 12.2759C53.2419 12.4412 53.2776 12.5821 53.3686 12.7239C54.158 13.9547 54.8376 15.2425 55.4115 16.5846C55.5123 16.8202 55.6193 17.0532 55.7234 17.2874ZM1.00216 21.5797C1.00385 23.7449 1.00595 25.9101 1.00708 28.0753C1.00783 29.5306 1.007 30.986 1.00774 32.4413C1.00779 32.5333 1.01534 32.6252 1.02137 32.7618C2.28737 31.8101 3.51285 30.889 4.73864 29.9676C5.98566 30.9029 7.20542 31.8177 8.45916 32.7579C8.46657 32.6648 8.47271 32.6238 8.47268 32.5828C8.47173 30.7637 8.47023 28.9445 8.50836 27.1043C8.60672 27.099 8.70508 27.0893 8.80345 27.0891C9.51431 27.0878 10.2252 27.0888 10.936 27.0879C11.0313 27.0878 11.1266 27.0814 11.2311 27.0775C11.3161 22.2168 12.961 17.9783 16.3067 14.4386C19.6573 10.8936 23.8183 8.91095 28.7203 8.55135C33.1859 8.22377 37.3037 9.32224 40.9387 11.9097C46.1616 15.6273 48.7702 20.7397 48.9699 27.0823C49.8805 27.0823 50.7884 27.0823 51.7082 27.1296C51.711 27.227 51.7162 27.3244 51.7162 27.4218C51.7167 29.0979 51.7164 30.774 51.7171 32.4502C51.7171 32.54 51.7249 32.6298 51.7311 32.763C52.9975 31.8105 54.2169 30.8934 55.4401 29.9735C55.5228 30.0302 55.5902 30.0729 55.6538 30.1205C56.1905 30.5227 56.7255 30.9271 57.2632 31.3281C57.8648 31.7769 58.4687 32.2227 59.0882 32.6997C59.1297 32.7223 59.1744 32.7534 59.1829 32.6183C59.1834 29.1517 59.1842 25.685 59.1837 22.2183C59.1837 22.0593 59.1716 21.9003 59.1739 21.6997C59.1724 21.643 59.1709 21.5864 59.176 21.4862C59.0861 21.468 58.9962 21.4341 58.9062 21.4341C58.0064 21.4348 57.1065 21.4416 56.2067 21.4452C56.1112 21.4456 56.0157 21.4368 55.9283 21.4327C53.4948 10.4597 43.7656 1.67807 31.5114 1.03498C26.0115 0.746356 20.8765 2.00878 16.2044 4.90041C9.95271 8.76967 6.01582 14.3064 4.25868 21.365C4.04061 21.3806 3.82689 21.3958 3.56015 21.409C3.27344 21.4127 2.98672 21.4165 2.7 21.4201C2.20717 21.4262 1.71424 21.4286 1.22162 21.442C1.1512 21.4439 1.02894 21.3821 1.00216 21.5797ZM30.1967 43.6664C30.8833 42.3529 31.9643 41.5413 33.4243 41.2345C34.4169 41.0259 35.4142 40.8376 36.4131 40.66C37.0047 40.5548 37.541 40.3254 38.063 40.0626C38.0664 40.0065 38.0705 39.9713 38.0705 39.9361C38.0708 38.7379 38.0727 37.5397 38.0698 36.3415C38.0685 35.825 37.9952 35.3155 37.876 34.8135C37.1617 31.8045 34.8213 29.5381 31.7557 28.8815C31.7072 28.8712 31.6613 28.8488 31.5748 28.818C31.6991 28.7742 31.7823 28.7461 31.8646 28.7157C34.0541 27.9061 35.355 25.7536 35.1087 23.5748C34.9119 21.8339 34.0197 20.5398 32.475 19.6931C31.7492 19.2952 30.9622 19.0899 30.0736 19.117C29.8231 19.1366 29.5703 19.1416 29.3223 19.1781C26.7164 19.5619 24.6178 22.0345 25.1832 24.9876C25.5318 26.8082 26.648 28.0498 28.4 28.7276C28.4687 28.7542 28.536 28.7843 28.6585 28.8357C28.5474 28.863 28.4985 28.8764 28.4489 28.8869C24.7682 29.669 22.1527 32.8634 22.1502 36.5806C22.1495 37.6456 22.1501 38.7106 22.1501 39.7756C22.1501 39.8708 22.1501 39.966 22.1501 40.0432C22.5976 40.3066 23.2166 40.5414 23.6545 40.6244C24.6602 40.8149 25.667 41.0001 26.6708 41.2001C28.1588 41.4965 29.2923 42.2761 30.0042 43.6178C30.0248 43.6566 30.0435 43.702 30.0767 43.7262C30.0928 43.7379 30.1404 43.7074 30.1967 43.6664ZM39.9472 45.0197C39.9472 45.0197 39.9304 45.0042 39.9412 44.9692C40.8693 43.6606 41.7863 42.3442 42.7311 41.0474C43.0872 40.5588 43.5088 40.1168 43.8981 39.6516C44.0995 39.4108 44.2646 39.1525 44.3608 38.8479C44.5303 38.3112 43.9263 37.4218 43.1766 37.6341C42.9816 37.6893 42.7877 37.7834 42.6231 37.9004C42.3174 38.1178 42.0148 38.346 41.7439 38.6035C40.6902 39.6053 39.4966 40.4 38.1711 41.0055C37.7141 41.2142 37.2522 41.4107 36.7532 41.5047C35.7035 41.7026 34.6519 41.8914 33.6053 42.1042C32.7705 42.274 32.0563 42.6698 31.5071 43.3228C31.1474 43.7506 30.8576 44.2145 30.8094 44.792C30.7652 45.3222 30.6981 45.8504 30.6535 46.3805C30.5651 47.4323 30.4877 48.4849 30.4011 49.5368C30.3466 50.1998 30.2867 50.8623 30.2226 51.5244C30.2067 51.688 30.1652 51.8491 30.1354 52.0113C30.0644 51.8737 30.0338 51.7394 30.0201 51.6034C29.9493 50.8975 29.8755 50.1917 29.8164 49.4848C29.6988 48.0794 29.5968 46.6727 29.4736 45.2679C29.439 44.8733 29.4194 44.4719 29.2339 44.1022C28.7242 43.0864 27.9163 42.4215 26.8049 42.1549C25.9329 41.9459 25.0469 41.7937 24.166 41.6214C23.6734 41.525 23.1724 41.4705 22.7006 41.281C21.6544 40.8609 20.6614 40.3425 19.763 39.6683C19.2271 39.2663 18.7439 38.7966 18.2226 38.3747C17.9321 38.1396 17.6262 37.9159 17.3014 37.7312C16.9579 37.536 16.5941 37.5346 16.2724 37.8097C15.9339 38.0992 15.7582 38.4573 15.8878 38.8986C15.944 39.0901 16.0506 39.2759 16.1705 39.4383C16.3447 39.6741 16.5354 39.903 16.7473 40.106C17.8963 41.2063 19.0541 42.2977 20.2085 43.3924C20.4415 43.6133 20.6733 43.8354 20.8851 44.0775C20.8786 44.0846 20.872 44.0917 20.8287 44.0881C20.4733 43.8978 20.1119 43.7174 19.7634 43.5155C18.2443 42.635 16.8338 41.6142 15.5908 40.3748C15.3052 40.09 15.0943 39.7689 14.9659 39.393C14.9057 39.2167 14.8522 39.0376 14.8067 38.857C14.6642 38.2919 14.7754 37.774 15.1697 37.3427C15.3655 37.1285 15.6178 36.9641 15.8473 36.7804C15.9008 36.7375 15.9655 36.7081 16.0315 36.6686C16.0132 36.6064 15.9987 36.5562 15.9836 36.506C15.6418 35.3667 15.2893 34.2304 14.9623 33.087C14.7953 32.503 14.5815 31.943 14.2856 31.4116C14.1015 31.081 13.8758 30.7845 13.5822 30.543C13.366 30.3652 13.1302 30.2226 12.8337 30.2145C12.1868 30.1969 11.7551 30.4914 11.5465 31.0965C11.4232 31.4541 11.4596 31.8206 11.5246 32.1766C11.6854 33.0577 11.8686 33.9348 12.0479 34.8126C12.6552 37.7849 13.2636 40.7571 13.8737 43.7289C14.0885 44.775 14.5695 45.6638 15.4651 46.3005C15.8995 46.6094 16.3806 46.8282 16.8886 46.9878C18.3436 47.4451 19.8004 47.8969 21.256 48.3523C21.7352 48.5022 22.2235 48.6305 22.6887 48.8149C23.3778 49.088 23.847 49.5853 24.045 50.3028C24.1806 50.7944 24.2152 51.2935 24.1636 51.8052C24.1103 52.3337 24.0896 52.8666 24.0828 53.3979C24.0802 53.5966 24.1356 53.8036 24.2024 53.9938C24.328 54.3518 24.5837 54.5951 24.9643 54.6806C25.1376 54.7196 25.3195 54.7377 25.4974 54.7379C28.5575 54.7412 31.6175 54.7403 34.6776 54.7399C34.7855 54.7399 34.8937 54.7393 35.0013 54.7315C35.5501 54.692 35.924 54.3924 36.0708 53.8696C36.1827 53.4709 36.1816 53.0648 36.1539 52.6546C36.1081 51.977 35.9671 51.3071 36.1073 50.617C36.2523 49.9033 36.5822 49.3354 37.2247 48.9746C37.4955 48.8226 37.7934 48.7096 38.0903 48.6126C38.6359 48.4346 39.1918 48.2877 39.74 48.117C40.9821 47.7301 42.2253 47.3462 43.4622 46.9435C44.9603 46.4557 45.9393 45.4748 46.3035 43.9401C46.4039 43.5174 46.4711 43.0872 46.5588 42.6615C47.1564 39.7598 47.757 36.8588 48.3526 33.9567C48.4881 33.2965 48.6138 32.6343 48.7314 31.9708C48.7909 31.6354 48.7811 31.3006 48.639 30.9782C48.4013 30.4388 47.962 30.1762 47.3483 30.216C46.9107 30.2443 46.345 30.6971 46.2164 31.1246C45.7842 32.5614 45.3528 33.9983 44.9212 35.4352C44.7812 35.9016 44.6413 36.368 44.5011 36.8352C44.616 36.9275 44.7236 37.0074 44.8237 37.0956C45.3923 37.5964 45.5959 38.2052 45.4022 38.9434C45.2309 39.5963 44.885 40.1414 44.4328 40.6405C43.3821 41.7997 42.2718 42.9008 41.135 43.9764C40.7526 44.3382 40.3541 44.6834 39.9472 45.0197ZM38.0924 33.0971C38.5906 34.227 38.842 35.4056 38.8295 36.6401C38.8203 37.5455 38.8277 38.451 38.8277 39.3564C38.8277 39.442 38.8277 39.5275 38.8277 39.6667C39.0924 39.5049 39.3152 39.3688 39.5492 39.2258C39.1262 38.7486 39.0618 38.24 39.2585 37.6849C39.3207 37.5094 39.3635 37.3274 39.4215 37.1503C39.6726 36.3828 39.9093 35.6101 40.1833 34.8506C40.4577 34.0901 41.0191 33.6276 41.8209 33.458C41.9863 33.423 42.1555 33.4056 42.3189 33.3808C42.3323 33.3611 42.3469 33.3478 42.3516 33.3316C42.3859 33.2124 42.4064 33.0878 42.4541 32.9742C42.5149 32.8296 42.4708 32.7272 42.3771 32.6136C41.5007 31.5502 40.3884 30.8599 39.0379 30.5414C38.9832 30.5285 38.9309 30.5056 38.8551 30.4796C40.4672 29.8353 41.4116 28.7174 41.4597 27.0047C41.5028 25.4727 40.7799 24.3192 39.408 23.6132C38.2452 23.0148 37.0603 23.0734 35.8979 23.659C35.8979 23.8112 35.8984 23.935 35.8978 24.0588C35.8911 25.3041 35.5255 26.4347 34.7759 27.4386C34.6217 27.6452 34.4421 27.8334 34.2716 28.028C34.2189 28.0881 34.1463 28.1375 34.1875 28.2326C34.39 28.6993 34.6042 29.1572 35.0378 29.4707C35.2771 29.6437 35.5228 29.811 35.7429 30.006C35.9693 30.2067 36.2187 30.3515 36.5065 30.4392C36.5191 30.443 36.527 30.4618 36.5474 30.4857C36.4942 30.5129 36.4441 30.5384 36.3739 30.5742C37.0866 31.3149 37.6609 32.1352 38.0924 33.0971ZM18.8444 33.5875C19.4547 33.8541 19.8701 34.3011 20.0757 34.9245C20.4009 35.9107 20.7253 36.8974 21.023 37.8918C21.1507 38.3182 21.0734 38.7371 20.7837 39.0991C20.7533 39.1371 20.7254 39.1772 20.6867 39.2294C20.8124 39.3083 20.9171 39.3757 21.0235 39.4404C21.1337 39.5075 21.2454 39.572 21.3915 39.6584C21.3915 39.516 21.3915 39.4279 21.3915 39.3398C21.3915 38.4433 21.3831 37.5467 21.3953 36.6504C21.4009 36.2433 21.4265 35.8342 21.4791 35.4306C21.6998 33.7393 22.3875 32.2501 23.5085 30.9543C23.6188 30.8269 23.7321 30.702 23.8477 30.5718C23.7804 30.5374 23.7255 30.5094 23.6539 30.4728C23.838 30.3956 24.0045 30.3466 24.1479 30.2601C24.2998 30.1685 24.4278 30.039 24.5696 29.9303C24.7542 29.7888 24.9367 29.6436 25.1296 29.5139C25.625 29.181 25.8525 28.6774 26.0682 28.1542C24.8263 26.8998 24.2469 25.4125 24.3445 23.6915C22.916 22.8367 20.6327 23.0628 19.4082 24.8297C18.8429 25.6455 18.6404 26.555 18.8088 27.5177C19.0652 28.9836 19.9633 29.9474 21.4099 30.4866C21.3177 30.514 21.286 30.5258 21.2532 30.5329C19.945 30.8196 18.8606 31.4709 17.9753 32.4623C17.8107 32.6467 17.773 32.7941 17.9163 32.9941C17.9777 33.0799 18.0174 33.182 18.0591 33.28C18.098 33.3714 18.1602 33.4076 18.2603 33.4271C18.4445 33.4628 18.6238 33.5234 18.8444 33.5875ZM20.3802 19.6121C20.483 19.6975 20.5893 19.7792 20.6881 19.869C21.1768 20.313 21.6653 20.7572 22.1504 21.205C22.5441 21.5683 22.9296 21.9404 23.3259 22.3009C23.4566 22.4198 23.5977 22.5392 23.7555 22.6145C23.9626 22.7134 24.191 22.7689 24.43 22.8498C24.4562 22.7874 24.4865 22.726 24.5082 22.6617C24.5956 22.402 24.662 22.1334 24.7729 21.884C24.8392 21.7349 24.8154 21.6364 24.7238 21.5236C24.55 21.3095 24.3788 21.0934 24.2101 20.8755C23.7039 20.222 23.2013 19.5658 22.6939 18.9132C21.9573 17.9659 21.2165 17.0216 20.4799 16.0743C19.907 15.3375 19.338 14.5977 18.7665 13.8599C18.6127 13.6612 18.5498 13.6473 18.3661 13.8253C17.8025 14.3711 17.2448 14.9231 16.6908 15.4785C16.5671 15.6024 16.4677 15.7498 16.3523 15.8923C16.4098 15.9548 16.4539 16.0104 16.5057 16.0577C16.6902 16.2259 16.8785 16.3901 17.0634 16.558C17.5257 16.9778 17.9889 17.3967 18.4482 17.8198C19.0849 18.4066 19.7183 18.9968 20.3802 19.6121ZM38.8715 20.7552C39.0589 20.5902 39.2461 20.4251 39.4336 20.2603C39.9287 19.8247 40.424 19.3894 40.9189 18.9536C41.4273 18.506 41.9352 18.0579 42.4434 17.6101C42.9449 17.1683 43.4471 16.7273 43.9472 16.2839C43.9912 16.2449 44.0215 16.1909 44.0632 16.1374C43.9081 15.959 43.7605 15.7932 43.6174 15.6237C43.1228 15.0379 42.5794 14.4991 42.006 13.9891C41.8874 13.8835 41.8313 13.8838 41.7373 13.9992C41.2883 14.5502 40.842 15.1034 40.3966 15.6572C39.8788 16.3009 39.3631 16.9463 38.846 17.5905C38.3845 18.1654 37.923 18.7404 37.46 19.3142C37.0082 19.8743 36.5537 20.4324 36.1018 20.9924C35.9177 21.2205 35.7331 21.4484 35.5578 21.683C35.5141 21.7414 35.4696 21.835 35.4866 21.8958C35.5755 22.2154 35.684 22.5296 35.783 22.8374C36.1421 22.733 36.4853 22.6354 36.8265 22.5314C36.8746 22.5168 36.9157 22.4737 36.9552 22.4385C37.3546 22.0828 37.7518 21.7245 38.1522 21.3699C38.3788 21.1692 38.6104 20.9739 38.8715 20.7552ZM35.9147 18.9541C36.1625 18.5538 36.4118 18.1543 36.6579 17.7529C37.6426 16.1475 38.6268 14.5417 39.6096 12.9352C39.7148 12.7632 39.8102 12.5853 39.9227 12.3882C38.999 11.8084 38.0777 11.2848 37.072 10.8781C37.0271 10.965 36.98 11.0399 36.948 11.1205C36.6538 11.8621 36.3629 12.6049 36.0697 13.3468C35.6658 14.369 35.2611 15.391 34.8559 16.4128C34.4637 17.4016 34.0718 18.3905 33.6761 19.3779C33.6372 19.4749 33.6502 19.5319 33.729 19.6076C34.0435 19.9096 34.3468 20.2228 34.6556 20.5306C34.7086 20.5835 34.768 20.63 34.8397 20.6927C35.2044 20.1054 35.5509 19.5472 35.9147 18.9541ZM24.8778 14.5354C24.4001 13.2808 23.9409 12.0194 23.464 10.7783C23.4061 10.7783 23.3863 10.7732 23.371 10.7791C22.4306 11.1394 21.5502 11.6164 20.6878 12.1277C20.6394 12.1564 20.6088 12.2143 20.5715 12.2569C22.2084 15.0394 23.836 17.806 25.4728 20.5882C25.5426 20.5288 25.5867 20.4986 25.6215 20.4603C25.735 20.3352 25.8368 20.1987 25.9583 20.082C26.1509 19.897 26.3483 19.7152 26.5586 19.5505C26.6718 19.4618 26.6933 19.3741 26.6483 19.2525C26.6268 19.1943 26.6078 19.1352 26.5859 19.0771C26.3161 18.3645 26.0452 17.6523 25.7764 16.9393C25.4794 16.1517 25.1844 15.3634 24.8778 14.5354ZM34.6788 10.0872C34.482 10.0302 34.2872 9.96509 34.0881 9.91776C33.3481 9.74185 32.5957 9.63496 31.8408 9.54628C31.7296 9.53322 31.6147 9.55105 31.5035 9.55451C31.4577 10.0493 31.4109 10.5141 31.3726 10.9796C31.332 11.4726 31.2995 11.9663 31.2635 12.4597C31.2276 12.9531 31.1917 13.4464 31.1559 13.9398C31.1196 14.442 31.0841 14.9443 31.0471 15.4465C31.0121 15.9221 30.9721 16.3974 30.941 16.8733C30.9088 17.3653 30.8848 17.8577 30.8559 18.3717C31.1279 18.4363 31.4022 18.5136 31.6815 18.5644C31.9686 18.6166 32.2183 18.8007 32.5288 18.8078C32.56 18.6887 32.5875 18.587 32.6132 18.4848C33.1581 16.3141 33.7034 14.1435 34.2472 11.9726C34.4017 11.3557 34.5518 10.7379 34.6788 10.0872ZM26.7519 14.1264C27.1112 15.6811 27.4705 17.2357 27.825 18.7698C28.3955 18.623 28.9466 18.4811 29.5268 18.3318C29.5268 18.2665 29.5321 18.1798 29.5259 18.0939C29.4945 17.6627 29.452 17.2321 29.4288 16.8005C29.4009 16.2792 29.3884 15.7571 29.3691 15.2354C29.3685 15.2176 29.3683 15.1998 29.367 15.1822C29.3329 14.7333 29.291 14.2849 29.2666 13.8356C29.2387 13.3232 29.2263 12.81 29.2071 12.2971C29.2064 12.2794 29.2054 12.2616 29.2041 12.2439C29.1702 11.7596 29.1331 11.2754 29.103 10.7908C29.0778 10.3849 29.0611 9.97853 29.0383 9.57247C29.037 9.55024 29.0139 9.52921 29.0025 9.51013C27.9248 9.57527 26.8672 9.72421 25.8176 9.99375C25.8176 10.0499 25.8094 10.0944 25.8188 10.1349C25.9524 10.7113 26.0895 11.2869 26.2235 11.8632C26.3955 12.6034 26.5654 13.344 26.7519 14.1264ZM10.6275 30.9958C10.7942 30.4033 11.0895 29.9038 11.6559 29.5964C12.4298 29.1764 13.2601 29.2071 13.9645 29.6988C14.3049 29.9364 14.5891 30.2315 14.8257 30.5681C14.898 30.671 14.9772 30.7108 15.0944 30.6977C15.3075 30.6739 15.5215 30.6557 15.7333 30.6238C16.2541 30.5454 16.7732 30.4569 17.2941 30.3794C17.824 30.3005 18.3553 30.2315 18.8854 30.1542C19.0114 30.1358 19.1351 30.1014 19.283 30.0694C19.1798 29.9368 19.1037 29.8278 19.0162 29.7285C18.7124 29.3835 18.466 28.9961 18.3219 28.5691C18.2342 28.3091 18.0884 28.2251 17.8537 28.2006C17.7913 28.194 17.728 28.1956 17.6652 28.1938C16.768 28.1668 15.8711 28.2117 14.9725 28.1497C14.0512 28.0861 13.1249 28.1524 12.1995 28.0968C11.4021 28.0488 10.5994 28.084 9.79907 28.084C9.70432 28.084 9.60956 28.0941 9.5147 28.0996C9.5147 29.2616 9.5147 30.3924 9.5147 31.544C9.8774 31.4856 10.217 31.4309 10.5449 31.3781C10.573 31.2437 10.5946 31.1408 10.6275 30.9958ZM43.7698 30.8021C43.9374 30.8284 44.1054 30.8532 44.2727 30.8813C44.5282 30.9243 44.7825 30.9749 45.0387 31.0122C45.2466 31.0425 45.3163 31.0125 45.3463 30.8494C45.3914 30.6032 45.5169 30.4113 45.6745 30.2226C45.9489 29.894 46.2867 29.6548 46.671 29.4739C47.1889 29.2301 47.7201 29.2686 48.2439 29.4391C48.5345 29.5337 48.8101 29.685 49.0125 29.9159C49.4289 30.391 49.6924 30.9336 49.6791 31.5807C49.6776 31.649 49.6913 31.7176 49.699 31.7974C50.0498 31.8555 50.3877 31.9114 50.7381 31.9694C50.7381 30.7687 50.7381 29.6021 50.7381 28.4176C50.6322 28.4128 50.5444 28.4043 50.4567 28.4056C48.524 28.4347 46.5909 28.3597 44.6579 28.4491C43.8319 28.4874 43.0025 28.4588 42.1746 28.4538C42.0199 28.4528 41.9404 28.4965 41.8759 28.6488C41.6523 29.1767 41.3402 29.6509 40.9151 30.0472C40.852 30.1061 40.7966 30.1732 40.7271 30.2479C40.7896 30.2763 40.8279 30.304 40.8698 30.3111C41.3279 30.3882 41.787 30.4593 42.2449 30.5375C42.7381 30.6217 43.2302 30.7117 43.7698 30.8021ZM18.9224 20.6239C18.464 20.2988 18.006 19.9732 17.5473 19.6486C16.8483 19.1539 16.15 18.6583 15.4489 18.1666C15.2848 18.0516 15.1105 17.9506 14.9378 17.8413C14.8968 17.8898 14.8754 17.9077 14.8632 17.9305C14.5301 18.5482 14.1932 19.1639 13.8683 19.7858C13.7578 19.9974 13.6819 20.2265 13.5825 20.4442C13.5319 20.5551 13.5488 20.6303 13.6625 20.682C13.7196 20.7079 13.7743 20.739 13.8311 20.7656C14.5284 21.0927 15.2273 21.4164 15.923 21.7468C17.0721 22.2925 18.219 22.8425 19.3672 23.3902C19.4466 23.4281 19.5283 23.4616 19.6112 23.4982C20.1867 23.0137 20.849 22.7181 21.6041 22.5307C21.5299 22.4639 21.4946 22.4257 21.4531 22.3959C21.2865 22.2764 21.1182 22.159 20.95 22.0416C20.2842 21.577 19.6183 21.1126 18.9224 20.6239ZM41.2917 23.4039C43.1211 22.5863 44.9458 21.7589 46.7964 20.9115C46.4305 19.9168 45.9772 19.0022 45.432 18.1162C45.3614 18.1508 45.3101 18.1685 45.2671 18.1981C44.9214 18.4357 44.5793 18.6786 44.2321 18.9142C43.3085 19.5409 42.3833 20.1652 41.4581 20.7895C40.6437 21.339 39.8283 21.887 39.0139 22.4364C38.9576 22.4743 38.9057 22.5183 38.8389 22.5693C38.9201 22.5999 38.9777 22.6243 39.0369 22.6434C39.5524 22.8094 40.057 23.013 40.4534 23.3815C40.7361 23.6444 40.9779 23.6054 41.2917 23.4039ZM14.4251 23.3523C14.0506 23.2296 13.6762 23.1069 13.3017 22.9842C13.1911 22.948 13.0819 22.906 12.9692 22.8775C12.826 22.8412 12.7707 22.8778 12.7388 23.0188C12.6999 23.1909 12.6559 23.3624 12.6291 23.5364C12.5191 24.2501 12.4139 24.9645 12.3103 25.679C12.3034 25.727 12.3248 25.7789 12.3366 25.8507C12.7323 25.9049 13.1214 25.9543 13.5093 26.0121C14.1888 26.1134 14.8673 26.2214 15.5466 26.3239C16.2524 26.4305 16.9583 26.5359 17.665 26.6364C17.7754 26.6521 17.89 26.6386 18.0159 26.6386C18.0258 25.9297 18.2708 25.3163 18.575 24.6972C17.189 24.249 15.8269 23.8085 14.4251 23.3523ZM42.4629 24.6721C42.2919 24.7244 42.1191 24.772 41.9502 24.8304C41.7805 24.8891 41.7693 24.9163 41.8396 25.0823C42.0061 25.4752 42.136 25.8768 42.1796 26.3033C42.1981 26.4845 42.2319 26.6642 42.2643 26.8817C44.1628 26.6485 46.0445 26.4043 47.9252 26.1578C47.8801 25.1249 47.7266 24.1365 47.4964 23.1444C47.4403 23.157 47.3979 23.1639 47.3571 23.1762C46.8773 23.3206 46.397 23.4639 45.918 23.6112C44.7802 23.9609 43.643 24.3126 42.4629 24.6721ZM40.9216 35.4567C40.6454 36.3266 40.3653 37.1954 40.098 38.0679C40.0641 38.1784 40.0731 38.3154 40.1047 38.4286C40.1483 38.585 40.2816 38.6244 40.4242 38.541C40.5004 38.4964 40.564 38.4309 40.6328 38.3742C41.1424 37.9546 41.6501 37.5325 42.1636 37.1175C42.2412 37.0548 42.2717 36.9891 42.2855 36.8961C42.4051 36.0906 42.5298 35.2858 42.6509 34.4804C42.6595 34.4233 42.652 34.3638 42.652 34.3088C41.741 34.1821 41.1754 34.656 41.019 35.1933C40.9968 35.2696 40.9622 35.3424 40.9216 35.4567ZM18.4892 36.4506C18.551 36.7729 18.6193 37.0941 18.6713 37.4178C18.6912 37.5419 18.7472 37.6278 18.8392 37.7074C19.1029 37.9357 19.3612 38.17 19.6226 38.4009C19.6761 38.4482 19.7296 38.4975 19.7902 38.5344C19.9416 38.6264 20.0833 38.5843 20.1284 38.4168C20.1569 38.3112 20.1651 38.184 20.1331 38.0814C19.8318 37.1158 19.5248 36.1518 19.2063 35.1917C19.1518 35.0273 19.0543 34.8674 18.9427 34.7327C18.7316 34.4779 18.4461 34.349 18.0827 34.3137C18.2186 35.0348 18.3478 35.7207 18.4892 36.4506ZM16.5502 35.2201C16.6669 35.6114 16.7815 36.0033 16.9026 36.3933C16.922 36.456 16.9564 36.5396 17.0075 36.5627C17.1923 36.6464 17.3872 36.7084 17.6048 36.7882C17.5951 36.687 17.5938 36.6086 17.5794 36.5326C17.4505 35.8529 17.3146 35.1745 17.193 34.4937C17.1689 34.3584 17.1579 34.1974 17.2098 34.0773C17.306 33.8549 17.2702 33.6722 17.1524 33.4788C17.0692 33.3423 17.0132 33.1896 16.9288 33.0539C16.7786 32.8123 16.6319 32.5659 16.4546 32.3441C16.2473 32.0846 15.9728 31.9287 15.5736 31.9581C15.8981 33.0457 16.2165 34.1128 16.5502 35.2201ZM44.5298 33.5818C44.6822 33.0665 44.8346 32.5512 44.9895 32.0274C44.5096 31.8674 44.1373 31.9668 43.8052 32.2993C43.4709 32.634 43.3499 33.0548 43.2596 33.4913C43.2483 33.5458 43.2901 33.6279 43.333 33.6736C43.5532 33.9075 43.6134 34.1831 43.5696 34.4882C43.528 34.7779 43.4798 35.0667 43.4365 35.3562C43.378 35.7476 43.3216 36.1392 43.2632 36.5377C43.3988 36.5377 43.5112 36.5377 43.6389 36.5377C43.9329 35.5584 44.2237 34.5901 44.5298 33.5818Z" fill="#FEFEFE"/>
<path d="M16.082 52.5316C16.9317 53.0864 17.7808 53.6421 18.6317 54.1952C18.7734 54.2873 18.9228 54.3678 19.0977 54.4726C20.318 55.1958 21.5432 55.8379 22.7905 56.4395C23.0549 56.5671 23.3254 56.6824 23.5931 56.8034C24.1458 57.0549 24.6946 57.3152 25.2523 57.5554C25.8512 57.8134 26.4586 58.0526 27.0879 58.3105C27.1135 58.3209 27.1318 58.3309 27.1318 58.3309L27.1525 58.3291C27.1606 58.3341 27.1687 58.3391 27.2068 58.3571C28.13 58.6919 29.0235 59.0127 29.9157 59.3369C30.0411 59.3824 30.1572 59.3784 30.2818 59.3344C30.7548 59.1674 31.231 59.0092 31.7034 58.8407C31.9384 58.757 32.1678 58.6581 32.3997 58.5661C32.9348 58.3606 33.4744 58.1656 34.0038 57.9468C34.6832 57.666 35.3544 57.366 36.0644 57.0613C37.2394 56.4852 38.3819 55.9277 39.5171 55.356C39.8913 55.1675 40.2466 54.9423 40.6105 54.7338C40.8355 54.6085 41.0666 54.4926 41.2845 54.3561C42.0612 53.8694 42.8334 53.3757 43.6369 52.8671C44.6477 52.187 45.5929 51.4779 46.4925 50.7109C46.8252 50.4273 47.1418 50.1253 47.4657 49.8317C47.8728 49.4355 48.2938 49.052 48.6832 48.6395C49.0852 48.2135 49.4564 47.7593 49.8631 47.2912C50.4616 46.5605 50.9842 45.8182 51.4172 45.0206C51.7172 44.4681 51.972 43.8917 52.247 43.3259C52.6994 42.281 52.9909 41.1932 53.1428 40.0237C53.181 39.5389 53.2348 39.0978 53.2421 38.6559C53.2569 37.7605 53.2472 36.8646 53.246 35.969C53.2458 35.8097 53.2381 35.6504 53.2339 35.4911C53.2376 34.7215 53.2494 33.9517 53.2397 33.1821C53.237 32.966 53.2969 32.8279 53.4783 32.6975C54.058 32.2807 54.6221 31.8428 55.1926 31.4135C55.2776 31.3495 55.3646 31.2881 55.4708 31.2107C55.5547 31.274 55.6381 31.3368 55.7273 31.4168C55.7341 33.9473 55.7549 36.4607 55.7285 38.9736C55.7129 40.4611 55.4086 41.9079 54.9245 43.318C54.1616 45.5403 52.9433 47.5014 51.4323 49.2983C50.7651 50.0917 50.0456 50.8367 49.2876 51.5435C47.9661 52.7758 46.5408 53.8832 45.0437 54.9016C43.547 55.9199 41.9917 56.8431 40.3902 57.6896C38.1952 58.85 35.9383 59.8809 33.6098 60.753C32.5689 61.1429 31.5102 61.4863 30.4607 61.8538C30.2254 61.9362 30.0054 61.9413 29.7574 61.8652C27.7986 61.2641 25.8929 60.5262 24.0171 59.7122C21.4304 58.5897 18.9289 57.3072 16.5409 55.8122C15.1118 54.9175 13.7382 53.948 12.4346 52.8838C11.4293 52.0631 10.4713 51.1898 9.58944 50.2401C8.19868 48.7423 6.99012 47.1172 6.08619 45.2832C5.37074 43.8316 4.85936 42.3175 4.62252 40.7162C4.53303 40.1112 4.46552 39.5061 4.46307 38.8933C4.45327 36.4438 4.4369 33.9943 4.42334 31.5196C4.52663 31.401 4.62955 31.3075 4.74011 31.207C4.81464 31.2561 4.87441 31.2912 4.92946 31.3324C5.52875 31.7809 6.1232 32.2359 6.7288 32.6759C6.88879 32.7921 6.95864 32.9098 6.95368 33.1116C6.93892 33.7121 6.94941 34.3132 6.94938 34.9631C6.94782 36.2525 6.9443 37.493 6.94827 38.7334C6.94903 38.9707 6.97926 39.2078 6.99589 39.445C7.04692 40.5016 7.29414 41.5191 7.62655 42.5194C7.65993 42.6198 7.6979 42.7188 7.74733 42.8528C8.28874 44.3311 9.06483 45.6398 9.98969 46.8674C9.99971 46.8807 10.018 46.8879 10.0324 46.8979C10.4283 47.3794 10.8116 47.8718 11.2241 48.339C11.5603 48.7198 11.9314 49.0705 12.3099 49.4591C13.0025 50.0706 13.6575 50.675 14.3466 51.239C14.9038 51.6951 15.502 52.1026 16.082 52.5316Z" fill="#2570B6"/>
<path d="M16.1819 3.72656C16.1493 3.76972 16.0941 3.81473 16.0335 3.85064C14.5371 4.73622 13.1414 5.75642 11.8374 6.89973C11.7711 6.95791 11.6961 7.00651 11.5896 7.0706C10.7331 7.29158 9.90937 7.49165 9.09235 7.71542C8.6467 7.83747 8.21236 7.9997 7.77291 8.14381C7.64502 8.1843 7.51569 8.22094 7.3896 8.26631C7.2467 8.31774 7.1067 8.37699 6.9481 8.4397C6.9481 8.53105 6.94808 8.61868 6.9481 8.70631C6.94845 9.9039 6.94548 11.1015 6.95247 12.2991C6.95361 12.4945 6.90169 12.6563 6.79756 12.8207C5.86664 14.291 5.08465 15.835 4.44863 17.4682C4.43173 17.3555 4.42641 17.2317 4.42639 17.1078C4.42594 13.7971 4.42603 10.4865 4.42603 7.17582C4.42603 7.06975 4.42603 6.96367 4.42603 6.83656C4.76293 6.6881 5.09828 6.54271 5.43164 6.39303C7.14835 5.62221 8.96107 5.14794 10.7857 4.71397C12.2523 4.36515 13.7353 4.09445 15.2241 3.85587C15.534 3.80621 15.8458 3.76777 16.1819 3.72656Z" fill="#2570B6"/>
<path d="M48.6516 7.09573C48.5855 7.05052 48.5135 7.0118 48.4543 6.95913C47.0969 5.75273 45.6293 4.69458 44.0496 3.75488C44.4462 3.79447 44.8576 3.83406 45.2625 3.90825C46.4534 4.12643 47.6456 4.34041 48.8301 4.58924C50.4641 4.93249 52.0766 5.36156 53.6428 5.93947C54.306 6.18421 54.9461 6.48991 55.5992 6.76212C55.6975 6.80313 55.7443 6.85654 55.7362 6.95962C55.7334 6.99489 55.736 7.03057 55.736 7.06607C55.7357 10.4559 55.7355 13.8457 55.7294 17.2617C55.6194 17.0538 55.5124 16.8207 55.4117 16.5851C54.8378 15.243 54.1581 13.9552 53.3687 12.7244C53.2778 12.5826 53.242 12.4417 53.2426 12.2764C53.247 11.1058 53.2449 9.93511 53.2449 8.76445C53.2449 8.66729 53.2449 8.57014 53.2449 8.4582C53.1803 8.42729 53.1182 8.39765 53.0225 8.35228C52.0658 8.04638 51.1466 7.74363 50.2183 7.471C49.7039 7.31992 49.1743 7.21917 48.6516 7.09573Z" fill="#2571B7"/>
<path d="M51.6964 27.0827C50.7885 27.0827 49.8806 27.0827 48.97 27.0827C48.7703 20.74 46.1617 15.6277 40.9388 11.91C37.3038 9.32259 33.186 8.22412 28.7204 8.5517C23.8184 8.9113 19.6574 10.894 16.3068 14.4389C12.9611 17.9787 11.3162 22.2172 11.2312 27.0779C11.1267 27.0817 11.0314 27.0881 10.9362 27.0883C10.2253 27.0891 9.51442 27.0881 8.80355 27.0894C8.70518 27.0896 8.60683 27.0993 8.47257 27.0997C8.33919 27.0875 8.24171 27.0742 8.14423 27.0741C6.75395 27.0728 5.36367 27.0733 3.97339 27.073C3.9017 27.073 3.82671 27.0826 3.75957 27.0646C3.71953 27.054 3.69182 26.9984 3.65904 26.9383C3.62846 25.072 3.87782 23.2586 4.25517 21.441C4.02174 21.4303 3.81751 21.4208 3.61328 21.4114C3.827 21.3962 4.04072 21.3809 4.25878 21.3654C6.01592 14.3068 9.95282 8.77002 16.2045 4.90076C20.8766 2.00913 26.0116 0.746709 31.5115 1.03534C43.7657 1.67842 53.4949 10.46 55.9284 21.433C56.0159 21.4372 56.1114 21.446 56.2068 21.4456C57.1067 21.4419 58.0065 21.4352 58.9064 21.4345C58.9963 21.4344 59.0862 21.4684 59.1539 21.4981C59.0707 21.4992 59.0097 21.4798 58.9488 21.4798C58.0044 21.4797 57.0599 21.4818 56.1155 21.4852C56.0648 21.4854 56.0142 21.5013 55.9407 21.5137C56.3262 23.3367 56.5529 25.1636 56.5264 27.0315C56.4136 27.0565 56.3164 27.072 56.2191 27.0721C55.1243 27.0738 54.0294 27.0723 52.9345 27.0736C52.5218 27.0741 52.1091 27.0795 51.6964 27.0827ZM48.8945 18.2139C48.9339 18.1475 48.9665 18.0758 49.0138 18.0155C49.2339 17.7354 49.4583 17.4587 49.6806 17.1804C50.0581 16.7076 50.4351 16.2346 50.8202 15.7518C50.7142 15.5797 50.6136 15.4163 50.5136 15.2538C49.4495 15.4323 48.4088 15.6068 47.3316 15.7874C47.4482 15.9801 47.5468 16.143 47.6398 16.2965C47.8833 16.2629 48.0935 16.2339 48.3024 16.205C48.5139 16.5593 48.7134 16.8933 48.9117 17.2256C48.7701 17.4115 48.6424 17.5792 48.5209 17.7388C48.6238 17.934 48.7142 18.1056 48.7655 18.2814C48.6527 18.3262 48.54 18.3709 48.4126 18.4215C48.4886 18.6071 48.5515 18.7605 48.6183 18.9236C48.7609 18.8786 48.8858 18.8391 49.0397 18.7905C49.2874 19.4158 49.5303 20.0291 49.7765 20.6509C49.6265 20.7199 49.5076 20.7746 49.3695 20.8381C49.443 21.0127 49.5097 21.1711 49.5813 21.3412C49.9004 21.2167 50.1902 21.1037 50.4841 20.989C50.4517 20.8669 50.4254 20.7676 50.3976 20.6629C51.0447 20.071 51.6831 19.487 52.3246 18.9001C52.248 18.7128 52.1781 18.542 52.1062 18.3664C51.2218 18.3664 50.3526 18.3664 49.481 18.3664C49.4283 18.2647 49.38 18.1715 49.3242 18.0638C49.1844 18.1222 49.0532 18.1771 48.8945 18.2139ZM17.0506 9.3792C17.5188 9.73478 17.9871 10.0904 18.4576 10.4477C18.6093 10.3455 18.7412 10.2568 18.8775 10.165C18.7148 9.56451 18.5568 8.98184 18.3989 8.39918C18.4162 8.3907 18.4335 8.38222 18.4507 8.37374C18.8562 8.79532 19.2617 9.2169 19.6724 9.6439C19.8392 9.53289 19.9841 9.43646 20.1413 9.33178C19.4236 8.58323 18.7337 7.86371 18.0387 7.13883C17.8768 7.24695 17.737 7.34037 17.576 7.44793C17.6681 7.78367 17.7652 8.11365 17.8482 8.44708C17.9294 8.77347 18.0538 9.09137 18.0452 9.45449C17.5017 9.03942 16.9581 8.62436 16.4131 8.20809C16.2469 8.32255 16.1025 8.42205 15.946 8.52985C16.3638 9.45369 16.7716 10.3555 17.1906 11.2818C17.3671 11.1622 17.512 11.0641 17.6578 10.9653C17.6064 10.8455 17.5653 10.7475 17.5225 10.6502C17.3403 10.2356 17.1576 9.82127 16.9957 9.38869C17.0022 9.38229 17.0087 9.37589 17.0506 9.3792ZM46.8338 12.8369C46.5627 13.2748 46.2917 13.7128 46.0103 14.1674C46.125 14.3 46.2336 14.4255 46.3424 14.5513C46.9365 14.3231 47.5098 14.1027 48.0832 13.8824C48.0919 13.8952 48.1005 13.908 48.1092 13.9208C47.725 14.3704 47.3409 14.82 46.9523 15.2748C47.0788 15.4237 47.1866 15.5503 47.3133 15.6994C47.9832 14.9224 48.6329 14.1688 49.2936 13.4024C49.1657 13.2536 49.0516 13.1209 48.9346 12.9848C48.2678 13.2172 47.6434 13.501 46.9941 13.716C46.9816 13.7007 46.9691 13.6855 46.9566 13.6702C47.3156 13.0923 47.6746 12.5145 48.0378 11.9299C47.9112 11.7803 47.7977 11.6461 47.6734 11.4992C46.7912 12.007 45.925 12.5056 45.0358 13.0174C45.1659 13.1718 45.2778 13.3045 45.398 13.447C45.9226 13.1479 46.4303 12.8585 46.9379 12.569C46.9482 12.5813 46.9585 12.5935 46.9688 12.6058C46.931 12.6722 46.8931 12.7386 46.8338 12.8369ZM46.2112 11.1429C46.2174 11.108 46.2237 11.073 46.2298 11.038C46.3996 10.0621 45.7291 9.23956 44.7342 9.20328C43.9284 9.1739 43.243 9.76181 43.12 10.5879C43.01 11.3267 43.5195 12.0719 44.2679 12.2667C45.102 12.4839 45.8908 12.0412 46.2112 11.1429ZM24.6578 7.29354C24.6795 7.34894 24.7012 7.40434 24.7317 7.48208C24.9191 7.41947 25.0916 7.36185 25.271 7.30194C24.9636 6.34284 24.6665 5.41611 24.3649 4.47497C24.2539 4.50814 24.1707 4.53917 24.0847 4.55735C23.9459 4.58668 23.8737 4.6557 23.8504 4.80388C23.8146 5.03107 23.7499 5.25384 23.6974 5.47846C23.6044 5.87615 23.5114 6.27382 23.4184 6.6715C23.4035 6.67141 23.3887 6.67132 23.3738 6.67124C23.1889 6.10196 23.0039 5.53268 22.8147 4.95019C22.617 5.01752 22.4509 5.07409 22.2661 5.13701C22.5711 6.08944 22.8679 7.01627 23.1679 7.95298C23.2548 7.93073 23.3133 7.90996 23.3735 7.90137C23.5881 7.87079 23.683 7.7559 23.726 7.53963C23.8264 7.03536 23.9597 6.53745 24.0816 6.03742C24.0984 5.96849 24.1261 5.90214 24.1679 5.7776C24.339 6.30994 24.4907 6.78211 24.6578 7.29354ZM52.1777 22.0761C51.8909 21.9803 51.6041 21.8844 51.3174 21.7886C51.9083 21.598 52.5134 21.5265 53.1066 21.3583C53.0655 21.1653 53.0309 21.0034 52.9903 20.8128C51.9972 21.0181 51.0243 21.2011 50.0507 21.4184C50.0623 21.5026 50.0731 21.5542 50.076 21.6063C50.0882 21.8272 50.2013 21.9408 50.4211 22.0072C50.902 22.1523 51.374 22.3263 51.849 22.4901C51.9289 22.5176 52.006 22.5529 52.0844 22.5846C52.0821 22.5985 52.0797 22.6125 52.0773 22.6265C51.513 22.7438 50.9488 22.8611 50.3671 22.982C50.4101 23.1802 50.447 23.3497 50.4885 23.5408C51.478 23.3397 52.4419 23.1437 53.4308 22.9426C53.3953 22.7665 53.3646 22.6137 53.3345 22.4646C52.9486 22.336 52.5829 22.2141 52.1777 22.0761ZM37.525 7.87497C37.6304 7.83073 37.7359 7.78649 37.862 7.73361C37.7734 7.55394 37.697 7.39882 37.6114 7.22516C37.2298 7.41106 36.8578 7.46919 36.4789 7.28832C36.0892 7.10231 35.8833 6.75724 35.9349 6.36486C36.2842 6.47623 36.6318 6.58701 36.9972 6.70349C37.0552 6.53153 37.1054 6.38277 37.1624 6.21383C36.7997 6.09042 36.4545 5.97293 36.1094 5.85549C36.1327 5.70091 36.2374 5.62805 36.3404 5.55816C36.7913 5.25219 37.4069 5.34913 37.7698 5.78524C37.8535 5.88575 37.9224 5.99818 38.0056 6.11581C38.1744 6.03639 38.3321 5.96222 38.4871 5.88929C38.1598 5.10406 37.3494 4.68485 36.5419 4.85708C35.9056 4.99284 35.4842 5.45002 35.3494 6.15085C35.2363 6.7395 35.4809 7.33603 35.9858 7.65566C36.4468 7.94756 36.9471 8.04016 37.525 7.87497ZM32.5146 6.11612C32.4751 6.35062 32.4355 6.58512 32.3917 6.84504C32.5909 6.87778 32.7711 6.90741 32.9663 6.93949C33.0488 6.50738 33.1262 6.10204 33.208 5.67328C33.5435 5.73122 33.8494 5.78404 34.1732 5.83995C34.0985 6.27553 34.0274 6.68977 33.9535 7.12072C34.1595 7.15364 34.3333 7.18142 34.528 7.21255C34.7066 6.22759 34.8918 5.26758 35.0517 4.28727C34.8406 4.25532 34.6675 4.2291 34.4807 4.20081C34.4094 4.57283 34.3432 4.91824 34.2722 5.28894C33.9398 5.22809 33.6278 5.17095 33.3141 5.11352C33.3449 4.72491 33.4738 4.37966 33.4763 4.01432C33.2745 3.98 33.1021 3.95069 32.9178 3.91935C32.7822 4.65985 32.653 5.36537 32.5146 6.11612ZM8.34573 18.8559C9.13389 19.1937 9.92204 19.5316 10.7276 19.8769C10.8125 19.6861 10.8936 19.5192 10.9615 19.3473C11.0427 19.1417 11.1366 18.9368 11.1817 18.7227C11.2523 18.3872 11.1153 18.1095 10.8375 17.9142C10.5613 17.7202 10.2606 17.6794 9.95035 17.8483C9.89027 17.881 9.83057 17.9144 9.78137 17.9416C9.68789 17.8153 9.62137 17.6841 9.51816 17.5937C9.19402 17.3097 8.71559 17.3828 8.43206 17.7535C8.21969 18.0312 8.1142 18.3603 7.96752 18.6876C8.09804 18.745 8.2035 18.7914 8.34573 18.8559ZM22.2689 7.51716C21.6917 6.97282 21.1145 6.42849 20.5304 5.87765C20.3465 5.96579 20.1794 6.04587 20.0016 6.13104C20.0794 7.18885 20.1559 8.22844 20.2349 9.30224C20.4445 9.20401 20.6116 9.12575 20.7815 9.04616C20.7691 8.81616 20.7578 8.60643 20.7465 8.39438C21.1189 8.22106 21.4748 8.05546 21.8355 7.88761C22.0019 8.04087 22.1583 8.1849 22.3213 8.33499C22.5004 8.24967 22.6668 8.17041 22.8314 8.09206C22.6437 7.89909 22.4704 7.72086 22.2689 7.51716ZM25.811 4.19204C25.6538 4.22166 25.4965 4.25127 25.3123 4.28597C25.494 5.26499 25.6724 6.22611 25.8551 7.21056C26.2224 7.13845 26.5612 7.09344 26.8873 7.00369C27.6949 6.78142 27.6975 5.99506 27.3535 5.54045C27.2007 5.33856 26.9914 5.22026 26.7302 5.2218C26.5251 5.22301 26.3201 5.2395 26.0866 5.25054C26.0589 5.08978 26.0298 4.92042 25.9977 4.73406C26.3327 4.66965 26.6368 4.61119 26.9635 4.54839C26.9285 4.35277 26.8983 4.18346 26.8661 4.00363C26.5084 4.06593 26.1821 4.12278 25.811 4.19204ZM8.31616 20.1301C8.37139 20.0949 8.42132 20.0611 8.37457 19.9829C8.29838 19.8553 8.22728 19.7248 8.15625 19.5995C7.30104 19.9508 6.92416 21.011 7.33831 21.8331C7.72651 22.6036 8.81188 22.9048 9.57145 22.4665C10.2786 22.0584 10.6439 20.895 10.0307 20.0946C9.87631 20.1833 9.71955 20.2733 9.57039 20.359C9.6353 20.5156 9.69645 20.6354 9.73534 20.7619C9.89304 21.2746 9.61218 21.855 9.12602 22.0339C8.61957 22.2202 8.03636 21.9791 7.81826 21.489C7.74133 21.3161 7.71383 21.1382 7.74746 20.9451C7.80794 20.5978 7.9998 20.3456 8.31616 20.1301ZM13.8029 11.1007C14.0286 10.8752 14.2542 10.6496 14.5001 10.4038C14.3626 10.2809 14.2324 10.1645 14.0899 10.0371C13.7062 10.4033 13.3207 10.7713 12.919 11.1547C13.6281 11.8752 14.3201 12.5783 15.0233 13.2928C15.4249 12.9085 15.8097 12.5402 16.1965 12.1701C16.0557 12.0338 15.9306 11.9126 15.7917 11.7781C15.5466 12.0037 15.2945 12.2358 15.0743 12.4386C14.8776 12.2588 14.7016 12.0979 14.5119 11.9245C14.7627 11.6822 15.0088 11.4444 15.2713 11.1908C15.1239 11.0473 15.0041 10.9307 14.8754 10.8054C14.6114 11.0529 14.361 11.2875 14.0997 11.5323C13.9773 11.4006 13.8743 11.2909 13.7738 11.1791C13.7664 11.1709 13.7769 11.147 13.8029 11.1007ZM29.5733 4.01017C29.4264 4.44997 29.3348 4.90754 29.1449 5.39021C28.8707 4.84075 28.6216 4.34153 28.3667 3.83091C28.1548 3.84106 27.9552 3.85062 27.711 3.86231C28.1218 4.6341 28.509 5.36167 28.9116 6.11813C28.8138 6.18214 28.7349 6.26486 28.6405 6.2892C28.4386 6.34126 28.2974 6.18372 28.1433 6.0853C28.0733 6.15794 28.0159 6.21384 27.9629 6.27354C27.9064 6.33726 27.8539 6.40456 27.7918 6.47994C27.8874 6.55865 27.9582 6.62731 28.0389 6.6817C28.5347 7.01583 29.0801 6.88718 29.3631 6.36454C29.4389 6.22462 29.4979 6.07369 29.5469 5.92226C29.7605 5.26335 29.9681 4.60256 30.1762 3.94192C30.1957 3.87982 30.2028 3.8139 30.22 3.72858C30.0165 3.73802 29.8391 3.74625 29.656 3.75474C29.6288 3.83529 29.6063 3.90179 29.5733 4.01017ZM13.3253 15.248C13.2969 15.1677 13.2798 15.081 13.2381 15.008C12.9516 14.5055 12.6596 14.006 12.3701 13.5052C12.3242 13.4257 12.2818 13.3441 12.208 13.2089C12.9874 13.4664 13.6986 13.7015 14.4198 13.9398C14.5518 13.7748 14.6701 13.627 14.802 13.4621C13.7591 13.1229 12.7545 12.7962 11.7433 12.4673C11.614 12.6243 11.4963 12.7673 11.3711 12.9193C11.9026 13.84 12.4284 14.751 12.9675 15.6851C13.0992 15.5274 13.2017 15.4047 13.3253 15.248ZM40.8883 9.53001C40.8433 9.60394 40.7983 9.67786 40.7425 9.7696C40.9103 9.87814 41.0623 9.97651 41.221 10.0792C41.463 9.71877 41.6854 9.38764 41.9124 9.04946C42.08 9.13697 42.2244 9.22589 42.3793 9.29068C42.7925 9.4636 43.1854 9.33201 43.4278 8.95078C43.6659 8.57637 43.6254 8.18487 43.2808 7.89997C43.0089 7.67518 42.7056 7.48739 42.3986 7.27073C41.8882 8.03492 41.3995 8.76655 40.8883 9.53001ZM10.8634 14.4917C10.8908 14.4396 10.9183 14.3874 10.9505 14.3261C10.7884 14.2235 10.6408 14.1299 10.4797 14.0279C10.1692 14.5003 9.87387 14.9496 9.57001 15.4119C9.74693 15.5252 9.89422 15.6195 10.0488 15.7184C10.1555 15.5654 10.246 15.4356 10.3496 15.2871C11.0324 15.723 11.7059 16.153 12.3952 16.5932C12.5081 16.4145 12.6047 16.2617 12.7081 16.0979C12.0149 15.6527 11.3485 15.2247 10.673 14.791C10.7392 14.6871 10.7913 14.6054 10.8634 14.4917ZM31.0848 4.75327C31.0421 5.40611 30.9995 6.05896 30.9548 6.74424C31.1618 6.75419 31.3438 6.76294 31.5448 6.7726C31.5983 5.95646 31.6496 5.17228 31.7017 4.37654C31.8925 4.38526 32.0516 4.39252 32.2316 4.40074C32.2493 4.21394 32.2656 4.04255 32.2843 3.84522C31.712 3.80938 31.1706 3.77548 30.6156 3.74072C30.6021 3.94502 30.5906 4.11727 30.5784 4.30101C30.7649 4.31633 30.9224 4.32926 31.0894 4.34297C31.0894 4.47728 31.0894 4.59106 31.0848 4.75327ZM40.3664 7.7361C40.4975 7.49715 40.6286 7.25819 40.7668 7.00616C41.0513 7.152 41.3103 7.2848 41.5827 7.42444C41.677 7.24851 41.7586 7.09623 41.848 6.92944C41.3947 6.69083 40.9684 6.46644 40.522 6.23148C40.0474 7.11088 39.5807 7.97563 39.1045 8.85792C39.2876 8.95527 39.4417 9.03721 39.6129 9.12823C39.8658 8.6601 40.1061 8.21516 40.3664 7.7361ZM11.4622 17.0075C10.7646 16.6288 10.0669 16.2501 9.34528 15.8584C9.24847 16.036 9.16261 16.1935 9.07021 16.363C9.95938 16.8463 10.8216 17.3149 11.706 17.7955C11.803 17.6233 11.8917 17.4657 11.9873 17.296C11.8088 17.1982 11.6527 17.1127 11.4622 17.0075ZM22.5024 4.5315C22.9111 4.75559 23.2856 4.63492 23.6354 4.40227C23.84 4.26617 23.9284 4.06136 23.8864 3.78928C23.6819 3.85731 23.4925 3.87114 23.3609 4.05423C23.2584 4.19669 23.068 4.26152 22.9007 4.20585C22.678 4.13175 22.5037 4.21068 22.2869 4.29814C22.3566 4.37793 22.4133 4.4429 22.5024 4.5315Z" fill="#2671B7"/>
<path d="M20.9057 44.0568C20.6734 43.8353 20.4416 43.6132 20.2086 43.3923C19.0541 42.2975 17.8963 41.2062 16.7474 40.1058C16.5354 39.9028 16.3447 39.674 16.1705 39.4382C16.0506 39.2758 15.944 39.0899 15.8878 38.8985C15.7583 38.4571 15.9339 38.099 16.2725 37.8095C16.5942 37.5344 16.958 37.5359 17.3014 37.7311C17.6262 37.9157 17.9321 38.1395 18.2226 38.3746C18.744 38.7965 19.2272 39.2661 19.763 39.6682C20.6614 40.3424 21.6545 40.8608 22.7006 41.2809C23.1725 41.4704 23.6734 41.5249 24.1661 41.6212C25.0469 41.7935 25.933 41.9457 26.8049 42.1548C27.9164 42.4213 28.7242 43.0863 29.234 44.1021C29.4194 44.4717 29.439 44.8732 29.4736 45.2677C29.5969 46.6726 29.6989 48.0793 29.8164 49.4847C29.8756 50.1916 29.9494 50.8973 30.0202 51.6032C30.0338 51.7392 30.0644 51.8735 30.1355 52.0112C30.1652 51.849 30.2068 51.6878 30.2226 51.5243C30.2867 50.8622 30.3467 50.1996 30.4012 49.5367C30.4877 48.4848 30.5652 47.4321 30.6536 46.3804C30.6981 45.8503 30.7652 45.322 30.8095 44.7919C30.8576 44.2144 31.1474 43.7505 31.5072 43.3227C32.0564 42.6697 32.7705 42.2738 33.6054 42.1041C34.652 41.8912 35.7036 41.7024 36.7533 41.5046C37.2523 41.4105 37.7141 41.2141 38.1711 41.0053C39.4966 40.3998 40.6902 39.6052 41.744 38.6034C42.0149 38.3459 42.3174 38.1177 42.6232 37.9003C42.7877 37.7832 42.9816 37.6891 43.1766 37.6339C43.9263 37.4217 44.5303 38.311 44.3609 38.8478C44.2647 39.1524 44.0995 39.4107 43.8981 39.6514C43.5089 40.1167 43.0872 40.5587 42.7312 41.0473C41.7864 42.344 40.8693 43.6605 39.9244 44.9979C39.9071 45.0467 39.9066 45.0666 39.8937 45.0826C39.8793 45.0924 39.8773 45.1061 39.8753 45.1199C39.8842 45.1071 39.893 45.0942 39.9162 45.0809C39.9414 45.0656 39.9522 45.0508 39.963 45.036C40.3541 44.6833 40.7526 44.3381 41.135 43.9763C42.2719 42.9007 43.3821 41.7996 44.4328 40.6403C44.8851 40.1413 45.231 39.5961 45.4023 38.9432C45.596 38.205 45.3923 37.5962 44.8238 37.0954C44.7237 37.0073 44.6161 36.9274 44.5012 36.8351C44.6414 36.3678 44.7812 35.9014 44.9213 35.4351C45.3529 33.9982 45.7842 32.5612 46.2164 31.1245C46.345 30.697 46.9107 30.2442 47.3483 30.2158C47.962 30.1761 48.4014 30.4387 48.6391 30.978C48.7811 31.3004 48.791 31.6353 48.7315 31.9707C48.6138 32.6341 48.4881 33.2964 48.3526 33.9566C47.7571 36.8586 47.1564 39.7597 46.5588 42.6614C46.4712 43.0871 46.4039 43.5173 46.3036 43.94C45.9393 45.4746 44.9604 46.4556 43.4622 46.9433C42.2253 47.346 40.9821 47.73 39.74 48.1168C39.1919 48.2876 38.6359 48.4345 38.0903 48.6125C37.7934 48.7094 37.4955 48.8225 37.2247 48.9745C36.5822 49.3353 36.2524 49.9031 36.1073 50.6169C35.9671 51.3069 36.1082 51.9768 36.1539 52.6545C36.1816 53.0647 36.1827 53.4708 36.0708 53.8695C35.9241 54.3923 35.5502 54.6918 35.0013 54.7314C34.8938 54.7392 34.7855 54.7398 34.6776 54.7398C31.6176 54.7402 28.5575 54.7411 25.4975 54.7377C25.3195 54.7375 25.1377 54.7194 24.9644 54.6805C24.5837 54.5949 24.3281 54.3516 24.2024 53.9937C24.1356 53.8034 24.0803 53.5964 24.0828 53.3978C24.0897 52.8665 24.1103 52.3336 24.1636 51.8051C24.2153 51.2934 24.1807 50.7943 24.045 50.3026C23.8471 49.5852 23.3779 49.0879 22.6888 48.8148C22.2235 48.6304 21.7352 48.5021 21.2561 48.3522C19.8005 47.8968 18.3437 47.4449 16.8886 46.9877C16.3806 46.828 15.8996 46.6092 15.4651 46.3003C14.5696 45.6636 14.0886 44.7749 13.8738 43.7287C13.2637 40.7569 12.6552 37.7848 12.048 34.8124C11.8687 33.9347 11.6854 33.0575 11.5246 32.1764C11.4596 31.8204 11.4232 31.454 11.5465 31.0964C11.7551 30.4912 12.1869 30.1967 12.8338 30.2143C13.1302 30.2224 13.3661 30.3651 13.5823 30.5429C13.8758 30.7843 14.1015 31.0809 14.2856 31.4115C14.5816 31.9429 14.7954 32.5029 14.9624 33.0868C15.2894 34.2303 15.6418 35.3666 15.9836 36.5059C15.9987 36.556 16.0133 36.6063 16.0316 36.6685C15.9655 36.708 15.9009 36.7374 15.8473 36.7802C15.6179 36.9639 15.3656 37.1284 15.1697 37.3426C14.7755 37.7738 14.6643 38.2917 14.8067 38.8569C14.8522 39.0374 14.9057 39.2165 14.9659 39.3929C15.0943 39.7687 15.3053 40.0899 15.5909 40.3747C16.8338 41.6141 18.2444 42.6349 19.7634 43.5153C20.1119 43.7173 20.4733 43.8976 20.8588 44.1026C20.9081 44.1191 20.9275 44.1209 20.9504 44.1357C20.9739 44.1458 20.9939 44.143 21.0138 44.1402C20.9902 44.1356 20.9665 44.1309 20.9489 44.1113C20.9385 44.0831 20.9221 44.07 20.9057 44.0568Z" fill="#FCC01B"/>
<path d="M30.1738 43.696C30.1405 43.7074 30.0929 43.7379 30.0768 43.7262C30.0436 43.7021 30.0248 43.6566 30.0043 43.6179C29.2923 42.2761 28.1589 41.4965 26.6709 41.2001C25.6671 41.0002 24.6603 40.8149 23.6546 40.6244C23.2166 40.5414 22.5977 40.3067 22.1501 40.0432C22.1501 39.966 22.1501 39.8708 22.1501 39.7756C22.1501 38.7106 22.1495 37.6456 22.1503 36.5806C22.1528 32.8634 24.7683 29.6691 28.4489 28.887C28.4985 28.8764 28.5475 28.863 28.6586 28.8357C28.5361 28.7844 28.4688 28.7542 28.4001 28.7276C26.6481 28.0498 25.5319 26.8082 25.1833 24.9876C24.6179 22.0345 26.7165 19.5619 29.3224 19.1781C29.5704 19.1416 29.8231 19.1366 30.0997 19.148C30.1263 19.2945 30.1271 19.4099 30.1271 19.5253C30.1272 27.4711 30.127 35.417 30.1291 43.3628C30.1291 43.4739 30.1583 43.585 30.1738 43.696Z" fill="#2570B7"/>
<path d="M30.1854 43.6815C30.1584 43.5852 30.1292 43.4742 30.1292 43.3631C30.1271 35.4173 30.1273 27.4714 30.1272 19.5255C30.1272 19.4101 30.1263 19.2947 30.124 19.1541C30.9624 19.0902 31.7493 19.2955 32.4752 19.6933C34.0199 20.5401 34.912 21.8342 35.1089 23.575C35.3552 25.7539 34.0542 27.9064 31.8647 28.716C31.7825 28.7464 31.6993 28.7745 31.5749 28.8183C31.6615 28.8491 31.7074 28.8714 31.7559 28.8818C34.8215 29.5384 37.1619 31.8048 37.8762 34.8138C37.9953 35.3158 38.0687 35.8253 38.07 36.3418C38.0729 37.54 38.071 38.7382 38.0707 39.9363C38.0707 39.9716 38.0666 40.0068 38.0632 40.0629C37.5412 40.3257 37.0049 40.5551 36.4132 40.6603C35.4144 40.8378 34.4171 41.0262 33.4245 41.2348C31.9644 41.5416 30.8834 42.3531 30.1854 43.6815Z" fill="#225C9E"/>
<path d="M38.0834 33.0792C37.6609 32.1354 37.0865 31.315 36.3738 30.5744C36.444 30.5386 36.4941 30.513 36.5473 30.4859C36.5269 30.462 36.519 30.4432 36.5064 30.4393C36.2186 30.3517 35.9692 30.2068 35.7428 30.0062C35.5228 29.8112 35.277 29.6438 35.0377 29.4709C34.6041 29.1574 34.3899 28.6994 34.1875 28.2327C34.1462 28.1377 34.2188 28.0883 34.2715 28.0281C34.442 27.8336 34.6216 27.6454 34.7758 27.4388C35.5254 26.4348 35.8911 25.3042 35.8977 24.059C35.8984 23.9352 35.8978 23.8114 35.8978 23.6592C37.0602 23.0735 38.2451 23.015 39.4079 23.6134C40.7798 24.3193 41.5027 25.4728 41.4596 27.0048C41.4115 28.7176 40.4671 29.8355 38.855 30.4798C38.9309 30.5057 38.9831 30.5287 39.0378 30.5416C40.3883 30.8601 41.5006 31.5504 42.377 32.6137C42.4707 32.7274 42.5149 32.8297 42.4541 32.9744C42.4063 33.0879 42.3858 33.2126 42.3515 33.3318C42.3469 33.3479 42.3322 33.3613 42.3188 33.381C42.1554 33.4058 41.9862 33.4231 41.8209 33.4581C41.019 33.6278 40.4576 34.0903 40.1833 34.8507C39.9093 35.6103 39.6725 36.3829 39.4214 37.1504C39.3635 37.3275 39.3206 37.5096 39.2584 37.6851C39.0618 38.2402 39.1262 38.7488 39.5492 39.226C39.3151 39.369 39.0923 39.5051 38.8276 39.6668C38.8276 39.5277 38.8276 39.4421 38.8276 39.3566C38.8276 38.4511 38.8203 37.5456 38.8294 36.6403C38.842 35.4057 38.5905 34.2272 38.0834 33.0792Z" fill="#225D9F"/>
<path d="M18.8249 33.5807C18.624 33.5235 18.4447 33.4629 18.2604 33.4272C18.1603 33.4077 18.0982 33.3716 18.0592 33.2801C18.0175 33.1821 17.9779 33.08 17.9164 32.9942C17.7731 32.7942 17.8108 32.6468 17.9755 32.4624C18.8608 31.471 19.9451 30.8197 21.2533 30.533C21.2861 30.5259 21.3178 30.5141 21.41 30.4867C19.9634 29.9475 19.0653 28.9837 18.8089 27.5178C18.6406 26.5552 18.843 25.6456 19.4084 24.8298C20.6328 23.0629 22.9161 22.8368 24.3446 23.6917C24.2471 25.4126 24.8265 26.8999 26.0683 28.1543C25.8527 28.6775 25.6251 29.1811 25.1298 29.514C24.9368 29.6437 24.7543 29.7889 24.5697 29.9304C24.4279 30.0391 24.2999 30.1686 24.148 30.2602C24.0047 30.3467 23.8382 30.3957 23.654 30.4729C23.7257 30.5095 23.7806 30.5375 23.8478 30.5719C23.7322 30.7022 23.6189 30.827 23.5087 30.9544C22.3876 32.2502 21.6999 33.7394 21.4793 35.4307C21.4266 35.8343 21.401 36.2435 21.3955 36.6505C21.3832 37.5468 21.3917 38.4434 21.3917 39.3399C21.3917 39.428 21.3917 39.5161 21.3917 39.6586C21.2455 39.5722 21.1338 39.5076 21.0236 39.4405C20.9172 39.3758 20.8125 39.3084 20.6868 39.2295C20.7256 39.1773 20.7534 39.1372 20.7838 39.0992C21.0736 38.7372 21.1509 38.3183 21.0232 37.8919C20.7254 36.8976 20.401 35.9108 20.0758 34.9246C19.8703 34.3012 19.4548 33.8542 18.8249 33.5807Z" fill="#2571B7"/>
<path d="M51.7021 27.1058C52.1089 27.079 52.5216 27.0736 52.9343 27.0731C54.0292 27.0718 55.124 27.0733 56.2189 27.0716C56.3162 27.0714 56.4134 27.056 56.5407 27.0208C56.6823 26.7626 56.7949 26.5316 56.9049 26.2994C57.2961 25.4739 57.6878 24.6487 58.0763 23.822C58.2233 23.5093 58.3597 23.1917 58.5054 22.8784C58.6587 22.5487 58.817 22.2211 58.974 21.893C59.0124 21.8127 59.0474 21.7257 59.165 21.741C59.1715 21.9001 59.1835 22.0591 59.1836 22.2181C59.1841 25.6848 59.1833 29.1515 59.1614 32.6426C59.1172 32.6679 59.0944 32.6687 59.0715 32.6696C58.4686 32.2225 57.8647 31.7767 57.2631 31.328C56.7254 30.927 56.1904 30.5225 55.6536 30.1203C55.5901 30.0727 55.5227 30.03 55.44 29.9733C54.2168 30.8933 52.9974 31.8104 51.731 32.7628C51.7248 32.6296 51.717 32.5398 51.717 32.45C51.7163 30.7739 51.7166 29.0977 51.7161 27.4216C51.7161 27.3242 51.7109 27.2268 51.7021 27.1058Z" fill="#215C9E"/>
<path d="M3.65842 26.9631C3.69168 26.9985 3.71939 27.0541 3.75943 27.0648C3.82657 27.0827 3.90156 27.0732 3.97325 27.0732C5.36353 27.0734 6.75381 27.0729 8.14409 27.0743C8.24157 27.0744 8.33905 27.0877 8.45265 27.1104C8.4702 28.9451 8.4717 30.7642 8.47265 32.5833C8.47267 32.6243 8.46654 32.6653 8.45912 32.7585C7.20539 31.8182 5.98563 30.9034 4.73861 29.9681C3.51282 30.8895 2.28734 31.8107 1.02134 32.7623C1.01531 32.6257 1.00776 32.5338 1.00771 32.4418C1.00697 30.9865 1.0078 29.5312 1.00704 28.0758C1.00591 25.9106 1.00382 23.7454 1.02268 21.5674C1.15069 21.7783 1.26036 22.001 1.36521 22.226C1.75087 23.0533 2.13433 23.8817 2.51977 24.7091C2.8379 25.3921 3.15621 26.075 3.47856 26.756C3.51735 26.838 3.52816 26.9541 3.65842 26.9631Z" fill="#215C9E"/>
<path d="M20.3669 19.5992C19.7185 18.9972 19.0851 18.407 18.4484 17.8202C17.9892 17.3971 17.5259 16.9782 17.0636 16.5584C16.8787 16.3905 16.6905 16.2263 16.5059 16.0581C16.4541 16.0108 16.41 15.9552 16.3525 15.8927C16.4679 15.7502 16.5674 15.6028 16.691 15.4789C17.245 14.9235 17.8027 14.3715 18.3663 13.8257C18.5501 13.6477 18.6129 13.6616 18.7667 13.8602C19.3382 14.5981 19.9072 15.3379 20.4801 16.0747C21.2168 17.022 21.9575 17.9663 22.6941 18.9136C23.2015 19.5662 23.7041 20.2224 24.2103 20.8759C24.3791 21.0938 24.5502 21.3099 24.724 21.524C24.8156 21.6368 24.8395 21.7353 24.7731 21.8844C24.6622 22.1338 24.5958 22.4024 24.5084 22.6621C24.4868 22.7264 24.4564 22.7878 24.4302 22.8502C24.1913 22.7693 23.9628 22.7138 23.7557 22.6149C23.5979 22.5396 23.4568 22.4202 23.3261 22.3013C22.9298 21.9408 22.5443 21.5687 22.1507 21.2054C21.6655 20.7576 21.177 20.3133 20.6883 19.8694C20.5895 19.7796 20.4832 19.6979 20.3669 19.5992Z" fill="#FFEBC1"/>
<path d="M38.8557 20.7655C38.6104 20.9738 38.3789 21.1691 38.1522 21.3698C37.7518 21.7244 37.3546 22.0827 36.9552 22.4384C36.9157 22.4736 36.8746 22.5166 36.8265 22.5313C36.4853 22.6353 36.1421 22.7329 35.7831 22.8373C35.684 22.5295 35.5755 22.2153 35.4866 21.8957C35.4697 21.8348 35.5141 21.7413 35.5578 21.6829C35.7331 21.4483 35.9177 21.2204 36.1018 20.9923C36.5538 20.4323 37.0082 19.8742 37.4601 19.3141C37.923 18.7403 38.3845 18.1653 38.846 17.5904C39.3631 16.9461 39.8788 16.3008 40.3966 15.6571C40.8421 15.1033 41.2883 14.5501 41.7374 13.9991C41.8314 13.8837 41.8874 13.8834 42.006 13.989C42.5794 14.499 43.1228 15.0378 43.6174 15.6236C43.7605 15.7931 43.9081 15.9588 44.0632 16.1373C44.0215 16.1908 43.9912 16.2448 43.9472 16.2838C43.4472 16.7272 42.9449 17.1682 42.4434 17.61C41.9352 18.0577 41.4273 18.5059 40.919 18.9535C40.424 19.3892 39.9287 19.8246 39.4336 20.2601C39.2462 20.425 39.0589 20.5901 38.8557 20.7655Z" fill="#FFEBC1"/>
<path d="M35.9061 18.9714C35.551 19.547 35.2045 20.1052 34.8398 20.6926C34.7681 20.6298 34.7087 20.5833 34.6557 20.5304C34.3469 20.2226 34.0436 19.9094 33.7291 19.6074C33.6503 19.5317 33.6373 19.4748 33.6762 19.3777C34.0719 18.3903 34.4638 17.4014 34.856 16.4126C35.2612 15.3908 35.6659 14.3689 36.0698 13.3466C36.363 12.6047 36.6539 11.8619 36.9481 11.1204C36.9801 11.0397 37.0272 10.9649 37.0721 10.8779C38.0778 11.2847 38.9991 11.8083 39.9228 12.388C39.8103 12.5852 39.7149 12.763 39.6097 12.935C38.6269 14.5416 37.6427 16.1473 36.658 17.7527C36.4119 18.1541 36.1626 18.5536 35.9061 18.9714Z" fill="#FFEBC1"/>
<path d="M24.8832 14.5555C25.1844 15.3635 25.4795 16.1518 25.7764 16.9394C26.0452 17.6524 26.3162 18.3646 26.5859 19.0772C26.6079 19.1353 26.6269 19.1944 26.6484 19.2526C26.6934 19.3742 26.6719 19.4619 26.5586 19.5506C26.3484 19.7153 26.151 19.8972 25.9584 20.0821C25.8369 20.1988 25.735 20.3353 25.6216 20.4604C25.5868 20.4988 25.5427 20.5289 25.4728 20.5883C23.8361 17.8061 22.2085 15.0395 20.5715 12.257C20.6089 12.2144 20.6395 12.1565 20.6879 12.1278C21.5502 11.6165 22.4306 11.1395 23.371 10.7792C23.3864 10.7733 23.4061 10.7785 23.4641 10.7785C23.941 12.0195 24.4002 13.281 24.8832 14.5555Z" fill="#FFEBC1"/>
<path d="M34.6914 10.1042C34.5519 10.7383 34.4017 11.3562 34.2472 11.973C33.7034 14.144 33.1581 16.3146 32.6132 18.4853C32.5875 18.5874 32.56 18.6891 32.5288 18.8082C32.2183 18.8011 31.9686 18.617 31.6815 18.5648C31.4022 18.514 31.1279 18.4367 30.856 18.3721C30.8848 17.8582 30.9089 17.3657 30.941 16.8738C30.9721 16.3979 31.0122 15.9226 31.0471 15.4469C31.0841 14.9447 31.1196 14.4425 31.156 13.9402C31.1917 13.4469 31.2276 12.9535 31.2635 12.4601C31.2995 11.9667 31.332 11.4731 31.3726 10.9801C31.4109 10.5146 31.4577 10.0498 31.5035 9.55494C31.6147 9.55147 31.7296 9.53365 31.8408 9.54671C32.5957 9.63539 33.3481 9.74227 34.0881 9.91819C34.2873 9.96552 34.482 10.0306 34.6914 10.1042Z" fill="#FFEBC1"/>
<path d="M26.7442 14.105C26.5656 13.3436 26.3957 12.603 26.2236 11.8629C26.0897 11.2865 25.9526 10.7109 25.819 10.1345C25.8096 10.094 25.8177 10.0495 25.8177 9.99339C26.8673 9.72385 27.925 9.57491 29.0026 9.50977C29.0141 9.52885 29.0372 9.54988 29.0385 9.57211C29.0613 9.97817 29.0779 10.3846 29.1032 10.7905C29.1333 11.2751 29.1703 11.7592 29.2043 12.2436C29.2056 12.2613 29.2066 12.279 29.2073 12.2967C29.2264 12.8096 29.2388 13.3228 29.2667 13.8352C29.2912 14.2846 29.3331 14.733 29.3671 15.1818C29.3685 15.1995 29.3687 15.2173 29.3693 15.235C29.3885 15.7567 29.401 16.2788 29.429 16.8001C29.4522 17.2317 29.4947 17.6623 29.5261 18.0936C29.5323 18.1794 29.527 18.2661 29.527 18.3314C28.9467 18.4808 28.3956 18.6226 27.8252 18.7695C27.4706 17.2354 27.1113 15.6807 26.7442 14.105Z" fill="#FFEBC1"/>
<path d="M23.5928 56.7813C23.3253 56.6821 23.0548 56.5667 22.7904 56.4392C21.5431 55.8375 20.3179 55.1954 19.1157 54.476C19.8319 52.7468 20.5588 51.0327 21.2938 49.2998C21.7613 49.4585 22.2436 49.5271 22.6517 49.8107C22.883 49.9715 23.0555 50.1784 23.1331 50.4341C23.2701 50.8857 23.2947 51.3483 23.2394 51.824C23.1517 52.5788 23.0623 53.3406 23.2707 54.0923C23.3638 54.4281 23.5034 54.7476 23.7744 54.9865C23.914 55.1095 23.9381 55.2435 23.8944 55.4155C23.7902 55.8267 23.6973 56.2406 23.6012 56.6538C23.5933 56.6879 23.5952 56.7243 23.5928 56.7813Z" fill="#FFEBC1"/>
<path d="M10.0405 46.8814C10.0178 46.8873 9.99951 46.8801 9.98949 46.8668C9.06463 45.6393 8.28854 44.3306 7.76025 42.8661C9.21421 41.9063 10.6686 40.967 12.1554 40.0068C12.1916 40.0933 12.2318 40.1584 12.2463 40.2288C12.4439 41.187 12.6386 42.1457 12.8322 43.1047C12.8897 43.3898 12.9397 43.6763 12.9969 43.9613C13.0224 44.0881 12.9878 44.1827 12.8821 44.2629C12.7689 44.3489 12.663 44.4448 12.5587 44.5415C11.9114 45.141 11.2657 45.7421 10.6189 46.3421C10.4298 46.5176 10.2388 46.691 10.0405 46.8814Z" fill="#FFEBC1"/>
<path d="M52.2298 43.322C51.9721 43.8911 51.7174 44.4675 51.4174 45.0201C50.9844 45.8176 50.4617 46.56 49.8692 47.2738C49.7794 47.2354 49.6959 47.1978 49.6338 47.1385C48.8921 46.4302 48.1535 45.7188 47.4142 45.008C47.382 44.9771 47.3543 44.9403 47.3181 44.9151C47.0967 44.7613 47.0749 44.5744 47.1358 44.3155C47.3192 43.535 47.4667 42.7462 47.6277 41.9606C47.7249 41.4862 47.8212 41.0116 47.9236 40.5088C47.994 40.5377 48.0613 40.5531 48.1146 40.589C49.158 41.2916 50.1985 41.9986 51.2428 42.6999C51.5609 42.9135 51.889 43.1127 52.2298 43.322Z" fill="#FFEBC1"/>
<path d="M10.6218 31.0166C10.5946 31.1406 10.573 31.2435 10.5449 31.3778C10.2169 31.4307 9.87735 31.4854 9.51465 31.5438C9.51465 30.3922 9.51465 29.2614 9.51465 28.0993C9.60951 28.0939 9.70427 28.0837 9.79903 28.0837C10.5994 28.0837 11.402 28.0486 12.1995 28.0965C13.1248 28.1522 14.0511 28.0859 14.9724 28.1495C15.871 28.2115 16.768 28.1666 17.6651 28.1935C17.728 28.1954 17.7913 28.1938 17.8536 28.2003C18.0883 28.2249 18.2342 28.3088 18.3219 28.5688C18.4659 28.9959 18.7123 29.3833 19.0162 29.7282C19.1036 29.8275 19.1798 29.9366 19.2829 30.0692C19.135 30.1012 19.0114 30.1356 18.8854 30.1539C18.3553 30.2313 17.8239 30.3002 17.294 30.3791C16.7732 30.4567 16.254 30.5452 15.7333 30.6236C15.5215 30.6555 15.3075 30.6736 15.0944 30.6975C14.9771 30.7106 14.898 30.6707 14.8256 30.5678C14.5891 30.2312 14.3048 29.9361 13.9645 29.6985C13.26 29.2068 12.4297 29.1761 11.6559 29.5961C11.0894 29.9035 10.7942 30.4031 10.6218 31.0166Z" fill="#FFEBC2"/>
<path d="M43.7463 30.8004C43.2302 30.7115 42.738 30.6215 42.2449 30.5373C41.787 30.4591 41.3279 30.388 40.8698 30.3109C40.8279 30.3038 40.7896 30.2761 40.7271 30.2477C40.7966 30.173 40.852 30.1059 40.9151 30.047C41.3401 29.6507 41.6523 29.1765 41.8759 28.6486C41.9404 28.4963 42.0199 28.4526 42.1746 28.4536C43.0025 28.4586 43.8319 28.4872 44.6579 28.4489C46.5909 28.3595 48.524 28.4345 50.4567 28.4054C50.5444 28.4041 50.6322 28.4126 50.7381 28.4174C50.7381 29.6019 50.7381 30.7685 50.7381 31.9692C50.3877 31.9112 50.0498 31.8553 49.699 31.7972C49.6912 31.7174 49.6776 31.6488 49.679 31.5805C49.6924 30.9334 49.4289 30.3908 49.0125 29.9157C48.8101 29.6848 48.5345 29.5335 48.2439 29.4389C47.7201 29.2684 47.1889 29.2299 46.671 29.4737C46.2867 29.6546 45.9489 29.8938 45.6745 30.2224C45.5169 30.4111 45.3914 30.603 45.3463 30.8492C45.3163 31.0123 45.2465 31.0423 45.0387 31.012C44.7824 30.9747 44.5282 30.9241 44.2727 30.8811C44.1053 30.853 43.9374 30.8282 43.7463 30.8004Z" fill="#FFEBC2"/>
<path d="M18.9374 20.6366C19.6183 21.1132 20.2842 21.5775 20.95 22.0422C21.1182 22.1596 21.2865 22.2769 21.4531 22.3964C21.4946 22.4262 21.5299 22.4644 21.6041 22.5312C20.849 22.7186 20.1867 23.0142 19.6112 23.4987C19.5283 23.4622 19.4466 23.4287 19.3672 23.3908C18.219 22.8431 17.0721 22.293 15.923 21.7473C15.2273 21.417 14.5284 21.0932 13.8311 20.7661C13.7743 20.7395 13.7196 20.7085 13.6625 20.6825C13.5488 20.6308 13.5319 20.5556 13.5825 20.4447C13.6819 20.227 13.7578 19.998 13.8683 19.7863C14.1932 19.1644 14.5301 18.5487 14.8632 17.931C14.8754 17.9083 14.8968 17.8903 14.9378 17.8418C15.1105 17.9512 15.2848 18.0521 15.4489 18.1672C16.15 18.6589 16.8483 19.1544 17.5473 19.6491C18.006 19.9738 18.464 20.2993 18.9374 20.6366Z" fill="#FFEBC1"/>
<path d="M47.4471 49.8284C47.1417 50.1251 46.8252 50.4271 46.4925 50.7107C45.5929 51.4777 44.6476 52.1868 43.649 52.8533C43.6014 52.7659 43.5848 52.6673 43.5388 52.5845C43.2026 51.9784 42.8597 51.3759 42.5205 50.7714C42.2987 50.376 42.0788 49.9796 41.8594 49.5829C41.6795 49.2573 41.5016 48.9307 41.3125 48.5855C41.3854 48.5554 41.4468 48.5244 41.5117 48.5041C42.1788 48.2959 42.8485 48.0958 43.5132 47.8804C43.9993 47.7229 44.4824 47.5542 44.9158 47.2752C44.9608 47.2463 45.0138 47.2298 45.0592 47.2013C45.166 47.1343 45.2454 47.1718 45.3151 47.259C45.6703 47.7034 46.025 48.1481 46.3808 48.592C46.692 48.9803 47.0036 49.3683 47.3178 49.7543C47.3439 49.7864 47.3911 49.8019 47.4471 49.8284Z" fill="#FFEBC1"/>
<path d="M40.5947 54.722C40.2465 54.9414 39.8913 55.1667 39.517 55.3552C38.3819 55.9269 37.2394 56.4844 36.0811 57.0502C35.9616 56.5878 35.8645 56.1218 35.758 55.6579C35.7246 55.5121 35.7927 55.4467 35.9115 55.3919C36.1927 55.2622 36.4175 55.072 36.6063 54.8227C36.8458 54.5066 36.9611 54.1477 37.0322 53.7741C37.0797 53.5244 37.0956 53.2642 37.0876 53.0099C37.0771 52.6761 37.0339 52.3429 36.9962 52.0104C36.9403 51.5173 36.9273 51.0271 37.0585 50.5423C37.1567 50.1791 37.3842 49.9116 37.7126 49.737C37.9313 49.6208 38.1688 49.5389 38.4261 49.4297C38.5038 49.5986 38.5751 49.7378 38.6331 49.8822C39.1775 51.2383 39.7191 52.5956 40.263 53.952C40.365 54.2063 40.4735 54.4581 40.5947 54.722Z" fill="#FFEBC1"/>
<path d="M41.2735 23.4133C40.9779 23.6054 40.7361 23.6444 40.4534 23.3815C40.057 23.013 39.5524 22.8094 39.037 22.6434C38.9777 22.6243 38.9202 22.5999 38.8389 22.5693C38.9057 22.5183 38.9577 22.4743 39.0139 22.4364C39.8283 21.887 40.6437 21.339 41.4581 20.7895C42.3833 20.1652 43.3085 19.5409 44.2321 18.9142C44.5793 18.6786 44.9214 18.4357 45.2671 18.1981C45.3101 18.1685 45.3614 18.1508 45.4321 18.1162C45.9772 19.0022 46.4305 19.9168 46.7964 20.9115C44.9458 21.7589 43.1211 22.5863 41.2735 23.4133Z" fill="#FFEBC1"/>
<path d="M53.2141 35.4877C53.2381 35.6497 53.2458 35.809 53.246 35.9682C53.2472 36.8639 53.2569 37.7597 53.2421 38.6552C53.2348 39.0971 53.181 39.5382 53.1403 40.0004C52.6264 39.7706 52.1195 39.5218 51.6147 39.269C50.6615 38.7916 49.7094 38.3122 48.7571 37.833C48.5307 37.7191 48.5117 37.6762 48.5613 37.4367C48.7559 36.4952 48.9493 35.5534 49.1447 34.612C49.1626 34.526 49.1911 34.442 49.2241 34.3232C49.3131 34.3353 49.4082 34.3355 49.4952 34.3618C50.5662 34.6852 51.636 35.0125 52.7062 35.3386C52.8687 35.3881 53.0317 35.4362 53.2141 35.4877Z" fill="#FFEBC1"/>
<path d="M16.083 52.5118C15.502 52.1019 14.9038 51.6945 14.3465 51.2383C13.6575 50.6743 13.0025 50.0699 12.3259 49.4675C12.5434 49.379 12.6212 49.1588 12.7614 49.0058C13.1096 48.6256 13.4309 48.2214 13.762 47.8261C13.9846 47.5603 14.2055 47.2931 14.4272 47.0266C14.45 46.9992 14.4717 46.9707 14.4965 46.9451C14.6194 46.8179 14.638 46.8237 14.7887 46.9202C15.0818 47.1076 15.3735 47.299 15.6791 47.465C16.1457 47.7184 16.6582 47.8597 17.1644 48.0143C17.5741 48.1394 17.9819 48.2708 18.4232 48.4096C18.3452 48.5466 18.2819 48.6605 18.2161 48.773C17.5385 49.9314 16.8599 51.0892 16.1841 52.2486C16.1402 52.324 16.1169 52.411 16.083 52.5118Z" fill="#FFEBC1"/>
<path d="M7.0165 39.4408C6.97921 39.2073 6.94898 38.9702 6.94822 38.7329C6.94425 37.4925 6.94777 36.2521 6.95374 34.9876C7.29594 34.8767 7.63474 34.7956 7.96991 34.7019C8.90047 34.4417 9.82939 34.1758 10.7596 33.9143C10.8079 33.9007 10.8622 33.9076 10.9267 33.9043C11.0444 34.4572 11.1608 34.9994 11.2752 35.5421C11.3772 36.0257 11.4748 36.5101 11.5785 36.9932C11.6318 37.2412 11.6262 37.2672 11.3866 37.3823C10.1104 37.9952 8.83369 38.6071 7.55591 39.2169C7.38663 39.2976 7.21025 39.364 7.0165 39.4408Z" fill="#FFEBC1"/>
<path d="M32.3979 58.5431C32.1678 58.6579 31.9384 58.7567 31.7035 58.8405C31.231 59.0089 30.7549 59.1672 30.2819 59.3341C30.1573 59.3781 30.0412 59.3822 29.9158 59.3366C29.0236 59.0125 28.1301 58.6917 27.2212 58.3576C27.2586 57.8282 27.3135 57.3112 27.3642 56.7938C27.3892 56.5391 27.4038 56.2835 27.4284 56.0288C27.4401 55.9077 27.4641 55.7876 27.4847 55.6533C29.0484 55.6533 30.5902 55.6533 32.1552 55.6533C32.2356 56.6111 32.3158 57.5657 32.3979 58.5431Z" fill="#FEEBC1"/>
<path d="M14.4451 23.3601C15.827 23.8084 17.1892 24.2489 18.5751 24.6971C18.2709 25.3162 18.026 25.9296 18.016 26.6385C17.8901 26.6385 17.7755 26.652 17.6651 26.6363C16.9585 26.5358 16.2525 26.4303 15.5467 26.3238C14.8674 26.2213 14.1889 26.1133 13.5094 26.012C13.1216 25.9541 12.7324 25.9047 12.3367 25.8506C12.3249 25.7787 12.3035 25.7268 12.3104 25.6789C12.414 24.9643 12.5192 24.2499 12.6292 23.5363C12.6561 23.3623 12.7 23.1907 12.7389 23.0187C12.7708 22.8777 12.8261 22.8411 12.9693 22.8773C13.082 22.9058 13.1912 22.9479 13.3019 22.9841C13.6763 23.1067 14.0508 23.2295 14.4451 23.3601Z" fill="#FFEBC1"/>
<path d="M42.4841 24.6679C43.6429 24.3128 44.7801 23.9611 45.9179 23.6113C46.3969 23.4641 46.8772 23.3207 47.3571 23.1763C47.3978 23.164 47.4402 23.1572 47.4963 23.1445C47.7265 24.1366 47.88 25.125 47.9251 26.1579C46.0444 26.4045 44.1628 26.6486 42.2642 26.8818C42.2318 26.6643 42.198 26.4846 42.1795 26.3034C42.1359 25.877 42.006 25.4753 41.8395 25.0825C41.7692 24.9164 41.7804 24.8892 41.9501 24.8305C42.119 24.7722 42.2918 24.7245 42.4841 24.6679Z" fill="#FFEBC1"/>
<path d="M3.65903 26.9381C3.52829 26.9538 3.51748 26.8376 3.47869 26.7556C3.15634 26.0746 2.83803 25.3917 2.5199 24.7088C2.13446 23.8813 1.751 23.053 1.36534 22.2256C1.26049 22.0007 1.15082 21.7779 1.02856 21.5426C1.02903 21.3823 1.1513 21.444 1.22171 21.4421C1.71433 21.4288 2.20726 21.4263 2.70009 21.4202C2.98681 21.4167 3.27353 21.4128 3.58676 21.4102C3.8175 21.4206 4.02173 21.4301 4.25516 21.4408C3.87781 23.2584 3.62845 25.0719 3.65903 26.9381Z" fill="#0D4482"/>
<path d="M59.1696 21.7205C59.0476 21.7259 59.0126 21.813 58.9741 21.8933C58.8172 22.2214 58.6589 22.5489 58.5056 22.8787C58.3599 23.192 58.2235 23.5095 58.0765 23.8222C57.688 24.6489 57.2963 25.4742 56.9051 26.2997C56.7951 26.5318 56.6824 26.7628 56.5565 27.0045C56.5528 25.1634 56.3261 23.3364 55.9407 21.5134C56.0141 21.501 56.0648 21.4851 56.1155 21.4849C57.0599 21.4815 58.0043 21.4794 58.9487 21.4795C59.0097 21.4795 59.0706 21.4989 59.1505 21.5195C59.1709 21.5864 59.1725 21.6431 59.1696 21.7205Z" fill="#0C4482"/>
<path d="M40.9278 35.4368C40.9625 35.3424 40.997 35.2696 41.0192 35.1933C41.1756 34.656 41.7412 34.1821 42.6522 34.3088C42.6522 34.3638 42.6597 34.4233 42.6511 34.4805C42.53 35.2858 42.4053 36.0906 42.2857 36.8961C42.2719 36.9891 42.2414 37.0548 42.1639 37.1175C41.6504 37.5325 41.1427 37.9546 40.633 38.3743C40.5642 38.4309 40.5006 38.4964 40.4245 38.541C40.2819 38.6245 40.1486 38.585 40.1049 38.4286C40.0733 38.3154 40.0643 38.1785 40.0982 38.0679C40.3656 37.1954 40.6457 36.3267 40.9278 35.4368Z" fill="#FCC11D"/>
<path d="M48.6599 7.11035C49.1742 7.21832 49.7038 7.31906 50.2183 7.47015C51.1465 7.74278 52.0657 8.04552 53 8.34841C52.9475 8.38873 52.8713 8.4026 52.8218 8.44611C52.4073 8.81096 51.9986 9.18231 51.5858 9.54912C51.4876 9.63631 51.3807 9.71378 51.2632 9.8073C51.0033 9.52492 50.7564 9.25794 50.5112 8.98947C50.4334 8.90432 50.3654 8.81005 50.2839 8.72875C49.7467 8.1931 49.2071 7.65985 48.6599 7.11035Z" fill="#FDEBC2"/>
<path d="M18.4832 36.4284C18.3478 35.7205 18.2186 35.0345 18.0828 34.3135C18.4462 34.3487 18.7317 34.4777 18.9428 34.7325C19.0543 34.8671 19.1518 35.027 19.2064 35.1914C19.5249 36.1516 19.8318 37.1155 20.1331 38.0811C20.1651 38.1837 20.157 38.3109 20.1285 38.4165C20.0833 38.584 19.9417 38.6261 19.7903 38.5341C19.7296 38.4972 19.6761 38.4479 19.6226 38.4007C19.3612 38.1698 19.103 37.9354 18.8393 37.7072C18.7473 37.6276 18.6912 37.5417 18.6713 37.4175C18.6193 37.0938 18.5511 36.7726 18.4832 36.4284Z" fill="#FCC11E"/>
<path d="M16.5427 35.2005C16.2167 34.1133 15.8983 33.0462 15.5737 31.9586C15.973 31.9292 16.2475 32.0851 16.4548 32.3446C16.632 32.5664 16.7788 32.8129 16.929 33.0545C17.0133 33.1901 17.0693 33.3429 17.1525 33.4794C17.2703 33.6727 17.3062 33.8555 17.21 34.0778C17.158 34.1979 17.169 34.3589 17.1932 34.4942C17.3147 35.1751 17.4507 35.8535 17.5795 36.5331C17.5939 36.6091 17.5953 36.6875 17.6049 36.7888C17.3874 36.7089 17.1925 36.6469 17.0077 36.5633C16.9566 36.5401 16.9222 36.4565 16.9027 36.3938C16.7817 36.0038 16.6671 35.6119 16.5427 35.2005Z" fill="#FCC11F"/>
<path d="M44.5221 33.6023C44.2237 34.5906 43.933 35.5589 43.639 36.5382C43.5112 36.5382 43.3989 36.5382 43.2633 36.5382C43.3216 36.1398 43.3781 35.7481 43.4366 35.3567C43.4798 35.0672 43.528 34.7784 43.5697 34.4887C43.6135 34.1836 43.5533 33.908 43.3331 33.6741C43.2901 33.6284 43.2484 33.5463 43.2597 33.4918C43.35 33.0553 43.471 32.6346 43.8053 32.2998C44.1374 31.9674 44.5097 31.8679 44.9896 32.028C44.8347 32.5518 44.6823 33.067 44.5221 33.6023Z" fill="#FCC11F"/>
<path d="M7.79028 8.14927C8.21239 7.99956 8.64673 7.83734 9.09238 7.71528C9.9094 7.49151 10.7331 7.29144 11.5761 7.08203C11.5222 7.15439 11.4449 7.22494 11.3704 7.29823C10.9447 7.71686 10.5137 8.1305 10.0967 8.55738C9.85511 8.80463 9.63709 9.07421 9.40645 9.33198C9.37252 9.3699 9.3273 9.398 9.27638 9.43956C9.06753 9.25762 8.86739 9.08388 8.66796 8.90936C8.38091 8.65817 8.09438 8.4064 7.79028 8.14927Z" fill="#FDEBC2"/>
<path d="M59.0801 32.6852C59.0947 32.6695 59.1175 32.6686 59.1575 32.668C59.1746 32.7539 59.1299 32.7229 59.0801 32.6852Z" fill="#2671B7"/>
<path d="M27.1456 58.3214C27.152 58.3287 27.1314 58.3305 27.1314 58.3305C27.1314 58.3305 27.1133 58.3206 27.1079 58.312C27.1161 58.3023 27.1284 58.3059 27.1456 58.3214Z" fill="#FEEBC1"/>
<path d="M16.9749 9.40668C17.1574 9.82111 17.3401 10.2355 17.5223 10.65C17.5651 10.7473 17.6062 10.8453 17.6576 10.9652C17.5118 11.0639 17.3669 11.1621 17.1903 11.2817C16.7714 10.3553 16.3636 9.45353 15.9458 8.5297C16.1023 8.42189 16.2467 8.32239 16.4128 8.20793C16.9579 8.6242 17.5015 9.03927 18.045 9.45433C18.0536 9.09122 17.9292 8.77332 17.848 8.44692C17.765 8.1135 17.6679 7.78351 17.5757 7.44778C17.7368 7.34021 17.8766 7.2468 18.0385 7.13867C18.7335 7.86355 19.4234 8.58307 20.1411 9.33162C19.9838 9.4363 19.839 9.53273 19.6722 9.64375C19.2615 9.21675 18.856 8.79517 18.4505 8.37359C18.4332 8.38206 18.416 8.39054 18.3987 8.39902C18.5566 8.98169 18.7146 9.56436 18.8773 10.1649C18.741 10.2566 18.6091 10.3454 18.4574 10.4475C17.9868 10.0902 17.5186 9.73462 17.0252 9.36213C16.987 9.34601 16.974 9.34681 16.9611 9.34762C16.9657 9.36731 16.9703 9.387 16.9749 9.40668Z" fill="#F7F0EA"/>
<path d="M46.8445 12.8207C46.893 12.7384 46.9309 12.672 46.9687 12.6056C46.9584 12.5934 46.9481 12.5811 46.9378 12.5688C46.4301 12.8583 45.9224 13.1478 45.3979 13.4468C45.2777 13.3043 45.1658 13.1716 45.0356 13.0172C45.9249 12.5054 46.7911 12.0068 47.6733 11.499C47.7976 11.6459 47.9111 11.7801 48.0376 11.9298C47.6745 12.5143 47.3155 13.0922 46.9565 13.67C46.969 13.6853 46.9815 13.7006 46.994 13.7158C47.6432 13.5008 48.2677 13.217 48.9345 12.9846C49.0515 13.1207 49.1655 13.2534 49.2935 13.4022C48.6327 14.1686 47.9831 14.9222 47.3132 15.6992C47.1865 15.5502 47.0787 15.4235 46.9521 15.2747C47.3407 14.8198 47.7249 14.3702 48.1091 13.9206C48.1004 13.9078 48.0917 13.895 48.0831 13.8822C47.5097 14.1025 46.9364 14.3229 46.3423 14.5512C46.2334 14.4253 46.1249 14.2998 46.0102 14.1672C46.2915 13.7126 46.5626 13.2747 46.8445 12.8207Z" fill="#F8F0EA"/>
<path d="M48.9221 18.2316C49.0533 18.1768 49.1844 18.1219 49.3242 18.0635C49.38 18.1711 49.4283 18.2644 49.4811 18.3661C50.3526 18.3661 51.2218 18.3661 52.1062 18.3661C52.1781 18.5417 52.248 18.7124 52.3247 18.8998C51.6831 19.4867 51.0447 20.0707 50.3977 20.6626C50.4254 20.7673 50.4517 20.8666 50.4841 20.9887C50.1902 21.1033 49.9004 21.2164 49.5813 21.3409C49.5097 21.1708 49.443 21.0124 49.3695 20.8378C49.5076 20.7743 49.6266 20.7195 49.7765 20.6505C49.5303 20.0288 49.2874 19.4155 49.0398 18.7902C48.8858 18.8388 48.7609 18.8782 48.6183 18.9233C48.5515 18.7602 48.4886 18.6067 48.4126 18.4212C48.54 18.3706 48.6528 18.3258 48.802 18.2793C48.8663 18.2623 48.8942 18.247 48.9221 18.2316ZM50.8638 19.4762C50.9553 19.3915 51.0517 19.3112 51.1371 19.2208C51.222 19.131 51.3542 19.0764 51.3901 18.9248C51.0921 18.9248 50.8143 18.9248 50.5365 18.9248C50.2641 18.9248 49.9918 18.9248 49.6878 18.9248C49.7766 19.152 49.8497 19.3407 49.924 19.5289C49.9975 19.7149 50.0722 19.9005 50.1571 20.1133C50.4021 19.8927 50.619 19.6974 50.8638 19.4762Z" fill="#F9F1EB"/>
<path d="M46.2043 11.1633C45.8907 12.0411 45.102 12.4838 44.2678 12.2667C43.5194 12.0718 43.0099 11.3267 43.1199 10.5878C43.243 9.76173 43.9284 9.17382 44.7341 9.2032C45.729 9.23948 46.3995 10.062 46.2297 11.0379C46.2237 11.0729 46.2173 11.1079 46.2043 11.1633ZM44.0717 10.0001C43.8574 10.1901 43.7012 10.4143 43.6845 10.7064C43.6604 11.1292 43.8438 11.4551 44.2212 11.6448C44.5891 11.8296 44.9592 11.7861 45.2816 11.5258C45.6152 11.2563 45.7492 10.9076 45.6516 10.4829C45.5264 9.93785 44.7723 9.46685 44.0717 10.0001Z" fill="#F8F0EB"/>
<path d="M24.6501 7.27356C24.4907 6.78176 24.339 6.30958 24.1679 5.77725C24.1261 5.90178 24.0984 5.96813 24.0816 6.03707C23.9597 6.5371 23.8264 7.03501 23.726 7.53928C23.683 7.75554 23.5881 7.87043 23.3735 7.90102C23.3133 7.90961 23.2548 7.93038 23.1679 7.95262C22.8679 7.01591 22.5711 6.08908 22.2661 5.13665C22.4509 5.07373 22.617 5.01717 22.8147 4.94983C23.0039 5.53232 23.1889 6.1016 23.3738 6.67088C23.3887 6.67097 23.4036 6.67106 23.4184 6.67115C23.5114 6.27346 23.6044 5.87579 23.6974 5.4781C23.7499 5.25348 23.8146 5.03071 23.8504 4.80353C23.8737 4.65534 23.9459 4.58633 24.0847 4.557C24.1707 4.53882 24.2539 4.50778 24.3649 4.47461C24.6665 5.41575 24.9636 6.34248 25.271 7.30158C25.0916 7.36149 24.9191 7.41912 24.7317 7.48173C24.7012 7.40399 24.6795 7.34859 24.6501 7.27356Z" fill="#F8F0EA"/>
<path d="M52.1976 22.0839C52.583 22.2138 52.9487 22.3357 53.3347 22.4644C53.3647 22.6135 53.3955 22.7662 53.4309 22.9424C52.442 23.1434 51.4781 23.3394 50.4886 23.5406C50.4471 23.3494 50.4102 23.1799 50.3672 22.9818C50.9489 22.8608 51.5132 22.7435 52.0774 22.6262C52.0798 22.6123 52.0822 22.5983 52.0846 22.5843C52.0062 22.5526 51.929 22.5174 51.8491 22.4898C51.3741 22.3261 50.9021 22.152 50.4212 22.0069C50.2015 21.9406 50.0883 21.827 50.0761 21.606C50.0732 21.5539 50.0624 21.5023 50.0508 21.4181C51.0244 21.2008 51.9973 21.0178 52.9904 20.8125C53.0311 21.0031 53.0656 21.1651 53.1067 21.3581C52.5135 21.5262 51.9084 21.5977 51.3175 21.7883C51.6043 21.8841 51.891 21.98 52.1976 22.0839Z" fill="#F8F0EA"/>
<path d="M37.5038 7.88087C36.9471 8.03978 36.4469 7.94718 35.9858 7.65528C35.481 7.33565 35.2363 6.73912 35.3495 6.15048C35.4842 5.44964 35.9056 4.99246 36.542 4.8567C37.3494 4.68447 38.1598 5.10368 38.4871 5.88891C38.3321 5.96184 38.1745 6.03601 38.0057 6.11543C37.9225 5.9978 37.8536 5.88537 37.7699 5.78486C37.407 5.34875 36.7914 5.25181 36.3404 5.55778C36.2374 5.62767 36.1327 5.70053 36.1095 5.85511C36.4546 5.97255 36.7998 6.09004 37.1625 6.21345C37.1055 6.38239 37.0553 6.53115 36.9973 6.70311C36.6319 6.58663 36.2843 6.47585 35.9349 6.36448C35.8834 6.75686 36.0893 7.10193 36.4789 7.28794C36.8579 7.46882 37.2298 7.41068 37.6115 7.22478C37.697 7.39844 37.7735 7.55356 37.862 7.73323C37.7359 7.78611 37.6305 7.83035 37.5038 7.88087Z" fill="#F7F0EA"/>
<path d="M32.5191 6.0931C32.6528 5.36497 32.782 4.65945 32.9177 3.91895C33.102 3.95028 33.2744 3.9796 33.4762 4.01392C33.4737 4.37925 33.3448 4.7245 33.314 5.11311C33.6277 5.17055 33.9397 5.22769 34.2721 5.28854C34.3431 4.91783 34.4093 4.57243 34.4805 4.2004C34.6674 4.2287 34.8405 4.25491 35.0516 4.28687C34.8917 5.26717 34.7064 6.22719 34.5279 7.21214C34.3331 7.18102 34.1593 7.15324 33.9534 7.12032C34.0273 6.68937 34.0984 6.27513 34.1731 5.83955C33.8493 5.78364 33.5434 5.73081 33.2079 5.67288C33.1261 6.10164 33.0487 6.50698 32.9662 6.93909C32.771 6.90701 32.5908 6.87738 32.3916 6.84464C32.4354 6.58472 32.475 6.35022 32.5191 6.0931Z" fill="#F7EFEA"/>
<path d="M8.32736 18.8464C8.20351 18.7909 8.09804 18.7445 7.96753 18.6871C8.1142 18.3599 8.2197 18.0307 8.43207 17.7531C8.7156 17.3823 9.19403 17.3093 9.51816 17.5932C9.62138 17.6837 9.6879 17.8149 9.78138 17.9411C9.83058 17.9139 9.89027 17.8805 9.95035 17.8478C10.2606 17.6789 10.5614 17.7197 10.8375 17.9138C11.1153 18.109 11.2523 18.3868 11.1817 18.7223C11.1366 18.9364 11.0427 19.1413 10.9615 19.3468C10.8936 19.5188 10.8125 19.6857 10.7276 19.8764C9.92205 19.5311 9.13389 19.1933 8.32736 18.8464ZM10.6243 18.6289C10.6247 18.4489 10.5178 18.3538 10.356 18.3083C10.1852 18.2603 10.0532 18.335 9.95826 18.4647C9.88121 18.5699 9.82631 18.6909 9.74823 18.8284C9.99237 18.9335 10.2109 19.0277 10.4573 19.1338C10.516 18.9675 10.5684 18.8189 10.6243 18.6289ZM9.00207 18.0108C8.82703 18.0682 8.77222 18.2093 8.72079 18.3873C8.91006 18.4669 9.08494 18.5404 9.2566 18.6126C9.47084 18.2435 9.40341 18.0701 9.00207 18.0108Z" fill="#F8F0EB"/>
<path d="M48.9083 18.2231C48.8942 18.2474 48.8663 18.2627 48.8215 18.2777C48.7142 18.1057 48.6238 17.9341 48.5208 17.7389C48.6424 17.5793 48.7701 17.4116 48.9117 17.2257C48.7133 16.8934 48.5139 16.5594 48.3023 16.2051C48.0935 16.234 47.8832 16.263 47.6398 16.2966C47.5468 16.1431 47.4482 15.9802 47.3315 15.7875C48.4087 15.6069 49.4495 15.4324 50.5136 15.2539C50.6136 15.4164 50.7142 15.5798 50.8201 15.7519C50.4351 16.2347 50.0581 16.7077 49.6806 17.1805C49.4583 17.4588 49.2338 17.7355 49.0138 18.0156C48.9664 18.0759 48.9339 18.1476 48.9083 18.2231ZM49.7964 16.135C49.8363 16.0768 49.8763 16.0185 49.9462 15.9167C49.5663 15.9831 49.2487 16.0387 48.8987 16.1C49.0446 16.3379 49.1658 16.5356 49.3 16.7544C49.4755 16.5363 49.6248 16.3508 49.7964 16.135Z" fill="#F8F0EB"/>
<path d="M22.2828 7.5292C22.4702 7.72016 22.6435 7.89839 22.8312 8.09136C22.6667 8.16971 22.5003 8.24897 22.3211 8.33429C22.1581 8.1842 22.0018 8.04017 21.8354 7.88691C21.4746 8.05476 21.1188 8.22036 20.7463 8.39368C20.7577 8.60573 20.769 8.81546 20.7813 9.04547C20.6114 9.12505 20.4444 9.20331 20.2347 9.30154C20.1557 8.22774 20.0793 7.18815 20.0015 6.13034C20.1792 6.04517 20.3463 5.96509 20.5303 5.87695C21.1144 6.42779 21.6915 6.97212 22.2828 7.5292ZM21.182 7.25647C21.0103 7.09776 20.8385 6.93905 20.6668 6.78034C20.6511 6.79051 20.6353 6.80068 20.6195 6.81086C20.6438 7.12782 20.6681 7.44478 20.6948 7.79325C20.9406 7.68043 21.1542 7.58238 21.3914 7.47346C21.3153 7.39352 21.2623 7.33785 21.182 7.25647Z" fill="#F8F0EB"/>
<path d="M25.8333 4.18514C26.182 4.12209 26.5084 4.06523 26.8661 4.00293C26.8982 4.18276 26.9285 4.35207 26.9635 4.5477C26.6368 4.61049 26.3327 4.66896 25.9977 4.73336C26.0297 4.91972 26.0589 5.08908 26.0866 5.24985C26.32 5.2388 26.525 5.22232 26.7301 5.22111C26.9913 5.21956 27.2007 5.33786 27.3534 5.53976C27.6975 5.99436 27.6949 6.78073 26.8873 7.00299C26.5612 7.09274 26.2224 7.13776 25.8551 7.20987C25.6724 6.22542 25.494 5.2643 25.3123 4.28528C25.4965 4.25058 25.6537 4.22096 25.8333 4.18514ZM26.5731 5.7468C26.4509 5.75571 26.3286 5.76462 26.1808 5.77539C26.2326 6.04855 26.2792 6.29459 26.3314 6.5696C26.4939 6.52732 26.6343 6.50412 26.764 6.45401C26.9796 6.37074 27.0433 6.19101 26.9502 5.98029C26.887 5.83717 26.7766 5.76128 26.5731 5.7468Z" fill="#F8F0EB"/>
<path d="M8.29981 20.1399C7.99965 20.3458 7.80779 20.598 7.74731 20.9453C7.71368 21.1384 7.74118 21.3162 7.81811 21.4891C8.03621 21.9792 8.61941 22.2204 9.12586 22.034C9.61203 21.8551 9.89289 21.2748 9.73519 20.762C9.6963 20.6356 9.63515 20.5158 9.57024 20.3592C9.7194 20.2735 9.87616 20.1834 10.0305 20.0947C10.6438 20.8951 10.2785 22.0585 9.5713 22.4666C8.81173 22.9049 7.72636 22.6038 7.33815 21.8332C6.924 21.0111 7.30089 19.9509 8.1561 19.5996C8.22713 19.725 8.29823 19.8555 8.37442 19.983C8.42117 20.0613 8.37124 20.0951 8.29981 20.1399Z" fill="#F7F0EA"/>
<path d="M13.791 11.1156C13.7769 11.1471 13.7664 11.1709 13.7737 11.1791C13.8742 11.2909 13.9772 11.4006 14.0996 11.5323C14.3609 11.2875 14.6113 11.0529 14.8754 10.8055C15.0041 10.9308 15.1238 11.0473 15.2712 11.1908C15.0087 11.4445 14.7626 11.6822 14.5119 11.9245C14.7016 12.0979 14.8776 12.2588 15.0743 12.4386C15.2944 12.2359 15.5465 12.0038 15.7917 11.7781C15.9306 11.9126 16.0557 12.0338 16.1965 12.1701C15.8096 12.5403 15.4248 12.9085 15.0233 13.2928C14.32 12.5783 13.6281 11.8752 12.9189 11.1548C13.3207 10.7713 13.7062 10.4034 14.0898 10.0371C14.2323 10.1645 14.3626 10.2809 14.5001 10.4038C14.2542 10.6496 14.0285 10.8752 13.791 11.1156Z" fill="#F7EFEA"/>
<path d="M29.5785 3.98917C29.6063 3.90173 29.6288 3.83522 29.656 3.75468C29.8391 3.74619 30.0164 3.73796 30.2199 3.72852C30.2028 3.81384 30.1957 3.87975 30.1761 3.94185C29.9681 4.6025 29.7605 5.26329 29.5469 5.92219C29.4978 6.07362 29.4388 6.22456 29.3631 6.36448C29.0801 6.88711 28.5346 7.01577 28.0388 6.68164C27.9581 6.62725 27.8873 6.55859 27.7917 6.47988C27.8539 6.4045 27.9063 6.33719 27.9629 6.27348C28.0159 6.21377 28.0733 6.15787 28.1432 6.08524C28.2973 6.18366 28.4385 6.34119 28.6404 6.28914C28.7348 6.2648 28.8138 6.18208 28.9115 6.11807C28.5089 5.36161 28.1217 4.63403 27.7109 3.86225C27.9552 3.85055 28.1547 3.841 28.3667 3.83085C28.6215 4.34147 28.8706 4.84069 29.1448 5.39015C29.3348 4.90748 29.4264 4.44991 29.5785 3.98917Z" fill="#F7EFEA"/>
<path d="M13.3147 15.2644C13.2016 15.4042 13.0991 15.5269 12.9674 15.6846C12.4283 14.7505 11.9025 13.8395 11.3711 12.9188C11.4962 12.7668 11.614 12.6238 11.7433 12.4668C12.7544 12.7957 13.759 13.1224 14.8019 13.4616C14.6701 13.6264 14.5518 13.7743 14.4198 13.9393C13.6986 13.701 12.9873 13.4659 12.208 13.2083C12.2818 13.3436 12.3241 13.4252 12.3701 13.5047C12.6596 14.0055 12.9515 14.505 13.2381 15.0075C13.2797 15.0805 13.2968 15.1671 13.3147 15.2644Z" fill="#F7EFEA"/>
<path d="M40.8994 9.51387C41.3994 8.76633 41.8881 8.03469 42.3986 7.27051C42.7055 7.48716 43.0089 7.67496 43.2807 7.89974C43.6253 8.18464 43.6658 8.57614 43.4277 8.95056C43.1853 9.33178 42.7924 9.46337 42.3792 9.29045C42.2244 9.22566 42.0799 9.13674 41.9124 9.04923C41.6853 9.38742 41.463 9.71854 41.221 10.0789C41.0623 9.97628 40.9102 9.87792 40.7424 9.76937C40.7982 9.67764 40.8432 9.60371 40.8994 9.51387ZM42.6534 8.12551C42.6133 8.12508 42.5506 8.10829 42.5368 8.12683C42.4343 8.26533 42.3416 8.41081 42.2363 8.56829C42.3643 8.6461 42.4578 8.71419 42.5607 8.76288C42.7188 8.83768 42.848 8.8002 42.9353 8.67035C43.0168 8.54927 43.0079 8.4255 42.8954 8.31135C42.8339 8.24899 42.7565 8.20187 42.6534 8.12551Z" fill="#F8F0EA"/>
<path d="M10.8532 14.5071C10.7911 14.6049 10.739 14.6866 10.6728 14.7904C11.3483 15.2242 12.0147 15.6522 12.7079 16.0974C12.6045 16.2611 12.5079 16.414 12.395 16.5926C11.7057 16.1525 11.0322 15.7225 10.3494 15.2866C10.2458 15.4351 10.1553 15.5649 10.0486 15.7179C9.89404 15.619 9.74675 15.5247 9.56982 15.4114C9.87369 14.9491 10.169 14.4997 10.4795 14.0273C10.6406 14.1294 10.7883 14.2229 10.9503 14.3256C10.9181 14.3869 10.8907 14.439 10.8532 14.5071Z" fill="#F7F0EA"/>
<path d="M31.087 4.72857C31.0893 4.59057 31.0893 4.47679 31.0893 4.34248C30.9224 4.32877 30.7649 4.31584 30.5784 4.30052C30.5906 4.11678 30.602 3.94453 30.6156 3.74023C31.1706 3.77499 31.7119 3.8089 32.2843 3.84474C32.2655 4.04206 32.2493 4.21345 32.2316 4.40026C32.0515 4.39203 31.8925 4.38477 31.7017 4.37606C31.6496 5.17179 31.5982 5.95597 31.5448 6.77211C31.3438 6.76245 31.1617 6.7537 30.9547 6.74375C30.9995 6.05847 31.0421 5.40562 31.087 4.72857Z" fill="#F7EFEA"/>
<path d="M40.3564 7.75312C40.1061 8.21512 39.8657 8.66006 39.6129 9.12819C39.4417 9.03717 39.2876 8.95523 39.1045 8.85788C39.5807 7.97559 40.0474 7.11084 40.522 6.23145C40.9684 6.4664 41.3947 6.69079 41.848 6.9294C41.7586 7.09619 41.677 7.24847 41.5827 7.4244C41.3103 7.28476 41.0512 7.15196 40.7668 7.00612C40.6285 7.25815 40.4975 7.49711 40.3564 7.75312Z" fill="#F7EFEA"/>
<path d="M11.4796 17.0174C11.6528 17.1127 11.8089 17.1982 11.9874 17.296C11.8918 17.4657 11.8031 17.6233 11.7061 17.7955C10.8217 17.3149 9.95949 16.8463 9.07031 16.363C9.16272 16.1935 9.24857 16.036 9.34539 15.8584C10.067 16.2501 10.7647 16.6288 11.4796 17.0174Z" fill="#F7EFEA"/>
<path d="M22.4862 4.51947C22.4133 4.44268 22.3566 4.37771 22.2869 4.29792C22.5037 4.21046 22.678 4.13153 22.9007 4.20563C23.068 4.2613 23.2584 4.19647 23.3608 4.05401C23.4925 3.87092 23.6819 3.85709 23.8864 3.78906C23.9284 4.06114 23.8399 4.26595 23.6353 4.40205C23.2856 4.6347 22.9111 4.75537 22.4862 4.51947Z" fill="#F3EDEA"/>
<path d="M20.9429 44.1261C20.9665 44.1307 20.9902 44.1353 21.0138 44.14C20.9938 44.1428 20.9739 44.1455 20.9495 44.1364C20.945 44.1244 20.9429 44.1261 20.9429 44.1261Z" fill="#FEFEFE"/>
<path d="M20.8955 44.0674C20.9222 44.0703 20.9386 44.0834 20.9489 44.1116C20.9429 44.1266 20.945 44.125 20.946 44.124C20.9276 44.1213 20.9082 44.1194 20.8772 44.1083C20.8721 44.0919 20.8786 44.0848 20.8955 44.0674Z" fill="#FEFEFE"/>
<path d="M39.9551 45.0281C39.9522 45.0511 39.9414 45.0659 39.9173 45.0825C39.904 45.0843 39.9061 45.0868 39.9061 45.0868C39.9066 45.0669 39.9071 45.047 39.919 45.0157C39.9304 45.0044 39.9472 45.0199 39.9551 45.0281Z" fill="#FEFEFE"/>
<path d="M39.9028 45.0831C39.893 45.0946 39.8843 45.1073 39.8755 45.12C39.8774 45.1064 39.8794 45.0927 39.8937 45.083C39.9061 45.0869 39.9039 45.0844 39.9028 45.0831Z" fill="#FEFEFE"/>
<path d="M16.9853 9.39668C16.9705 9.38615 16.966 9.36662 16.9614 9.34709C16.9743 9.34629 16.9871 9.34549 17.0074 9.35666C17.0084 9.37498 17.0019 9.38133 16.9853 9.39668Z" fill="#2671B7"/>
<path d="M50.8498 19.4891C50.619 19.6974 50.4021 19.8927 50.1571 20.1133C50.0721 19.9005 49.9975 19.7149 49.924 19.5289C49.8497 19.3407 49.7766 19.152 49.6877 18.9248C49.9918 18.9248 50.2641 18.9248 50.5364 18.9248C50.8142 18.9248 51.0921 18.9248 51.3901 18.9248C51.3542 19.0764 51.2219 19.131 51.1371 19.2208C51.0516 19.3111 50.9553 19.3915 50.8498 19.4891Z" fill="#2D73B8"/>
<path d="M44.0872 9.98761C44.7725 9.46665 45.5266 9.93765 45.6518 10.4827C45.7494 10.9074 45.6154 11.2561 45.2818 11.5256C44.9594 11.786 44.5893 11.8294 44.2214 11.6446C43.844 11.4549 43.6606 11.129 43.6847 10.7062C43.7014 10.4141 43.8576 10.1899 44.0872 9.98761Z" fill="#2872B8"/>
<path d="M10.6223 18.6499C10.5682 18.8192 10.5158 18.9678 10.4571 19.1341C10.2107 19.0279 9.99218 18.9338 9.74805 18.8287C9.82612 18.6912 9.88103 18.5702 9.95808 18.4649C10.053 18.3353 10.185 18.2606 10.3559 18.3086C10.5176 18.3541 10.6245 18.4492 10.6223 18.6499Z" fill="#2F75B9"/>
<path d="M9.02306 18.0078C9.40332 18.0702 9.47076 18.2437 9.25652 18.6127C9.08485 18.5406 8.90998 18.467 8.7207 18.3874C8.77213 18.2095 8.82694 18.0684 9.02306 18.0078Z" fill="#3176BA"/>
<path d="M49.7852 16.1495C49.6247 16.3501 49.4755 16.5357 49.3 16.7538C49.1658 16.5349 49.0446 16.3372 48.8987 16.0993C49.2487 16.0381 49.5663 15.9825 49.9462 15.916C49.8763 16.0179 49.8363 16.0761 49.7852 16.1495Z" fill="#3377BA"/>
<path d="M21.1958 7.27023C21.2625 7.33876 21.3155 7.39443 21.3916 7.47437C21.1543 7.58329 20.9407 7.68134 20.695 7.79416C20.6682 7.4457 20.6439 7.12873 20.6196 6.81177C20.6354 6.80159 20.6512 6.79142 20.667 6.78125C20.8387 6.93996 21.0104 7.09867 21.1958 7.27023Z" fill="#3377BA"/>
<path d="M26.5963 5.74902C26.7765 5.76198 26.8869 5.83787 26.9501 5.981C27.0432 6.19172 26.9795 6.37145 26.7639 6.45472C26.6342 6.50483 26.4938 6.52803 26.3313 6.5703C26.2791 6.2953 26.2325 6.04926 26.1807 5.7761C26.3285 5.76533 26.4508 5.75642 26.5963 5.74902Z" fill="#2D75B9"/>
<path d="M42.6699 8.1363C42.7566 8.20148 42.834 8.24859 42.8955 8.31095C43.008 8.42511 43.0169 8.54888 42.9354 8.66995C42.848 8.79981 42.7189 8.83729 42.5607 8.76249C42.4578 8.7138 42.3643 8.6457 42.2363 8.56789C42.3416 8.41042 42.4344 8.26493 42.5369 8.12644C42.5506 8.10789 42.6134 8.12469 42.6699 8.1363Z" fill="#2F75B9"/>
</svg>
