<svg width="1132" height="1492" viewBox="0 0 1132 1492" fill="none" xmlns="http://www.w3.org/2000/svg">
<path fill-rule="evenodd" clip-rule="evenodd" d="M106.264 294.999C249.311 286.661 287.262 553.064 429.036 592.31C563.293 629.474 677.955 416.511 801.177 487.363C924.455 558.248 1013.73 774.958 932.249 881.657C841.615 1000.34 644.267 869.003 495.174 888.055C445.831 894.36 419.714 963.74 369.739 953.537C319.02 943.182 306.087 871.643 262.57 840.566C144.337 756.13 -53.2614 762.975 -93.4321 622.765C-132.408 486.726 -27.2053 302.779 106.264 294.999Z" stroke="#2671B7" stroke-opacity="0.1"/>
<path fill-rule="evenodd" clip-rule="evenodd" d="M447.508 717.916C446.256 729.342 426.419 725.505 421.728 735.614C417.286 745.187 431.26 759.62 424.514 767.467C417.766 775.318 400.871 776.774 394.183 767.658C386.743 757.519 398.842 745.409 399.395 733.235C399.578 729.206 394.88 725.385 396.27 721.729C397.681 718.018 403.043 718.834 405.865 716.217C413.531 709.109 415.601 693.445 426.303 693.882C436.687 694.306 448.677 707.256 447.508 717.916Z" stroke="#2671B7" stroke-opacity="0.1"/>
<path d="M426.874 622.768C289.599 578.192 263.632 317.231 123.106 318.904C-8.01044 320.465 -118.849 494.736 -86.386 628.879C-52.928 767.134 140.99 769.371 253.293 856.865C294.627 889.068 304.287 959.268 353.551 971.629C402.092 983.808 430.608 917.467 479.225 913.553C626.127 901.727 813.98 1038.42 907.793 927.009C992.135 826.844 913.778 611.93 795.961 537.397C678.199 462.898 556.868 664.981 426.874 622.768Z" stroke="#2671B7" stroke-opacity="0.1"/>
<path d="M423.695 651.663C291.125 602.128 276.679 347.138 138.978 342.44C10.4964 338.057 -105.396 502.572 -79.249 634.506C-52.3009 770.485 137.529 781.388 243.835 871.543C282.961 904.724 289.467 973.439 337.195 987.679C384.224 1001.71 414.946 938.467 462.726 936.848C607.1 931.957 785.328 1073.37 881.9 969.224C968.721 875.596 901.026 663.036 788.774 585.239C676.574 507.478 549.235 698.571 423.695 651.663Z" stroke="#2671B7" stroke-opacity="0.1"/>
<path d="M419.593 678.959C291.91 624.843 288.499 376.318 153.906 365.557C28.3258 355.517 -92.0383 510.229 -71.996 639.657C-51.3391 773.054 134.019 792.193 234.284 884.614C271.187 918.63 274.663 985.72 320.784 1001.71C366.228 1017.46 398.961 957.368 445.799 957.944C587.327 959.683 755.837 1105.16 854.749 1008.27C943.675 921.161 886.355 711.487 779.749 630.811C673.193 550.173 540.506 730.206 419.593 678.959Z" stroke="#2671B7" stroke-opacity="0.1"/>
<path d="M414.663 704.632C292.028 646.316 299.142 404.712 167.923 388.207C45.491 372.807 -78.7661 517.703 -64.6017 644.348C-50.0029 774.876 130.526 801.803 224.728 896.1C259.399 930.807 259.979 996.143 304.426 1013.75C348.221 1031.1 382.771 974.187 428.568 976.852C566.95 984.905 725.685 1133.82 826.523 1044.13C917.182 963.5 869.923 757.217 769.025 674.045C668.173 590.912 530.795 759.856 414.663 704.632Z" stroke="#2671B7" stroke-opacity="0.1"/>
<path d="M408.999 728.661C291.55 666.53 308.658 432.268 181.061 410.347C62.0066 389.894 -65.5684 524.996 -57.0423 648.596C-48.2548 775.987 127.116 810.242 215.253 906.031C247.693 941.287 245.514 1004.75 288.229 1023.84C330.319 1042.66 366.489 988.949 411.153 993.594C546.11 1007.63 695.045 1159.35 797.404 1076.8C889.429 1002.58 851.894 800.173 756.742 714.885C661.633 629.637 520.22 787.498 408.999 728.661Z" stroke="#2671B7" stroke-opacity="0.1"/>
<path d="M402.696 751.03C290.55 685.47 317.105 458.931 193.354 431.932C77.8892 406.74 -52.4344 532.103 -49.295 652.416C-46.0593 776.419 123.851 817.532 205.944 914.435C236.159 950.1 231.365 1011.58 272.299 1032.03C312.633 1052.17 350.23 1001.68 393.674 1008.19C524.947 1027.87 664.095 1181.78 767.573 1106.27C860.605 1038.39 832.432 840.306 743.043 753.278C653.696 666.29 508.895 813.114 402.696 751.03Z" stroke="#2671B7" stroke-opacity="0.1"/>
<path d="M395.849 771.73C289.1 703.127 324.537 484.655 204.838 452.922C93.1546 423.313 -39.3559 539.024 -41.3401 655.827C-43.3851 776.212 120.791 823.701 196.881 921.347C224.886 957.286 217.624 1016.69 256.735 1038.35C295.272 1059.69 334.101 1012.42 376.247 1020.69C503.597 1045.66 633.003 1201.13 737.209 1132.56C830.895 1070.92 811.7 877.58 728.073 789.182C644.484 700.824 496.937 836.695 395.849 771.73Z" stroke="#2671B7" stroke-opacity="0.1"/>
<path d="M388.557 790.759C287.278 719.499 331.017 509.397 215.556 473.281C107.827 439.584 -26.3187 545.761 -33.1534 658.85C-40.1976 775.406 118 828.783 188.147 926.81C213.964 962.889 204.388 1020.12 241.64 1042.86C278.346 1065.27 318.214 1021.21 358.99 1031.11C482.2 1061.02 601.943 1217.47 706.494 1155.7C800.49 1100.17 789.87 911.97 711.981 822.566C634.128 733.203 484.466 858.241 388.557 790.759Z" stroke="#2671B7" stroke-opacity="0.1"/>
<path d="M380.915 808.119C285.156 734.584 336.605 533.118 225.546 492.976C121.924 455.522 -13.3145 552.314 -24.7174 661.504C-36.4699 774.041 115.533 832.811 179.817 930.867C203.476 966.957 191.741 1021.94 227.108 1045.63C261.957 1068.97 302.674 1028.1 342.015 1039.51C460.889 1073.98 571.08 1230.83 675.604 1175.71C769.575 1126.16 767.108 943.461 694.914 853.407C622.754 763.395 471.596 877.754 380.915 808.119Z" stroke="#2671B7" stroke-opacity="0.1"/>
<path d="M373.019 823.814C282.809 748.385 341.367 555.778 234.854 511.97C135.472 471.096 -0.331059 558.683 -16.0118 663.808C-32.1734 772.157 113.448 835.821 171.968 933.563C193.506 969.538 179.771 1022.21 213.234 1046.71C246.207 1070.85 287.586 1033.13 325.434 1045.93C439.798 1084.61 540.579 1241.28 644.715 1192.64C738.338 1148.9 743.584 972.044 677.023 881.688C610.493 791.374 458.446 895.243 373.019 823.814Z" stroke="#2671B7" stroke-opacity="0.1"/>
<path d="M364.964 837.861C280.309 760.912 345.367 577.351 243.521 530.239C148.494 486.281 12.6406 564.871 -7.02086 665.788C-27.2852 769.799 111.798 837.853 164.671 934.954C184.131 970.692 168.558 1020.99 200.106 1046.17C231.191 1070.98 273.047 1036.37 309.352 1050.44C419.055 1092.94 510.599 1248.9 613.999 1206.54C706.96 1168.45 719.466 997.724 658.456 907.405C597.475 817.127 445.129 910.729 364.964 837.861Z" stroke="#2671B7" stroke-opacity="0.1"/>
<path d="M356.842 850.275C277.731 772.176 348.673 597.805 251.595 547.753C161.017 501.052 25.6113 570.879 2.27212 667.463C-21.7827 767.009 110.634 838.951 157.996 935.091C175.428 970.476 158.18 1018.36 187.808 1044.09C217.002 1069.44 259.154 1037.88 293.874 1053.09C398.786 1099.04 481.296 1253.76 583.625 1217.46C675.624 1184.84 694.921 1020.51 639.363 930.558C583.831 840.644 431.759 924.232 356.842 850.275Z" stroke="#2671B7" stroke-opacity="0.1"/>
<path d="M348.749 861.081C275.145 782.193 351.353 617.119 259.122 564.491C173.066 515.386 38.5911 576.712 11.8819 668.859C-15.6462 763.832 110.006 839.159 152.008 934.036C167.467 968.956 148.711 1014.38 176.423 1040.53C203.729 1066.3 246.001 1037.73 279.1 1053.96C379.114 1102.98 452.82 1255.94 553.758 1225.49C644.506 1198.12 670.117 1040.43 619.893 951.16C569.693 861.927 418.449 935.785 348.749 861.081Z" stroke="#2671B7" stroke-opacity="0.1"/>
<path d="M340.773 870.307C272.622 790.985 353.477 635.274 266.151 580.431C184.672 529.261 51.59 582.371 21.822 669.998C-8.85868 760.312 109.959 838.525 146.77 931.849C160.319 966.197 140.218 1009.15 166.026 1035.59C191.455 1061.64 233.677 1035.99 265.127 1053.11C360.156 1104.82 425.317 1255.55 524.56 1230.7C613.783 1208.37 645.218 1057.52 600.194 969.23C555.19 880.98 405.31 945.422 340.773 870.307Z" stroke="#2671B7" stroke-opacity="0.1"/>
<path d="M333.005 877.987C270.233 798.575 355.115 652.255 272.731 595.558C195.863 542.657 64.6176 587.862 32.1046 670.906C-1.40534 756.496 110.539 837.098 142.341 928.594C154.047 962.269 132.769 1002.73 156.689 1029.33C180.259 1055.55 222.265 1032.74 252.044 1050.62C342.028 1104.65 398.927 1252.68 496.184 1233.18C583.624 1215.65 620.387 1071.81 580.411 984.797C540.454 897.82 392.449 953.187 333.005 877.987Z" stroke="#2671B7" stroke-opacity="0.1"/>
<path d="M325.533 884.159C268.045 804.992 356.338 668.052 278.912 609.857C206.67 555.558 77.6835 593.189 42.7404 671.607C6.7259 752.429 111.785 834.93 138.777 924.34C148.711 957.248 126.421 995.209 148.48 1021.86C170.215 1048.13 211.845 1028.06 239.942 1046.58C324.838 1102.55 373.783 1247.44 468.784 1233.02C554.194 1220.06 595.784 1083.36 560.69 997.897C525.612 912.47 379.972 959.128 325.533 884.159Z" stroke="#2671B7" stroke-opacity="0.1"/>
<path d="M318.44 888.866C266.125 810.266 357.218 682.657 284.745 623.315C217.125 567.947 90.7973 598.356 53.7394 672.125C15.5451 748.156 113.736 832.073 136.129 919.155C144.37 951.206 121.232 986.678 141.461 1013.26C161.394 1039.46 202.495 1022.03 228.901 1041.07C308.693 1098.61 350.013 1239.96 442.503 1230.33C525.656 1221.68 571.565 1092.23 541.172 1008.57C510.792 924.958 367.982 963.297 318.44 888.866Z" stroke="#2671B7" stroke-opacity="0.1"/>
<path d="M311.809 892.156C264.535 814.435 357.825 696.071 290.281 635.927C227.259 579.811 103.967 603.371 65.1085 672.488C25.0584 743.724 116.426 828.585 134.443 913.113C141.075 944.224 117.252 977.223 135.689 1003.62C153.856 1029.63 194.282 1014.75 219 1034.18C293.69 1092.92 327.738 1230.35 417.481 1225.22C498.164 1220.61 547.883 1098.47 521.996 1016.88C496.12 935.321 356.576 965.755 311.809 892.156Z" stroke="#2671B7" stroke-opacity="0.1"/>
<path d="M305.72 894.08C263.34 817.535 358.232 708.294 295.571 647.688C237.105 591.139 117.202 608.237 76.8547 672.72C35.2708 739.18 119.888 824.519 133.765 906.287C138.872 936.383 114.525 966.935 131.216 993.04C147.662 1018.76 187.274 1006.29 210.312 1026.01C279.923 1085.58 307.072 1218.74 393.85 1217.81C471.868 1216.97 524.888 1102.18 503.298 1022.87C481.717 943.604 345.853 966.566 305.72 894.08Z" stroke="#2671B7" stroke-opacity="0.1"/>
<path d="M300.25 894.696C262.6 819.611 358.51 719.335 300.667 658.595C246.698 601.922 130.51 612.963 88.9841 672.848C46.1848 734.568 124.15 819.936 134.132 898.754C137.806 927.764 113.094 955.905 128.089 981.612C142.865 1006.94 181.531 996.771 202.903 1016.65C267.482 1076.71 288.121 1205.26 371.737 1208.21C446.911 1210.87 502.724 1103.43 485.211 1026.63C467.706 949.857 335.903 965.8 300.25 894.696Z" stroke="#2671B7" stroke-opacity="0.1"/>
<path d="M295.469 894.061C262.368 820.705 358.727 729.203 305.619 668.649C256.068 612.151 143.898 617.554 101.497 672.896C57.7973 729.934 129.236 814.892 135.579 890.589C137.914 918.45 112.991 944.227 126.347 969.435C139.508 994.273 177.106 986.273 196.834 1006.2C256.447 1066.4 270.983 1190.05 351.258 1196.57C423.428 1202.44 481.528 1102.32 467.861 1028.21C454.2 954.135 326.814 963.528 295.469 894.061Z" stroke="#2671B7" stroke-opacity="0.1"/>
<path d="M291.45 892.241C262.705 820.865 358.957 737.912 310.482 677.856C265.253 621.821 157.375 622.018 114.401 672.891C70.1085 725.323 135.171 809.447 138.139 881.872C139.231 908.529 114.249 931.996 126.029 956.61C137.636 980.864 174.051 974.899 192.164 994.759C246.896 1054.77 255.751 1173.26 332.526 1183.02C401.551 1191.79 461.439 1098.94 451.376 1027.71C441.317 956.504 318.671 959.832 291.45 892.241Z" stroke="#2671B7" stroke-opacity="0.1"/>
<path d="M288.259 889.304C263.661 820.146 359.266 745.484 315.305 686.224C274.287 630.931 170.948 626.365 127.693 672.859C83.1114 720.779 141.971 803.664 141.836 872.684C141.786 898.088 116.892 919.308 127.163 943.24C137.284 966.821 172.408 962.752 188.942 982.441C238.899 1041.93 242.508 1155.03 315.645 1167.7C381.399 1179.08 442.581 1093.4 435.872 1025.2C429.166 957.034 311.552 954.794 288.259 889.304Z" stroke="#2671B7" stroke-opacity="0.1"/>
<path d="M285.956 885.316C265.284 818.596 359.724 751.939 320.138 693.761C283.203 639.478 184.622 630.598 141.373 672.824C96.7979 716.345 149.654 797.601 146.693 863.103C145.603 887.211 120.939 906.256 129.774 929.422C138.48 952.249 172.217 949.931 187.211 969.345C232.518 1028.01 231.327 1135.51 300.71 1150.75C363.088 1164.45 425.079 1085.82 421.465 1020.79C417.852 955.798 305.533 948.499 285.956 885.316Z" stroke="#2671B7" stroke-opacity="0.1"/>
<path d="M284.601 880.355C267.621 816.273 360.395 757.304 325.032 700.481C292.036 647.463 198.405 634.729 155.44 672.812C111.157 712.063 158.229 791.32 152.725 853.21C150.7 875.989 126.404 892.939 133.88 915.261C141.246 937.257 173.509 936.543 187.011 955.583C227.81 1013.12 222.275 1114.85 287.807 1132.32C346.722 1148.03 409.047 1076.3 408.261 1014.58C407.476 952.878 300.681 941.037 284.601 880.355Z" stroke="#2671B7" stroke-opacity="0.1"/>
<path d="M284.248 874.494C270.715 813.236 361.346 761.611 330.035 706.402C300.822 654.89 212.302 638.766 169.89 672.849C126.177 707.976 167.707 784.882 159.947 843.087C157.092 864.509 133.296 879.452 139.494 900.86C145.602 921.953 176.312 922.692 188.375 941.263C224.825 997.379 215.41 1093.21 277.015 1112.58C332.4 1129.99 394.595 1064.99 396.367 1006.66C398.138 948.36 297.063 932.504 284.248 874.494Z" stroke="#2671B7" stroke-opacity="0.1"/>
<path d="M284.946 867.813C274.607 809.543 362.638 764.892 335.197 711.542C309.593 661.764 226.318 642.717 184.718 672.956C141.843 704.123 178.091 778.349 168.367 832.813C164.787 852.859 141.617 865.891 146.624 886.318C151.557 906.445 180.645 908.482 191.327 926.495C223.605 980.923 210.781 1070.74 268.404 1091.67C320.209 1110.48 381.824 1051.99 385.877 997.151C389.927 942.336 294.737 922.992 284.946 867.813Z" stroke="#2671B7" stroke-opacity="0.1"/>
<path d="M286.74 860.391C279.331 805.256 364.334 767.183 340.563 715.921C318.383 668.091 240.457 646.59 199.918 673.159C158.136 700.542 189.383 771.779 177.986 822.47C173.791 841.127 151.366 852.348 155.27 871.736C159.116 890.84 186.523 894.018 195.888 911.388C224.186 963.873 208.426 1047.61 262.034 1069.76C310.23 1089.67 370.829 1037.46 376.882 986.167C382.932 934.9 293.757 912.602 286.74 860.391Z" stroke="#2671B7" stroke-opacity="0.1"/>
<path d="M289.672 852.314C284.921 800.44 366.492 768.529 346.18 719.566C327.228 673.882 254.724 650.398 215.482 673.481C175.037 697.272 201.583 765.236 188.806 812.139C184.103 829.402 162.536 838.921 165.428 857.218C168.278 875.248 193.955 879.408 202.071 896.055C226.597 946.358 208.378 1023.97 257.958 1047C302.533 1067.71 361.698 1021.52 369.467 973.827C377.233 926.154 294.171 901.437 289.672 852.314Z" stroke="#2671B7" stroke-opacity="0.1"/>
<path d="M293.776 843.662C291.406 795.157 369.17 768.969 352.092 722.502C336.158 679.146 269.123 654.146 231.403 673.943C192.526 694.348 214.684 758.777 200.819 801.896C195.716 817.766 175.113 825.697 177.089 842.86C179.037 859.77 202.944 864.753 209.885 880.605C230.859 928.502 210.659 999.978 256.219 1023.57C297.18 1044.78 354.508 1004.33 363.709 960.253C372.906 916.199 296.021 889.596 293.776 843.662Z" stroke="#2671B7" stroke-opacity="0.1"/>
<path d="M299.085 834.524C298.812 789.474 372.419 768.553 358.342 724.758C345.207 683.896 283.657 657.846 247.669 674.568C210.577 691.803 228.677 752.461 214.017 791.821C208.621 806.308 189.079 812.771 190.237 828.759C191.379 844.514 213.487 850.16 219.33 865.147C236.986 910.434 215.28 975.799 256.849 999.62C294.222 1021.04 349.331 986.018 359.678 945.572C370.02 905.146 299.343 877.185 299.085 834.524Z" stroke="#2671B7" stroke-opacity="0.1"/>
<path d="M305.624 824.985C307.161 783.458 376.293 767.329 364.971 726.367C354.406 688.149 298.327 661.507 264.269 675.377C229.166 689.672 243.551 746.346 228.384 781.991C222.801 795.11 204.411 800.229 204.851 815.013C205.284 829.581 225.574 835.73 230.401 849.792C244.984 892.282 222.246 951.59 259.873 975.322C293.701 996.658 346.23 966.746 357.438 929.916C368.641 893.103 304.168 864.311 305.624 824.985Z" stroke="#2671B7" stroke-opacity="0.1"/>
<path d="M313.414 815.135C316.47 777.177 380.841 765.351 372.018 727.364C363.786 691.92 313.137 665.14 281.19 676.391C248.265 687.986 259.291 740.489 243.902 772.481C238.237 784.256 221.081 788.161 220.903 801.716C220.728 815.072 239.192 821.567 243.086 834.647C254.855 874.173 231.553 927.509 265.305 950.839C295.65 971.815 345.257 946.662 357.043 913.417C368.824 880.187 310.521 851.08 313.414 815.135Z" stroke="#2671B7" stroke-opacity="0.1"/>
<path d="M322.474 805.059C326.754 770.697 386.107 762.671 379.522 727.781C373.377 695.227 328.087 668.753 298.421 677.625C267.845 686.77 275.879 734.944 260.548 763.363C254.905 773.823 239.057 776.646 238.364 788.956C237.681 801.085 254.319 807.766 257.37 819.817C266.591 856.229 243.186 903.709 273.152 926.335C300.093 946.677 346.461 925.918 358.544 896.208C370.621 866.511 318.421 837.598 322.474 805.059Z" stroke="#2671B7" stroke-opacity="0.1"/>
<path d="M332.812 794.846C338.022 764.087 392.134 759.349 387.515 727.658C383.206 698.09 343.178 672.355 315.943 679.101C287.873 686.053 293.29 729.764 278.293 754.71C272.774 763.891 258.298 765.769 257.194 776.823C256.105 787.715 270.928 794.428 273.227 805.406C280.175 838.577 257.121 880.346 283.408 901.973C307.041 921.417 349.875 904.67 361.978 878.426C374.075 852.194 327.878 823.974 332.812 794.846Z" stroke="#2671B7" stroke-opacity="0.1"/>
<path d="M344.437 784.586C350.283 757.416 398.962 755.442 396.035 727.035C393.303 700.531 358.412 675.958 333.745 680.834C308.321 685.859 311.505 725.001 297.109 746.589C291.811 754.535 278.766 755.606 277.353 765.402C275.961 775.055 288.989 781.646 290.63 791.515C295.589 821.337 273.329 857.569 296.062 877.915C316.499 896.207 355.53 883.073 367.381 860.209C379.227 837.356 338.901 810.315 344.437 784.586Z" stroke="#2671B7" stroke-opacity="0.1"/>
<path d="M357.35 774.366C363.538 750.752 406.627 751.013 405.11 725.954C403.694 702.573 373.788 679.571 351.807 682.841C329.153 686.212 330.492 720.706 316.959 739.069C311.978 745.828 300.411 746.234 298.793 754.777C297.2 763.194 308.464 769.514 309.542 778.246C312.802 804.63 291.768 835.528 311.09 854.321C328.461 871.217 363.444 861.285 374.777 841.698C386.105 822.119 351.489 796.727 357.35 774.366Z" stroke="#2671B7" stroke-opacity="0.1"/>
<path d="M371.546 764.272C377.786 744.162 415.162 746.122 414.77 724.456C414.404 704.24 389.305 683.202 370.113 685.136C350.333 687.13 350.223 716.925 337.804 732.212C333.234 737.839 323.182 737.723 321.464 745.023C319.771 752.216 329.311 758.119 329.924 765.692C331.779 788.572 312.39 814.364 328.461 831.346C342.909 846.614 373.628 839.46 384.183 823.028C394.733 806.604 365.637 783.316 371.546 764.272Z" stroke="#2671B7" stroke-opacity="0.1"/>
<path d="M387.018 754.393C393.023 737.714 424.595 740.838 425.041 722.587C425.456 705.558 404.962 686.863 388.644 687.734C371.826 688.632 370.664 713.704 359.602 726.08C355.53 730.636 347.024 730.142 345.308 736.218C343.616 742.205 351.481 747.55 351.729 753.947C352.478 773.276 335.138 794.219 348.134 809.145C359.819 822.565 386.083 817.755 395.608 804.342C405.13 790.935 381.332 770.188 387.018 754.393Z" stroke="#2671B7" stroke-opacity="0.1"/>
<path d="M403.751 744.813C409.238 731.473 434.952 735.222 435.946 720.391C436.873 706.554 420.756 690.561 407.381 690.646C393.595 690.733 391.779 711.085 382.305 720.731C378.818 724.281 371.878 723.554 370.264 728.431C368.675 733.237 374.923 737.886 374.905 743.1C374.851 758.853 359.946 775.228 370.061 787.868C379.154 799.232 400.801 796.323 409.054 785.776C417.304 775.233 398.556 757.445 403.751 744.813Z" stroke="#2671B7" stroke-opacity="0.1"/>
</svg>
