<svg width="1200" height="1048" viewBox="0 0 1200 1048" fill="none" xmlns="http://www.w3.org/2000/svg">
<path fill-rule="evenodd" clip-rule="evenodd" d="M790.557 119.643C962.32 101.92 1145.97 -50.4502 1277.26 49.916C1410.45 151.73 1372.8 361.944 1280.39 494.092C1206.29 600.04 1017.77 532.752 896.046 595.017C739.714 674.985 683.921 909.699 504.393 891.034C303.64 870.162 128.745 692.644 114.075 513.717C100.367 346.536 284.893 227.855 442.49 136.049C544.552 76.5938 669.161 132.168 790.557 119.643Z" stroke="#2671B7" stroke-opacity="0.1"/>
<path fill-rule="evenodd" clip-rule="evenodd" d="M768.706 420.626C772.447 433.196 789.148 445.104 781.163 456.02C773.063 467.094 752.601 466.708 738.916 461.353C727.944 457.06 732.096 442.267 724.713 433.93C715.232 423.222 692.221 421.768 691.851 408.203C691.438 393.034 706.246 377.989 723.104 374.844C738.855 371.905 752.359 384.264 762.983 394.93C769.863 401.837 766.063 411.742 768.706 420.626Z" stroke="#2671B7" stroke-opacity="0.1"/>
<path d="M1264.89 92.8589C1140.44 -9.18741 955.09 134.122 786.542 146.231C667.417 154.79 547.774 96.711 445.74 151.709C288.185 236.633 103.28 346.999 110.244 510.764C117.697 686.034 281.794 864.786 477.189 891.266C651.926 914.946 715.485 687.304 871.347 613.909C992.705 556.761 1174.36 628.222 1250.85 526.949C1346.26 400.631 1391.13 196.377 1264.89 92.8589Z" stroke="#2671B7" stroke-opacity="0.1"/>
<path d="M1251.29 134.1C1133.66 30.6839 947.13 165.007 782.047 171.724C665.372 176.472 550.752 116.135 448.983 166.747C291.837 244.9 107 347.067 107.504 507.191C108.044 678.563 261.44 858.081 451.261 889.858C621.012 918.275 691.842 697.914 846.891 630.968C967.617 578.841 1142.29 654.125 1220.89 557.552C1318.93 437.097 1370.61 239.007 1251.29 134.1Z" stroke="#2671B7" stroke-opacity="0.1"/>
<path d="M1236.55 173.608C1125.71 69.1184 938.464 194.561 777.061 196.118C662.986 197.219 553.419 134.863 452.132 181.176C295.731 252.69 111.377 346.802 105.715 503.088C99.6559 670.354 242.494 850.198 426.564 886.958C591.174 919.831 668.784 706.917 822.708 646.276C942.557 599.059 1110.17 677.82 1190.61 585.951C1290.93 471.363 1349 279.604 1236.55 173.608Z" stroke="#2671B7" stroke-opacity="0.1"/>
<path d="M1220.78 211.353C1116.66 106.082 929.165 222.77 771.643 219.404C660.311 217.026 555.814 152.889 455.221 194.997C299.891 260.017 116.423 346.234 104.896 498.501C92.5597 661.466 225.002 841.205 403.167 882.63C562.496 919.676 646.389 714.351 798.884 659.861C917.621 617.434 1078.12 699.328 1160.12 612.155C1262.4 503.424 1326.41 318.143 1220.78 211.353Z" stroke="#2671B7" stroke-opacity="0.1"/>
<path d="M1204.08 247.31C1106.59 141.543 919.308 249.619 765.853 241.575C657.396 235.889 557.974 170.209 458.279 208.213C304.336 266.897 122.145 345.392 105.061 493.473C86.7763 651.957 209.008 831.171 381.128 876.941C535.052 917.872 624.729 720.259 775.505 671.755C892.902 633.988 1046.24 718.672 1129.54 636.175C1233.44 533.278 1302.96 354.603 1204.08 247.31Z" stroke="#2671B7" stroke-opacity="0.1"/>
<path d="M1186.53 281.457C1095.61 175.474 908.972 275.101 759.757 262.626C654.296 253.809 559.94 186.819 461.341 220.829C309.09 273.346 128.554 344.308 106.226 488.049C82.3295 641.889 194.554 820.17 360.51 869.96C508.92 914.486 603.882 724.686 752.656 681.991C868.495 648.747 1014.66 735.879 1098.99 658.03C1204.17 560.929 1278.77 388.969 1186.53 281.457Z" stroke="#2671B7" stroke-opacity="0.1"/>
<path d="M1168.26 313.777C1083.78 207.853 898.231 299.206 753.412 282.555C651.059 270.786 561.75 202.72 464.436 232.852C314.17 279.38 135.654 343.011 108.401 482.274C79.234 631.321 181.676 808.273 341.364 861.758C484.169 909.588 583.915 727.679 730.419 690.607C844.49 661.741 983.472 750.982 1068.57 677.74C1174.72 586.386 1253.95 421.229 1168.26 313.777Z" stroke="#2671B7" stroke-opacity="0.1"/>
<path d="M1149.35 344.257C1071.22 238.659 887.161 321.931 746.882 301.361C647.738 286.823 563.443 217.909 467.597 244.286C319.597 285.016 143.453 341.533 111.598 476.193C77.5057 620.313 170.407 795.554 323.743 852.406C460.868 903.247 564.897 729.287 708.873 697.643C820.977 673.003 952.796 764.016 1038.41 695.331C1145.19 609.66 1228.62 451.378 1149.35 344.257Z" stroke="#2671B7" stroke-opacity="0.1"/>
<path d="M1129.92 372.886C1057.99 267.874 875.837 343.276 740.227 319.049C644.381 301.926 565.057 232.39 470.852 255.141C325.387 290.273 151.951 339.903 115.821 469.85C77.1539 608.927 160.775 782.086 307.693 841.978C439.078 895.538 546.89 729.562 688.096 703.141C798.042 682.569 922.729 775.021 1008.6 710.832C1115.72 630.768 1202.9 479.413 1129.92 372.886Z" stroke="#2671B7" stroke-opacity="0.1"/>
<path d="M1110.07 399.661C1044.2 295.487 864.336 363.242 733.506 335.622C641.04 316.101 566.631 246.165 474.233 265.427C331.557 295.17 161.152 338.153 121.078 463.293C78.1877 597.223 152.807 767.946 293.258 830.551C418.86 886.537 529.958 728.56 668.161 707.15C775.77 690.48 893.376 784.043 979.266 724.278C1086.4 649.734 1176.89 505.337 1110.07 399.661Z" stroke="#2671B7" stroke-opacity="0.1"/>
<path d="M1089.89 424.58C1029.93 321.488 852.733 381.835 726.782 351.089C637.765 329.359 568.204 259.241 477.769 275.154C338.126 299.726 171.057 336.315 127.369 456.565C80.6125 585.264 146.525 753.21 280.478 818.201C400.269 876.321 514.16 726.337 649.143 709.718C754.244 696.778 864.837 791.129 950.502 735.708C1057.35 666.583 1150.72 529.159 1089.89 424.58Z" stroke="#2671B7" stroke-opacity="0.1"/>
<path d="M1069.49 447.646C1015.27 345.872 841.1 399.062 720.112 365.458C634.601 341.708 569.81 271.62 481.487 284.332C345.105 303.96 181.662 334.415 134.695 449.712C84.428 573.108 141.943 737.952 269.385 805.005C383.353 864.968 499.549 722.951 631.108 710.895C733.543 701.508 837.205 796.328 922.411 745.163C1028.69 681.344 1124.5 550.889 1069.49 447.646Z" stroke="#2671B7" stroke-opacity="0.1"/>
<path d="M1048.98 468.866C1000.32 368.635 829.513 414.933 713.554 378.741C631.599 353.162 571.489 283.313 485.417 292.974C352.51 307.892 192.967 332.487 143.054 442.777C89.6348 560.816 139.077 722.249 260.013 791.041C368.163 852.56 486.179 718.461 614.124 710.735C713.744 704.719 810.577 799.698 895.097 752.688C1000.52 694.052 1098.34 570.543 1048.98 468.866Z" stroke="#2671B7" stroke-opacity="0.1"/>
<path d="M1028.44 488.252C985.159 389.781 818.042 429.464 707.166 390.954C628.802 363.737 573.276 294.327 489.583 301.094C360.351 311.543 204.965 330.559 152.44 435.807C96.2259 548.449 137.934 706.179 252.385 776.391C354.736 839.179 474.097 712.933 598.251 709.295C694.92 706.463 785.04 801.297 868.653 758.334C972.944 704.747 1072.35 588.143 1028.44 488.252Z" stroke="#2671B7" stroke-opacity="0.1"/>
<path d="M1007.99 505.818C969.883 409.314 806.76 442.67 701.005 402.113C626.26 373.448 575.207 304.675 494.015 308.708C368.642 314.935 217.652 328.661 162.849 428.845C104.196 536.067 138.522 689.819 246.528 761.134C343.115 824.91 463.352 706.428 583.553 706.634C677.145 706.794 760.682 801.186 843.177 762.155C946.073 713.472 1046.65 603.715 1007.99 505.818Z" stroke="#2671B7" stroke-opacity="0.1"/>
<path d="M987.715 521.584C954.577 427.243 795.738 454.571 695.125 412.235C624.015 382.314 577.317 314.366 498.735 315.829C377.393 318.089 231.02 326.822 174.27 421.935C113.534 523.728 140.841 673.243 242.457 745.352C333.33 809.837 453.982 699.013 570.084 702.811C660.484 705.769 737.587 799.431 818.759 764.207C920.005 720.272 1021.33 617.286 987.715 521.584Z" stroke="#2671B7" stroke-opacity="0.1"/>
<path d="M967.716 535.572C939.33 443.579 785.044 465.189 689.582 421.343C622.112 390.353 579.64 323.415 503.768 322.476C386.612 321.026 245.059 325.071 186.693 415.119C124.226 511.492 144.889 656.53 240.187 729.124C325.41 794.044 446.028 690.753 557.898 697.89C645.004 703.447 715.833 796.099 795.486 764.55C894.838 725.2 996.512 628.89 967.716 535.572Z" stroke="#2671B7" stroke-opacity="0.1"/>
<path d="M948.089 547.808C924.229 458.34 774.746 474.549 684.428 429.458C620.594 397.59 582.211 331.836 509.14 328.665C396.309 323.768 259.762 323.438 200.105 408.44C136.257 499.415 150.661 639.754 239.73 712.534C319.382 777.62 439.525 681.718 547.047 691.935C630.766 699.89 695.497 791.262 773.444 763.249C870.669 728.309 972.293 638.567 948.089 547.808Z" stroke="#2671B7" stroke-opacity="0.1"/>
<path d="M928.926 558.325C909.359 471.544 764.91 482.679 679.715 436.607C619.501 404.045 585.061 339.645 514.872 334.415C406.49 326.339 275.116 321.948 214.49 401.941C149.606 487.555 158.146 622.99 241.09 695.662C315.265 760.651 434.503 671.977 537.575 685.013C617.829 695.163 676.649 784.993 752.713 760.37C847.588 729.657 948.774 646.356 928.926 558.325Z" stroke="#2671B7" stroke-opacity="0.1"/>
<path d="M910.319 567.154C894.805 483.214 755.602 489.607 675.493 442.815C618.874 409.744 588.223 346.859 520.985 339.745C417.161 328.76 291.107 320.629 229.832 395.662C164.252 475.966 167.33 606.314 244.269 678.59C313.074 743.224 430.991 661.599 529.526 677.19C606.247 689.33 659.359 777.369 733.371 755.982C825.687 729.306 926.056 652.305 910.319 567.154Z" stroke="#2671B7" stroke-opacity="0.1"/>
<path d="M892.357 574.334C880.648 493.374 746.882 495.367 671.809 448.112C618.749 414.714 591.725 353.496 527.5 344.675C428.326 331.053 307.721 319.509 246.109 389.643C180.169 464.704 178.195 589.799 249.264 661.399C312.82 725.428 429.011 650.655 522.937 668.537C596.07 682.46 643.688 768.468 715.49 750.158C805.048 727.321 904.234 656.461 892.357 574.334Z" stroke="#2671B7" stroke-opacity="0.1"/>
<path d="M875.127 579.905C866.971 502.055 738.812 499.993 668.711 452.528C619.167 418.981 595.601 359.575 534.436 349.225C439.989 333.242 324.944 318.611 263.303 383.922C197.332 453.822 190.722 573.517 256.07 644.168C314.509 707.349 428.586 639.217 517.847 659.122C587.348 674.621 629.698 758.37 699.14 742.973C785.755 723.768 883.401 658.877 875.127 579.905Z" stroke="#2671B7" stroke-opacity="0.1"/>
<path d="M858.715 583.912C853.853 509.288 731.451 503.522 666.245 456.096C620.159 422.576 599.875 365.118 541.811 353.417C452.153 335.349 342.757 317.963 281.389 378.539C215.709 443.372 204.883 557.539 264.674 626.979C318.144 689.077 429.731 627.358 514.286 649.02C580.123 665.887 617.442 747.159 684.386 734.505C767.885 718.721 863.647 659.612 858.715 583.912Z" stroke="#2671B7" stroke-opacity="0.1"/>
<path d="M843.202 586.402C841.37 515.109 724.856 505.995 664.453 458.849C621.762 425.528 604.578 370.146 549.644 357.273C464.818 337.397 361.144 317.587 300.342 373.53C235.268 433.404 220.652 541.936 275.063 609.91C323.722 670.697 432.459 615.149 512.283 638.301C574.435 656.328 606.97 734.92 671.289 724.833C751.513 712.251 845.061 658.724 843.202 586.402Z" stroke="#2671B7" stroke-opacity="0.1"/>
<path d="M828.666 587.427C829.597 519.556 719.079 507.451 663.376 460.824C624.006 427.869 609.733 374.68 557.947 360.817C477.983 339.409 380.083 317.509 320.133 368.932C255.972 423.967 237.995 526.776 287.217 593.04C331.234 652.297 436.778 602.663 511.86 627.04C570.32 646.02 598.328 721.739 659.904 714.04C736.707 704.436 827.722 656.277 828.666 587.427Z" stroke="#2671B7" stroke-opacity="0.1"/>
<path d="M815.186 587.039C818.608 522.67 714.174 507.935 663.053 462.057C626.923 429.632 615.367 378.746 566.738 364.069C491.649 341.406 399.557 317.749 340.737 364.777C277.786 415.109 256.879 512.127 301.113 576.445C340.67 633.964 442.694 589.974 513.038 615.31C567.81 635.038 591.559 707.704 650.285 702.209C723.534 695.355 811.714 652.337 815.186 587.039Z" stroke="#2671B7" stroke-opacity="0.1"/>
<path d="M802.834 585.296C808.475 524.494 710.191 507.492 663.524 462.587C630.541 430.85 621.503 382.367 576.03 367.055C505.813 343.412 419.542 318.33 362.122 361.1C300.669 406.874 277.263 498.053 316.725 560.202C352.015 615.782 450.209 577.152 515.835 603.186C566.934 623.456 586.697 692.903 642.479 689.426C712.056 685.089 797.112 646.974 802.834 585.296Z" stroke="#2671B7" stroke-opacity="0.1"/>
<path d="M791.68 582.256C799.263 525.077 707.175 506.17 664.82 462.455C634.885 431.559 628.162 385.569 585.833 369.799C520.471 345.449 440.016 319.272 384.256 357.932C324.578 399.308 299.105 484.618 334.022 544.387C365.247 597.836 459.319 564.273 520.262 590.743C567.714 611.354 583.775 677.429 636.529 675.78C702.328 673.722 783.987 640.259 791.68 582.256Z" stroke="#2671B7" stroke-opacity="0.1"/>
<path d="M781.792 577.982C791.04 524.467 705.173 504.018 666.978 461.702C639.982 431.794 635.367 388.378 596.16 372.326C535.619 347.539 460.957 320.596 407.106 355.305C349.471 392.453 322.363 471.884 352.971 529.07C380.342 580.211 470.02 551.406 526.328 578.057C570.172 598.808 582.821 661.373 632.474 661.358C694.405 661.34 772.41 632.269 781.792 577.982Z" stroke="#2671B7" stroke-opacity="0.1"/>
<path d="M773.231 572.539C783.867 522.715 704.224 501.085 670.024 460.37C645.853 431.593 643.135 390.821 607.018 374.659C551.249 349.703 482.338 322.32 430.635 353.247C375.3 386.347 346.984 459.91 373.53 514.325C397.27 562.987 482.299 538.625 534.037 565.203C574.321 585.897 583.854 644.826 630.345 646.251C688.332 648.03 762.442 623.08 773.231 572.539Z" stroke="#2671B7" stroke-opacity="0.1"/>
<path d="M766.06 565.993C777.805 519.878 704.37 497.426 673.991 458.503C652.521 430.994 651.487 392.926 618.418 376.826C567.356 351.964 504.135 324.462 454.809 351.786C402.017 381.03 372.921 448.755 395.662 500.221C415.999 546.246 496.146 526.001 543.391 552.257C580.176 572.701 586.895 627.882 630.173 630.551C684.155 633.881 754.146 612.773 766.06 565.993Z" stroke="#2671B7" stroke-opacity="0.1"/>
<path d="M760.333 558.413C772.91 516.009 705.645 493.093 678.903 456.146C660.002 430.033 660.436 394.721 630.365 378.849C583.932 354.342 526.322 327.038 479.588 350.947C429.572 376.537 400.117 438.472 419.319 486.825C436.491 530.066 511.541 513.602 554.384 539.293C587.743 559.297 591.953 610.633 631.982 614.349C681.91 618.984 747.576 601.429 760.333 558.413Z" stroke="#2671B7" stroke-opacity="0.1"/>
<path d="M756.103 549.871C769.235 511.168 708.082 488.141 684.782 453.344C668.315 428.75 669.999 396.234 642.865 380.757C600.967 356.857 548.87 330.063 504.934 350.755C457.912 372.901 428.517 429.114 444.453 474.203C458.705 514.525 528.464 501.499 567.011 526.386C597.024 545.764 599.037 593.173 635.79 597.738C681.631 603.432 742.782 589.132 756.103 549.871Z" stroke="#2671B7" stroke-opacity="0.1"/>
<path d="M753.42 540.44C766.833 505.416 711.714 482.626 691.652 450.144C677.474 427.186 680.189 397.496 655.923 382.574C618.452 359.531 571.754 333.552 530.809 351.232C486.987 370.155 458.061 420.732 471.014 462.419C482.597 499.698 546.892 489.759 581.261 513.611C608.022 532.182 608.151 575.597 641.612 580.812C683.349 587.316 739.814 575.969 753.42 540.44Z" stroke="#2671B7" stroke-opacity="0.1"/>
<path d="M752.327 530.195C765.749 498.816 716.565 476.606 699.531 446.592C687.491 425.379 691.018 398.536 669.54 384.325C636.374 362.381 594.945 337.517 557.168 352.399C516.738 368.327 488.688 413.373 498.944 451.533C508.116 485.659 566.796 478.45 597.119 501.04C620.728 518.629 619.29 557.996 649.457 563.663C687.084 570.731 738.712 562.027 752.327 530.195Z" stroke="#2671B7" stroke-opacity="0.1"/>
<path d="M752.866 519.213C766.028 491.431 722.662 470.14 708.434 442.738C698.378 423.371 702.496 399.385 683.719 386.038C654.723 365.43 618.412 341.972 583.972 354.276C547.112 367.445 520.333 407.083 528.187 441.605C535.211 472.478 588.145 467.639 614.565 488.748C635.137 505.184 632.45 540.465 659.33 546.386C692.859 553.772 739.515 547.395 752.866 519.213Z" stroke="#2671B7" stroke-opacity="0.1"/>
<path d="M755.072 507.571C767.709 483.328 730.024 463.285 718.375 438.629C710.142 421.202 714.631 400.073 698.458 387.739C673.484 368.694 642.127 346.926 611.175 356.88C578.049 367.533 552.929 401.903 558.68 432.691C563.823 460.225 610.903 457.388 633.577 476.806C651.232 491.925 647.615 523.096 671.229 529.076C700.683 536.534 742.253 532.164 755.072 507.571Z" stroke="#2671B7" stroke-opacity="0.1"/>
<path d="M758.98 495.35C770.831 474.575 738.671 456.103 729.366 434.314C722.79 418.914 727.431 400.631 713.758 389.453C692.644 372.193 666.06 352.388 638.735 360.226C609.491 368.613 586.409 397.874 590.362 424.845C593.896 448.965 635.034 447.761 654.131 465.284C668.999 478.928 664.772 505.981 685.151 511.825C710.569 519.114 746.957 516.426 758.98 495.35Z" stroke="#2671B7" stroke-opacity="0.1"/>
<path d="M764.615 482.63C775.425 465.239 748.616 448.653 741.415 429.842C736.325 416.546 740.901 401.09 729.615 391.205C712.187 375.942 690.18 358.368 666.607 364.327C641.379 370.704 620.703 395.03 623.164 418.116C625.365 438.761 660.496 438.818 676.194 454.252C688.416 466.269 683.897 489.209 701.083 494.725C722.519 501.605 753.649 500.272 764.615 482.63Z" stroke="#2671B7" stroke-opacity="0.1"/>
<path d="M772.004 469.493C781.523 455.392 759.873 440.997 754.528 425.263C750.75 414.142 755.045 401.481 746.026 393.023C732.099 379.961 714.456 364.871 694.746 369.196C673.652 373.825 655.737 393.407 657.018 412.554C658.163 429.677 687.245 430.62 699.734 443.778C709.459 454.024 704.966 472.873 719.012 477.871C736.533 484.105 762.347 483.797 772.004 469.493Z" stroke="#2671B7" stroke-opacity="0.1"/>
</svg>
