<svg width="1513" height="1527" viewBox="0 0 1513 1527" fill="none" xmlns="http://www.w3.org/2000/svg">
<path fill-rule="evenodd" clip-rule="evenodd" d="M487.264 294.999C630.311 286.661 668.262 553.064 810.036 592.31C944.293 629.475 1058.96 416.512 1182.18 487.364C1305.45 558.249 1394.73 774.959 1313.25 881.657C1222.62 1000.34 1025.27 869.004 876.174 888.055C826.831 894.361 800.714 963.74 750.739 953.537C700.02 943.182 687.087 871.644 643.57 840.567C525.337 756.131 327.739 762.975 287.568 622.765C248.592 486.726 353.795 302.779 487.264 294.999Z" stroke="#2671B7" stroke-opacity="0.1"/>
<path fill-rule="evenodd" clip-rule="evenodd" d="M828.508 717.917C827.256 729.343 807.419 725.505 802.728 735.614C798.286 745.187 812.26 759.621 805.514 767.468C798.766 775.318 781.871 776.774 775.183 767.659C767.743 757.52 779.842 745.409 780.395 733.236C780.578 729.207 775.88 725.385 777.27 721.729C778.681 718.018 784.043 718.834 786.865 716.218C794.531 709.109 796.601 693.446 807.303 693.882C817.687 694.306 829.677 707.256 828.508 717.917Z" stroke="#2671B7" stroke-opacity="0.1"/>
<path d="M807.874 622.769C670.599 578.192 644.632 317.231 504.106 318.904C372.99 320.465 262.151 494.737 294.614 628.879C328.072 767.135 521.99 769.372 634.293 856.866C675.627 889.068 685.287 959.268 734.551 971.629C783.092 983.809 811.608 917.468 860.225 913.554C1007.13 901.727 1194.98 1038.42 1288.79 927.009C1373.14 826.844 1294.78 611.931 1176.96 537.397C1059.2 462.898 937.868 664.981 807.874 622.769Z" stroke="#2671B7" stroke-opacity="0.1"/>
<path d="M804.695 651.663C672.125 602.128 657.679 347.138 519.978 342.441C391.496 338.058 275.604 502.573 301.751 634.506C328.699 770.485 518.529 781.389 624.835 871.543C663.961 904.725 670.467 973.439 718.195 987.679C765.224 1001.71 795.946 938.468 843.726 936.849C988.1 931.958 1166.33 1073.37 1262.9 969.225C1349.72 875.596 1282.03 663.036 1169.77 585.239C1057.57 507.479 930.235 698.572 804.695 651.663Z" stroke="#2671B7" stroke-opacity="0.1"/>
<path d="M800.593 678.96C672.91 624.843 669.499 376.318 534.906 365.557C409.326 355.517 288.962 510.229 309.004 639.658C329.661 773.055 515.019 792.193 615.284 884.614C652.187 918.63 655.663 985.72 701.784 1001.71C747.228 1017.46 779.961 957.368 826.799 957.944C968.327 959.684 1136.84 1105.16 1235.75 1008.27C1324.67 921.162 1267.35 711.487 1160.75 630.811C1054.19 550.173 921.506 730.207 800.593 678.96Z" stroke="#2671B7" stroke-opacity="0.1"/>
<path d="M795.663 704.632C673.028 646.316 680.142 404.713 548.923 388.207C426.491 372.807 302.234 517.704 316.398 644.349C330.997 774.877 511.526 801.803 605.728 896.101C640.399 930.808 640.979 996.144 685.426 1013.75C729.221 1031.1 763.771 974.187 809.568 976.852C947.95 984.905 1106.68 1133.82 1207.52 1044.13C1298.18 963.5 1250.92 757.217 1150.03 674.046C1049.17 590.913 911.795 759.856 795.663 704.632Z" stroke="#2671B7" stroke-opacity="0.1"/>
<path d="M789.999 728.662C672.55 666.531 689.658 432.269 562.061 410.347C443.007 389.894 315.432 524.996 323.958 648.597C332.745 775.987 508.116 810.243 596.253 906.032C628.693 941.288 626.514 1004.75 669.229 1023.84C711.319 1042.66 747.489 988.95 792.153 993.595C927.11 1007.63 1076.05 1159.35 1178.4 1076.8C1270.43 1002.58 1232.89 800.174 1137.74 714.886C1042.63 629.638 901.22 787.498 789.999 728.662Z" stroke="#2671B7" stroke-opacity="0.1"/>
<path d="M783.696 751.031C671.55 685.471 698.105 458.932 574.354 431.932C458.889 406.74 328.566 532.103 331.705 652.417C334.941 776.42 504.851 817.532 586.944 914.435C617.159 950.101 612.365 1011.58 653.299 1032.03C693.633 1052.17 731.23 1001.68 774.674 1008.2C905.947 1027.87 1045.09 1181.78 1148.57 1106.27C1241.6 1038.39 1213.43 840.306 1124.04 753.278C1034.7 666.29 889.895 813.115 783.696 751.031Z" stroke="#2671B7" stroke-opacity="0.1"/>
<path d="M776.849 771.731C670.1 703.128 705.537 484.656 585.838 452.922C474.155 423.314 341.644 539.024 339.66 655.828C337.615 776.213 501.791 823.702 577.881 921.348C605.886 957.287 598.624 1016.69 637.735 1038.35C676.272 1059.69 715.101 1012.42 757.247 1020.69C884.597 1045.66 1014 1201.13 1118.21 1132.57C1211.89 1070.92 1192.7 877.58 1109.07 789.182C1025.48 700.825 877.937 836.696 776.849 771.731Z" stroke="#2671B7" stroke-opacity="0.1"/>
<path d="M769.557 790.76C668.278 719.499 712.017 509.398 596.556 473.282C488.827 439.584 354.681 545.761 347.847 658.85C340.802 775.407 499 828.784 569.147 926.811C594.964 962.89 585.388 1020.12 622.64 1042.86C659.346 1065.27 699.214 1021.21 739.99 1031.11C863.2 1061.02 982.943 1217.47 1087.49 1155.7C1181.49 1100.17 1170.87 911.971 1092.98 822.567C1015.13 733.204 865.466 858.241 769.557 790.76Z" stroke="#2671B7" stroke-opacity="0.1"/>
<path d="M761.915 808.119C666.156 734.585 717.605 533.118 606.546 492.976C502.924 455.522 367.685 552.315 356.283 661.504C344.53 774.042 496.533 832.812 560.817 930.867C584.476 966.957 572.741 1021.94 608.108 1045.63C642.957 1068.97 683.674 1028.1 723.015 1039.51C841.889 1073.99 952.08 1230.83 1056.6 1175.71C1150.58 1126.16 1148.11 943.462 1075.91 853.408C1003.75 763.396 852.596 877.754 761.915 808.119Z" stroke="#2671B7" stroke-opacity="0.1"/>
<path d="M754.019 823.815C663.809 748.386 722.367 555.779 615.854 511.971C516.472 471.096 380.669 558.683 364.988 663.809C348.827 772.158 494.448 835.821 552.968 933.564C574.506 969.539 560.771 1022.21 594.234 1046.71C627.207 1070.85 668.586 1033.13 706.434 1045.93C820.798 1084.61 921.579 1241.29 1025.72 1192.64C1119.34 1148.9 1124.58 972.044 1058.02 881.689C991.493 791.375 839.446 895.244 754.019 823.815Z" stroke="#2671B7" stroke-opacity="0.1"/>
<path d="M745.964 837.861C661.309 760.912 726.367 577.351 624.521 530.239C529.494 486.282 393.641 564.871 373.979 665.788C353.715 769.8 492.798 837.854 545.671 934.954C565.131 970.692 549.558 1020.99 581.106 1046.17C612.191 1070.98 654.047 1036.37 690.352 1050.44C800.055 1092.94 891.599 1248.9 994.999 1206.54C1087.96 1168.45 1100.47 997.724 1039.46 907.405C978.475 817.128 826.129 910.729 745.964 837.861Z" stroke="#2671B7" stroke-opacity="0.1"/>
<path d="M737.842 850.275C658.731 772.176 729.673 597.805 632.595 547.753C542.017 501.053 406.611 570.88 383.272 667.464C359.217 767.009 491.634 838.952 538.996 935.092C556.428 970.477 539.18 1018.36 568.808 1044.09C598.002 1069.44 640.154 1037.88 674.874 1053.09C779.786 1099.04 862.296 1253.76 964.625 1217.46C1056.62 1184.84 1075.92 1020.51 1020.36 930.558C964.831 840.645 812.759 924.233 737.842 850.275Z" stroke="#2671B7" stroke-opacity="0.1"/>
<path d="M729.749 861.081C656.145 782.194 732.353 617.12 640.122 564.491C554.066 515.387 419.591 576.712 392.882 668.86C365.354 763.832 491.006 839.16 533.008 934.037C548.467 968.956 529.711 1014.38 557.423 1040.53C584.729 1066.3 627.001 1037.73 660.1 1053.96C760.114 1102.98 833.82 1255.94 934.758 1225.49C1025.51 1198.12 1051.12 1040.44 1000.89 951.161C950.693 861.927 799.449 935.785 729.749 861.081Z" stroke="#2671B7" stroke-opacity="0.1"/>
<path d="M721.773 870.307C653.622 790.985 734.477 635.275 647.151 580.432C565.672 529.261 432.59 582.372 402.822 669.999C372.141 760.313 490.959 838.525 527.77 931.849C541.319 966.197 521.218 1009.15 547.026 1035.59C572.455 1061.64 614.677 1035.99 646.127 1053.11C741.156 1104.82 806.317 1255.55 905.56 1230.7C994.783 1208.37 1026.22 1057.52 981.194 969.231C936.19 880.981 786.31 945.423 721.773 870.307Z" stroke="#2671B7" stroke-opacity="0.1"/>
<path d="M714.005 877.987C651.233 798.575 736.115 652.255 653.731 595.558C576.863 542.658 445.618 587.863 413.105 670.906C379.595 756.496 491.539 837.098 523.341 928.594C535.047 962.27 513.769 1002.73 537.689 1029.33C561.259 1055.55 603.265 1032.74 633.044 1050.62C723.028 1104.65 779.927 1252.68 877.184 1233.18C964.624 1215.65 1001.39 1071.81 961.411 984.797C921.454 897.821 773.449 953.188 714.005 877.987Z" stroke="#2671B7" stroke-opacity="0.1"/>
<path d="M706.533 884.159C649.045 804.992 737.338 668.052 659.912 609.857C587.67 555.559 458.684 593.19 423.74 671.607C387.726 752.429 492.785 834.93 519.777 924.341C529.711 957.248 507.421 995.209 529.48 1021.86C551.215 1048.13 592.845 1028.06 620.942 1046.58C705.838 1102.55 754.783 1247.44 849.784 1233.02C935.194 1220.06 976.784 1083.36 941.69 997.897C906.612 912.471 760.972 959.128 706.533 884.159Z" stroke="#2671B7" stroke-opacity="0.1"/>
<path d="M699.44 888.866C647.125 810.267 738.218 682.657 665.745 623.316C598.125 567.948 471.797 598.357 434.739 672.126C396.545 748.156 494.736 832.074 517.129 919.156C525.37 951.207 502.232 986.678 522.461 1013.26C542.394 1039.46 583.495 1022.03 609.901 1041.07C689.693 1098.61 731.013 1239.96 823.503 1230.33C906.656 1221.68 952.565 1092.23 922.172 1008.57C891.792 924.958 748.982 963.297 699.44 888.866Z" stroke="#2671B7" stroke-opacity="0.1"/>
<path d="M692.809 892.156C645.535 814.435 738.825 696.071 671.281 635.928C608.259 579.812 484.967 603.371 446.108 672.488C406.058 743.725 497.426 828.585 515.443 913.114C522.075 944.225 498.252 977.223 516.689 1003.62C534.856 1029.63 575.282 1014.75 600 1034.18C674.69 1092.92 708.738 1230.35 798.481 1225.22C879.164 1220.61 928.883 1098.47 902.996 1016.88C877.12 935.322 737.576 965.756 692.809 892.156Z" stroke="#2671B7" stroke-opacity="0.1"/>
<path d="M686.72 894.081C644.34 817.536 739.232 708.295 676.571 647.688C618.105 591.14 498.202 608.238 457.855 672.72C416.271 739.18 500.888 824.52 514.765 906.288C519.872 936.383 495.525 966.935 512.216 993.04C528.662 1018.76 568.274 1006.29 591.312 1026.01C660.923 1085.59 688.072 1218.74 774.85 1217.81C852.868 1216.97 905.888 1102.18 884.298 1022.88C862.717 943.604 726.853 966.566 686.72 894.081Z" stroke="#2671B7" stroke-opacity="0.1"/>
<path d="M681.25 894.697C643.6 819.611 739.51 719.336 681.667 658.596C627.698 601.923 511.51 612.964 469.984 672.848C427.185 734.569 505.15 819.936 515.132 898.755C518.806 927.764 494.094 955.906 509.089 981.612C523.865 1006.94 562.531 996.771 583.903 1016.65C648.482 1076.71 669.121 1205.26 752.737 1208.22C827.911 1210.87 883.724 1103.43 866.211 1026.63C848.706 949.857 716.903 965.8 681.25 894.697Z" stroke="#2671B7" stroke-opacity="0.1"/>
<path d="M676.469 894.062C643.368 820.705 739.727 729.203 686.619 668.65C637.068 612.151 524.898 617.555 482.497 672.896C438.797 729.935 510.236 814.892 516.579 890.59C518.914 918.451 493.991 944.228 507.347 969.436C520.508 994.274 558.106 986.273 577.834 1006.2C637.447 1066.4 651.983 1190.05 732.258 1196.57C804.428 1202.44 862.528 1102.32 848.861 1028.21C835.2 954.136 707.814 963.529 676.469 894.062Z" stroke="#2671B7" stroke-opacity="0.1"/>
<path d="M672.45 892.242C643.705 820.866 739.957 737.913 691.482 677.856C646.253 621.822 538.375 622.019 495.401 672.891C451.108 725.323 516.171 809.448 519.139 881.873C520.231 908.529 495.249 931.996 507.029 956.611C518.636 980.865 555.051 974.899 573.164 994.759C627.896 1054.77 636.751 1173.26 713.526 1183.02C782.551 1191.79 842.439 1098.94 832.376 1027.71C822.317 956.505 699.671 959.832 672.45 892.242Z" stroke="#2671B7" stroke-opacity="0.1"/>
<path d="M669.259 889.304C644.661 820.146 740.266 745.485 696.305 686.224C655.287 630.932 551.948 626.365 508.693 672.86C464.111 720.78 522.971 803.665 522.836 872.685C522.786 898.088 497.892 919.308 508.163 943.24C518.284 966.821 553.408 962.752 569.942 982.441C619.899 1041.93 623.508 1155.03 696.645 1167.7C762.399 1179.08 823.581 1093.41 816.872 1025.2C810.166 957.035 692.552 954.795 669.259 889.304Z" stroke="#2671B7" stroke-opacity="0.1"/>
<path d="M666.956 885.317C646.284 818.596 740.724 751.94 701.138 693.761C664.203 639.478 565.622 630.599 522.373 672.825C477.798 716.345 530.654 797.601 527.693 863.103C526.603 887.211 501.939 906.257 510.774 929.423C519.48 952.249 553.217 949.932 568.211 969.346C613.518 1028.01 612.327 1135.51 681.71 1150.75C744.088 1164.45 806.079 1085.82 802.465 1020.79C798.852 955.798 686.533 948.499 666.956 885.317Z" stroke="#2671B7" stroke-opacity="0.1"/>
<path d="M665.601 880.355C648.621 816.274 741.395 757.305 706.032 700.482C673.036 647.463 579.405 634.73 536.44 672.813C492.157 712.064 539.229 791.32 533.725 853.21C531.7 875.989 507.404 892.94 514.88 915.262C522.246 937.257 554.509 936.544 568.011 955.584C608.81 1013.12 603.275 1114.85 668.807 1132.32C727.722 1148.03 790.047 1076.3 789.261 1014.58C788.476 952.878 681.681 941.038 665.601 880.355Z" stroke="#2671B7" stroke-opacity="0.1"/>
<path d="M665.248 874.495C651.715 813.237 742.346 761.612 711.035 706.403C681.822 654.891 593.302 638.766 550.89 672.849C507.177 707.977 548.707 784.883 540.947 843.087C538.092 864.51 514.296 879.453 520.494 900.86C526.602 921.954 557.312 922.692 569.375 941.264C605.825 997.38 596.41 1093.21 658.015 1112.58C713.4 1129.99 775.595 1064.99 777.367 1006.66C779.138 948.361 678.063 932.504 665.248 874.495Z" stroke="#2671B7" stroke-opacity="0.1"/>
<path d="M665.946 867.813C655.607 809.544 743.638 764.892 716.197 711.542C690.593 661.764 607.318 642.717 565.718 672.957C522.843 704.123 559.091 778.349 549.367 832.814C545.787 852.86 522.617 865.891 527.624 886.318C532.557 906.446 561.645 908.482 572.327 926.495C604.605 980.924 591.781 1070.74 649.404 1091.67C701.209 1110.49 762.824 1051.99 766.877 997.152C770.927 942.336 675.737 922.993 665.946 867.813Z" stroke="#2671B7" stroke-opacity="0.1"/>
<path d="M667.74 860.392C660.331 805.257 745.334 767.184 721.563 715.921C699.383 668.091 621.457 646.591 580.918 673.159C539.136 700.542 570.383 771.78 558.986 822.471C554.791 841.128 532.366 852.349 536.27 871.737C540.116 890.841 567.523 894.018 576.888 911.388C605.186 963.874 589.426 1047.61 643.034 1069.76C691.23 1089.67 751.829 1037.46 757.882 986.167C763.932 934.9 674.757 912.603 667.74 860.392Z" stroke="#2671B7" stroke-opacity="0.1"/>
<path d="M670.672 852.314C665.921 800.441 747.492 768.53 727.18 719.567C708.228 673.882 635.724 650.399 596.482 673.482C556.037 697.273 582.583 765.237 569.806 812.139C565.103 829.402 543.536 838.921 546.428 857.219C549.278 875.248 574.955 879.408 583.071 896.056C607.597 946.358 589.378 1023.97 638.958 1047C683.533 1067.71 742.698 1021.52 750.467 973.828C758.233 926.154 675.171 901.437 670.672 852.314Z" stroke="#2671B7" stroke-opacity="0.1"/>
<path d="M674.776 843.663C672.406 795.157 750.17 768.97 733.092 722.502C717.158 679.146 650.123 654.147 612.403 673.944C573.526 694.348 595.684 758.777 581.819 801.896C576.716 817.767 556.113 825.698 558.089 842.86C560.037 859.771 583.944 864.754 590.885 880.605C611.859 928.502 591.659 999.979 637.219 1023.57C678.18 1044.78 735.508 1004.33 744.709 960.253C753.906 916.2 677.021 889.596 674.776 843.663Z" stroke="#2671B7" stroke-opacity="0.1"/>
<path d="M680.085 834.524C679.812 789.474 753.419 768.553 739.342 724.759C726.207 683.897 664.657 657.846 628.669 674.569C591.577 691.804 609.677 752.461 595.017 791.821C589.621 806.308 570.079 812.771 571.237 828.76C572.379 844.514 594.487 850.16 600.33 865.148C617.986 910.434 596.28 975.8 637.849 999.621C675.222 1021.04 730.331 986.019 740.678 945.573C751.02 905.146 680.343 877.185 680.085 834.524Z" stroke="#2671B7" stroke-opacity="0.1"/>
<path d="M686.624 824.986C688.161 783.458 757.293 767.329 745.971 726.368C735.406 688.149 679.327 661.508 645.269 675.378C610.166 689.673 624.551 746.346 609.384 781.991C603.801 795.11 585.411 800.23 585.851 815.014C586.284 829.581 606.574 835.731 611.401 849.793C625.984 892.282 603.246 951.591 640.873 975.322C674.701 996.658 727.23 966.746 738.438 929.917C749.641 893.104 685.168 864.311 686.624 824.986Z" stroke="#2671B7" stroke-opacity="0.1"/>
<path d="M694.414 815.135C697.47 777.177 761.841 765.351 753.018 727.364C744.786 691.921 694.137 665.141 662.19 676.391C629.265 687.986 640.291 740.49 624.902 772.482C619.237 784.256 602.081 788.161 601.903 801.716C601.728 815.073 620.192 821.567 624.086 834.648C635.855 874.173 612.553 927.509 646.305 950.84C676.65 971.815 726.257 946.663 738.043 913.418C749.824 880.188 691.521 851.081 694.414 815.135Z" stroke="#2671B7" stroke-opacity="0.1"/>
<path d="M703.474 805.059C707.754 770.697 767.107 762.672 760.522 727.781C754.377 695.227 709.087 668.753 679.421 677.626C648.845 686.77 656.879 734.944 641.548 763.364C635.905 773.823 620.057 776.647 619.364 788.956C618.681 801.085 635.319 807.767 638.37 819.817C647.591 856.23 624.186 903.71 654.152 926.335C681.093 946.677 727.461 925.919 739.544 896.208C751.621 866.511 699.421 837.599 703.474 805.059Z" stroke="#2671B7" stroke-opacity="0.1"/>
<path d="M713.812 794.847C719.022 764.088 773.134 759.349 768.515 727.659C764.206 698.091 724.178 672.356 696.943 679.101C668.873 686.053 674.29 729.765 659.293 754.71C653.774 763.892 639.298 765.769 638.194 776.823C637.105 787.716 651.928 794.428 654.227 805.406C661.175 838.578 638.121 880.346 664.408 901.974C688.041 921.418 730.875 904.671 742.978 878.426C755.075 852.194 708.878 823.975 713.812 794.847Z" stroke="#2671B7" stroke-opacity="0.1"/>
<path d="M725.437 784.586C731.283 757.416 779.962 755.442 777.035 727.036C774.303 700.531 739.412 675.958 714.745 680.834C689.321 685.86 692.505 725.002 678.109 746.59C672.811 754.535 659.766 755.606 658.353 765.403C656.961 775.055 669.989 781.647 671.63 791.516C676.589 821.338 654.329 857.569 677.062 877.916C697.499 896.208 736.53 883.074 748.381 860.21C760.227 837.356 719.901 810.315 725.437 784.586Z" stroke="#2671B7" stroke-opacity="0.1"/>
<path d="M738.35 774.366C744.538 750.753 787.627 751.013 786.11 725.954C784.694 702.574 754.788 679.571 732.807 682.842C710.153 686.212 711.492 720.707 697.959 739.07C692.978 745.828 681.411 746.235 679.793 754.777C678.2 763.194 689.464 769.515 690.542 778.246C693.802 804.631 672.768 835.528 692.09 854.322C709.461 871.218 744.444 861.286 755.777 841.698C767.105 822.12 732.489 796.728 738.35 774.366Z" stroke="#2671B7" stroke-opacity="0.1"/>
<path d="M752.546 764.273C758.786 744.162 796.162 746.123 795.77 724.456C795.404 704.24 770.305 683.203 751.113 685.137C731.333 687.13 731.223 716.925 718.804 732.213C714.234 737.839 704.182 737.723 702.464 745.023C700.771 752.217 710.311 758.12 710.924 765.692C712.779 788.572 693.39 814.364 709.461 831.347C723.909 846.614 754.628 839.46 765.183 823.029C775.733 806.604 746.637 783.317 752.546 764.273Z" stroke="#2671B7" stroke-opacity="0.1"/>
<path d="M768.018 754.394C774.023 737.714 805.595 740.838 806.041 722.587C806.456 705.559 785.962 686.863 769.644 687.734C752.826 688.632 751.664 713.704 740.602 726.081C736.53 730.636 728.024 730.142 726.308 736.219C724.616 742.206 732.481 747.55 732.729 753.947C733.478 773.277 716.138 794.22 729.134 809.146C740.819 822.565 767.083 817.756 776.608 804.342C786.13 790.935 762.332 770.189 768.018 754.394Z" stroke="#2671B7" stroke-opacity="0.1"/>
<path d="M784.751 744.813C790.238 731.473 815.952 735.222 816.946 720.392C817.873 706.555 801.756 690.561 788.381 690.646C774.595 690.733 772.779 711.086 763.305 720.731C759.818 724.281 752.878 723.554 751.264 728.432C749.675 733.238 755.923 737.886 755.905 743.1C755.851 758.854 740.946 775.228 751.061 787.868C760.154 799.232 781.801 796.324 790.054 785.776C798.304 775.233 779.556 757.445 784.751 744.813Z" stroke="#2671B7" stroke-opacity="0.1"/>
</svg>
