<svg width="1247" height="1434" viewBox="0 0 1247 1434" fill="none" xmlns="http://www.w3.org/2000/svg">
<path fill-rule="evenodd" clip-rule="evenodd" d="M767.54 301.423C921.462 223.164 1038.09 14.9797 1196.68 61.4646C1357.56 108.62 1397.97 318.32 1359.21 474.851C1328.13 600.346 1128.02 605.296 1036.8 707.142C919.646 837.944 951.92 1077.03 777.676 1124.12C582.831 1176.78 355.83 1073.96 277.845 912.26C204.979 761.17 334.533 584.11 448.616 441.806C522.497 349.648 658.753 356.734 767.54 301.423Z" stroke="#2671B7" stroke-opacity="0.1"/>
<path fill-rule="evenodd" clip-rule="evenodd" d="M855.302 590.156C863.31 600.542 883.174 605.653 879.645 618.71C876.065 631.955 856.831 638.947 842.136 638.867C830.354 638.803 828.913 623.507 819.028 618.379C806.332 611.794 784.335 618.706 779.116 606.179C773.28 592.172 781.693 572.811 796.294 563.818C809.937 555.415 826.981 562.097 840.728 568.233C849.63 572.206 849.643 582.815 855.302 590.156Z" stroke="#2671B7" stroke-opacity="0.1"/>
<path d="M1200.56 105.986C1047.76 55.4752 926.287 255.814 773.347 327.679C665.255 378.471 532.733 367.264 457.276 455.252C340.76 591.119 207.863 760.556 273.209 910.881C343.145 1071.77 560.513 1179.61 752.373 1134.11C923.948 1093.42 901.462 858.146 1020.54 733.646C1113.26 636.708 1308.46 638.12 1343.45 516.126C1387.09 363.963 1355.58 157.225 1200.56 105.986Z" stroke="#2671B7" stroke-opacity="0.1"/>
<path d="M1202.69 149.358C1055.76 95.1161 929.957 287.495 778.314 353.084C671.137 399.44 542.492 384.32 465.706 468.121C347.139 597.521 211.36 759.283 269.368 908.53C331.452 1068.26 539.109 1180.67 727.67 1142.12C896.295 1107.64 883.211 876.543 1003.85 758.353C1097.78 666.328 1287.84 673.817 1326.49 555.451C1374.69 407.813 1351.74 204.382 1202.69 149.358Z" stroke="#2671B7" stroke-opacity="0.1"/>
<path d="M1203.14 191.522C1062.15 133.842 932.488 318.19 782.425 377.641C676.365 419.659 551.71 400.838 473.83 480.454C353.572 603.391 215.349 757.463 266.224 905.345C320.674 1063.62 518.595 1180.12 703.581 1148.28C869.009 1119.81 864.927 893.23 986.78 781.329C1081.66 694.201 1266.38 707.472 1308.43 592.836C1360.88 449.849 1346.16 250.034 1203.14 191.522Z" stroke="#2671B7" stroke-opacity="0.1"/>
<path d="M1201.99 232.413C1066.99 171.589 933.947 347.856 785.737 401.318C680.986 439.104 560.422 416.8 481.679 492.242C360.088 608.735 219.853 755.119 263.812 901.359C310.858 1057.87 499.04 1178.01 680.191 1152.65C842.19 1129.97 846.699 908.215 969.43 802.568C1064.99 720.309 1244.19 739.062 1289.39 628.245C1345.77 490.023 1338.93 294.115 1201.99 232.413Z" stroke="#2671B7" stroke-opacity="0.1"/>
<path d="M1199.31 271.973C1070.34 208.298 934.397 376.454 788.301 424.088C685.044 457.755 568.662 432.187 489.282 503.477C366.708 613.558 224.891 752.278 262.159 896.607C302.044 1051.08 480.509 1174.4 657.581 1155.26C815.931 1138.15 828.61 921.512 951.886 822.068C1047.87 744.639 1221.4 768.567 1269.49 661.649C1329.47 528.29 1330.15 336.566 1199.31 271.973Z" stroke="#2671B7" stroke-opacity="0.1"/>
<path d="M1195.21 310.143C1072.28 243.911 933.908 403.947 790.176 445.924C688.59 475.592 576.465 446.982 496.673 514.15C373.462 617.868 230.482 748.963 261.297 891.127C294.277 1043.28 463.068 1169.33 635.831 1156.16C790.328 1144.38 810.746 933.134 934.242 839.831C1030.4 767.182 1198.11 795.974 1248.83 693.022C1312.1 564.61 1319.92 377.329 1195.21 310.143Z" stroke="#2671B7" stroke-opacity="0.1"/>
<path d="M1189.77 346.871C1072.88 278.376 932.545 430.303 791.415 466.802C691.67 492.598 583.867 461.17 503.88 524.257C380.37 621.673 236.642 745.201 261.252 884.956C287.59 1034.53 446.774 1162.85 615.016 1155.38C765.47 1148.7 793.187 943.102 916.585 855.862C1012.66 787.935 1174.43 821.274 1227.53 722.345C1293.76 598.95 1308.35 416.354 1189.77 346.871Z" stroke="#2671B7" stroke-opacity="0.1"/>
<path d="M1183.08 382.107C1072.22 311.64 930.381 455.488 792.08 486.698C694.333 508.757 590.906 474.736 510.939 533.792C387.46 624.983 243.389 741.019 262.05 878.132C282.022 1024.88 431.688 1155.03 595.212 1152.99C741.447 1151.16 776.017 951.436 899.007 870.169C994.77 806.893 1150.49 844.46 1205.7 749.599C1274.57 631.278 1295.55 453.59 1183.08 382.107Z" stroke="#2671B7" stroke-opacity="0.1"/>
<path d="M1175.24 415.807C1070.37 343.657 927.483 479.476 792.225 505.596C696.628 524.058 597.616 487.67 517.878 542.753C394.752 627.809 250.734 736.445 263.712 870.696C277.602 1014.38 417.861 1145.92 576.487 1149.02C718.342 1151.79 759.312 958.164 881.593 882.768C976.804 824.062 1126.38 865.535 1183.46 774.775C1254.65 661.57 1281.62 488.997 1175.24 415.807Z" stroke="#2671B7" stroke-opacity="0.1"/>
<path d="M1166.33 447.928C1067.42 374.382 923.924 502.241 791.908 523.477C698.603 538.486 604.034 499.959 524.729 551.137C402.27 630.161 258.692 731.506 266.26 862.687C274.361 1003.08 405.343 1135.59 558.909 1143.55C696.239 1150.66 743.151 963.313 864.43 893.672C958.861 839.448 1102.23 884.501 1160.91 797.865C1234.1 689.804 1266.66 522.534 1166.33 447.928Z" stroke="#2671B7" stroke-opacity="0.1"/>
<path d="M1156.46 478.433C1063.45 403.774 919.778 523.762 791.191 540.327C700.311 552.036 610.2 511.596 531.524 558.943C410.037 632.053 267.274 726.231 269.715 854.148C272.327 991.052 394.185 1124.1 542.545 1136.61C675.219 1147.81 727.609 966.915 847.605 902.902C941.037 853.06 1078.15 901.369 1138.18 818.868C1213.05 715.964 1250.8 554.169 1156.46 478.433Z" stroke="#2671B7" stroke-opacity="0.1"/>
<path d="M1145.71 507.288C1058.54 431.795 915.112 544.018 790.13 556.134C701.796 564.697 616.148 522.572 538.292 566.172C418.071 633.496 276.489 720.647 274.088 845.12C271.519 978.337 384.427 1111.5 527.451 1128.28C655.354 1143.29 712.757 969.005 831.197 910.481C923.418 864.912 1054.23 916.15 1115.36 837.784C1191.61 740.039 1234.14 583.869 1145.71 507.288Z" stroke="#2671B7" stroke-opacity="0.1"/>
<path d="M1134.19 534.463C1052.76 458.411 910.002 562.993 788.783 570.887C703.11 576.465 621.916 532.88 545.064 572.825C426.394 634.505 286.345 714.786 279.397 835.645C271.961 964.995 376.109 1097.88 513.687 1118.62C636.719 1137.17 698.667 969.62 815.29 916.435C906.095 875.023 1030.59 928.864 1092.57 854.622C1169.88 762.021 1216.79 611.611 1134.19 534.463Z" stroke="#2671B7" stroke-opacity="0.1"/>
<path d="M1121.99 559.932C1046.21 483.592 904.518 580.675 787.21 584.579C704.3 587.338 627.541 542.517 551.87 578.906C435.024 635.095 296.849 708.675 285.652 825.768C273.669 951.086 369.269 1083.29 501.305 1107.69C619.382 1129.51 685.406 968.802 799.96 920.794C889.155 883.415 1007.33 939.532 1069.92 869.394C1147.99 781.91 1198.86 637.374 1121.99 559.932Z" stroke="#2671B7" stroke-opacity="0.1"/>
<path d="M1109.22 583.675C1038.98 507.309 898.736 597.053 785.47 597.206C705.417 597.314 633.062 551.479 558.741 584.418C443.981 635.281 308.007 702.345 292.864 815.53C276.657 936.667 363.938 1067.81 490.357 1095.56C603.409 1120.37 673.041 966.593 785.288 923.592C872.686 890.111 984.562 948.181 1047.52 882.114C1126.05 799.708 1180.47 661.142 1109.22 583.675Z" stroke="#2671B7" stroke-opacity="0.1"/>
<path d="M1095.96 605.673C1031.14 529.54 892.726 612.12 783.62 608.765C706.508 606.394 638.513 559.765 565.705 589.368C453.28 635.079 319.821 695.826 301.039 804.977C280.937 921.797 360.146 1051.51 480.886 1082.29C588.861 1109.82 661.632 963.039 771.345 924.865C856.769 895.141 962.378 954.842 1025.47 892.803C1104.17 815.421 1161.72 682.903 1095.96 605.673Z" stroke="#2671B7" stroke-opacity="0.1"/>
<path d="M1082.32 625.913C1022.78 550.265 886.561 625.872 781.72 619.256C707.621 614.581 643.933 567.375 572.791 593.762C462.939 634.507 332.294 689.147 310.183 794.153C286.518 906.536 357.918 1034.46 472.937 1067.96C575.796 1097.92 651.241 958.19 758.205 924.651C841.489 898.537 940.88 959.55 1003.88 901.486C1082.45 829.063 1142.73 702.651 1082.32 625.913Z" stroke="#2671B7" stroke-opacity="0.1"/>
<path d="M1068.4 644.385C1013.99 569.466 880.315 638.307 779.827 628.682C708.805 621.879 649.358 574.31 580.028 597.607C472.974 633.582 345.428 682.339 320.3 783.101C293.406 890.942 357.277 1016.73 466.549 1052.65C564.269 1084.76 641.926 952.095 745.938 922.993C826.925 900.334 920.164 962.343 982.84 908.192C1061.02 840.649 1123.6 720.384 1068.4 644.385Z" stroke="#2671B7" stroke-opacity="0.1"/>
<path d="M1054.3 661.085C1004.86 587.131 874.057 649.427 777.997 637.047C710.104 628.296 654.823 580.573 587.443 600.914C483.398 632.322 359.22 675.432 331.388 771.867C301.601 875.077 358.237 998.399 461.755 1036.41C554.329 1070.41 633.739 944.809 734.611 919.937C813.152 900.571 900.323 963.265 962.459 912.954C1039.96 850.201 1104.46 736.104 1054.3 661.085Z" stroke="#2671B7" stroke-opacity="0.1"/>
<path d="M1040.11 676.01C995.469 603.251 867.86 659.238 776.287 644.357C711.567 633.84 660.366 586.169 595.063 603.691C494.226 630.747 373.67 668.455 343.449 760.495C311.105 859 360.816 979.536 458.588 1019.34C546.022 1054.93 626.732 936.386 724.288 915.529C800.248 899.289 881.448 962.363 942.832 915.81C1019.4 857.743 1085.39 749.819 1040.11 676.01Z" stroke="#2671B7" stroke-opacity="0.1"/>
<path d="M1025.93 689.165C985.908 617.82 861.792 667.747 774.753 650.625C713.237 638.523 666.02 591.104 602.914 605.951C505.47 628.876 388.772 661.439 356.477 749.029C321.913 842.771 365.021 960.22 457.072 1001.5C539.39 1038.42 620.953 926.885 715.031 909.821C788.282 896.535 863.626 959.688 924.052 916.8C999.422 863.307 1066.52 761.539 1025.93 689.165Z" stroke="#2671B7" stroke-opacity="0.1"/>
<path d="M1011.85 700.555C976.264 630.835 855.924 674.963 773.45 655.858C715.16 642.355 671.821 595.385 611.022 607.704C517.141 626.727 404.522 654.413 370.467 737.512C334.019 826.448 370.861 940.524 457.232 982.974C534.471 1020.94 616.446 916.363 706.898 902.865C777.327 892.354 846.941 955.291 906.213 915.97C980.142 866.924 1047.95 771.28 1011.85 700.555Z" stroke="#2671B7" stroke-opacity="0.1"/>
<path d="M997.973 710.193C966.621 642.3 850.323 680.902 772.43 660.074C717.378 645.354 677.802 599.022 619.411 608.967C529.249 624.323 420.912 647.407 385.41 725.99C347.413 810.093 378.335 920.525 459.084 963.842C531.297 1002.58 613.253 904.885 699.945 894.717C767.445 886.8 831.475 949.234 889.401 913.369C961.651 868.635 1029.78 779.064 997.973 710.193Z" stroke="#2671B7" stroke-opacity="0.1"/>
<path d="M984.391 718.091C957.063 652.217 845.056 685.579 771.747 663.287C719.934 647.532 683.997 602.023 628.106 609.751C541.804 621.683 437.936 640.45 401.297 714.505C362.084 793.762 387.444 900.297 462.646 944.179C529.897 983.422 611.412 892.511 694.224 885.433C758.703 879.923 817.305 941.575 873.703 909.049C944.048 868.481 1012.11 784.914 984.391 718.091Z" stroke="#2671B7" stroke-opacity="0.1"/>
<path d="M971.195 724.27C947.675 660.598 840.189 689.014 771.451 665.517C722.87 648.91 690.437 604.403 637.128 610.074C554.813 618.829 455.582 633.571 418.114 703.101C378.015 777.516 398.181 879.918 467.926 924.069C530.296 963.552 610.956 879.307 689.782 875.077C751.158 871.782 804.504 932.379 859.2 903.068C927.423 866.508 995.054 788.861 971.195 724.27Z" stroke="#2671B7" stroke-opacity="0.1"/>
<path d="M958.475 728.752C938.539 667.452 835.785 691.229 771.593 666.784C726.225 649.507 697.155 606.173 646.501 609.95C568.284 615.783 473.841 626.798 435.849 691.82C395.188 761.411 410.539 859.462 474.931 903.589C532.514 943.052 611.917 865.339 686.667 863.706C744.869 862.435 793.143 921.714 845.972 895.484C911.867 862.767 978.699 790.936 958.475 728.752Z" stroke="#2671B7" stroke-opacity="0.1"/>
<path d="M946.322 731.564C929.738 672.797 831.909 692.247 772.223 667.11C730.038 649.344 704.183 607.347 656.245 609.398C582.223 612.565 492.701 620.158 454.485 680.705C413.584 745.504 424.505 839.003 483.664 882.822C536.568 922.008 614.323 850.674 684.921 851.387C739.89 851.942 783.288 909.649 834.095 886.36C897.466 857.311 963.145 791.178 946.322 731.564Z" stroke="#2671B7" stroke-opacity="0.1"/>
<path d="M934.82 732.735C921.351 676.65 828.62 692.096 773.385 666.521C734.347 648.445 711.548 607.942 666.379 608.436C596.633 609.199 512.146 613.681 474.002 669.795C433.178 729.852 440.061 818.617 494.122 861.847C542.468 900.506 618.196 835.381 684.58 838.185C736.269 840.368 775.001 896.259 823.638 875.763C884.304 850.199 948.484 789.628 934.82 732.735Z" stroke="#2671B7" stroke-opacity="0.1"/>
<path d="M924.057 732.3C913.458 679.036 825.978 690.807 775.128 665.043C739.189 646.833 719.281 607.975 676.924 607.083C611.52 605.706 532.164 607.392 494.381 659.133C453.945 714.509 457.189 798.376 506.301 840.745C550.221 878.634 623.559 819.529 685.683 824.166C734.055 827.777 768.341 881.618 814.672 863.762C872.46 841.491 934.809 786.332 924.057 732.3Z" stroke="#2671B7" stroke-opacity="0.1"/>
<path d="M914.112 730.296C906.134 679.978 824.039 688.411 777.493 662.704C744.595 644.535 727.408 607.463 687.896 605.359C626.884 602.109 552.736 601.317 515.599 648.757C475.854 699.53 475.864 778.355 520.19 819.596C559.829 856.477 630.425 803.189 688.258 809.401C733.288 814.237 763.359 865.804 807.257 850.429C862.01 831.252 922.205 781.338 914.112 730.296Z" stroke="#2671B7" stroke-opacity="0.1"/>
<path d="M905.068 726.764C899.458 679.508 822.86 684.944 780.524 659.537C750.602 641.58 735.959 606.427 699.313 603.284C642.728 598.431 573.847 595.484 537.634 638.708C498.876 684.968 496.059 758.625 535.775 798.482C571.292 834.125 638.811 786.432 692.335 793.958C734.01 799.818 760.108 848.899 801.455 835.839C853.028 819.549 910.759 774.701 905.068 726.764Z" stroke="#2671B7" stroke-opacity="0.1"/>
<path d="M897 721.749C893.499 677.657 822.492 680.443 784.26 655.573C757.239 637.995 744.955 604.886 711.189 600.88C659.051 594.694 595.477 589.915 560.457 629.021C522.976 670.874 517.744 739.256 553.039 777.48C584.602 811.662 648.723 769.33 697.936 777.91C736.254 784.591 758.63 830.985 797.321 820.07C845.58 806.454 900.551 766.476 897 721.749Z" stroke="#2671B7" stroke-opacity="0.1"/>
<path d="M889.983 715.297C888.33 674.46 822.987 674.945 788.74 650.845C764.535 633.811 754.423 602.862 723.539 598.168C675.851 590.92 617.607 584.635 584.041 619.733C548.117 657.297 540.884 720.318 571.958 756.669C599.747 789.177 660.166 751.953 705.081 761.327C740.053 768.626 758.967 812.146 794.905 803.199C839.731 792.04 891.659 756.722 889.983 715.297Z" stroke="#2671B7" stroke-opacity="0.1"/>
<path d="M884.091 707.46C884.022 669.956 824.395 668.494 794.002 645.39C772.521 629.06 764.386 600.378 736.378 595.171C693.13 587.132 640.216 579.668 608.359 610.881C574.263 644.287 565.444 701.88 592.511 736.128C616.716 766.755 673.146 734.376 713.79 744.285C745.436 752 761.157 792.469 794.257 785.311C835.543 776.384 884.16 745.505 884.091 707.46Z" stroke="#2671B7" stroke-opacity="0.1"/>
<path d="M879.389 698.292C880.638 664.186 826.759 661.133 800.077 639.244C781.219 623.774 774.865 597.457 749.715 591.913C710.879 583.353 663.282 575.036 633.377 602.499C601.37 631.891 591.38 684.007 614.663 715.933C635.485 744.484 687.656 716.671 724.07 726.856C752.424 734.786 765.228 772.041 795.416 766.489C833.069 759.564 878.121 732.89 879.389 698.292Z" stroke="#2671B7" stroke-opacity="0.1"/>
<path d="M875.946 687.85C878.245 657.194 830.125 652.908 807.001 632.448C790.658 617.988 785.882 594.125 763.562 588.417C729.098 579.604 686.783 570.76 659.065 594.619C629.399 620.153 618.651 666.766 638.386 696.161C656.034 722.447 703.694 698.91 735.935 709.116C761.038 717.062 771.209 750.952 798.421 746.819C832.364 741.663 873.613 718.947 875.946 687.85Z" stroke="#2671B7" stroke-opacity="0.1"/>
<path d="M873.821 676.193C876.903 649.028 834.532 643.865 814.801 625.041C800.856 611.737 797.453 590.406 777.928 584.708C747.779 575.909 710.694 566.862 685.386 587.273C658.301 609.118 647.209 650.219 663.64 676.884C678.333 700.73 721.249 681.166 749.386 691.139C771.294 698.905 779.12 729.294 803.306 726.389C833.472 722.765 870.696 703.749 873.821 676.193Z" stroke="#2671B7" stroke-opacity="0.1"/>
<path d="M873.076 663.384C876.671 639.737 840.021 634.056 823.508 617.065C811.837 605.057 809.599 586.327 792.822 580.809C766.917 572.289 734.992 563.36 712.309 580.492C688.032 598.828 677.006 634.428 690.386 658.178C702.351 679.416 740.309 663.511 764.426 673.002C783.205 680.391 788.981 707.156 810.099 705.287C836.438 702.955 869.43 687.372 873.076 663.384Z" stroke="#2671B7" stroke-opacity="0.1"/>
<path d="M873.764 649.488C877.603 629.374 846.625 623.53 833.145 608.563C823.617 597.984 822.334 581.915 808.25 576.747C786.502 568.766 759.649 560.273 739.792 574.304C718.541 589.321 707.986 619.452 718.579 640.112C728.051 658.587 760.856 646.016 781.051 654.779C796.776 661.601 800.802 684.633 818.822 683.605C841.298 682.322 869.87 669.893 873.764 649.488Z" stroke="#2671B7" stroke-opacity="0.1"/>
<path d="M875.939 634.574C879.755 617.994 854.379 612.341 843.737 599.578C836.215 590.557 835.674 577.199 824.218 572.546C806.527 565.361 784.641 557.619 767.801 568.738C749.779 580.637 740.098 605.348 748.173 622.756C755.395 638.324 782.873 628.754 799.256 636.546C812.013 642.613 814.593 661.817 829.497 661.434C848.087 660.956 872.067 651.392 875.939 634.574Z" stroke="#2671B7" stroke-opacity="0.1"/>
</svg>
